<?xml version="1.0" encoding="utf-8"?>
<!-- Generator: Adobe Illustrator 25.2.0, SVG Export Plug-In . SVG Version: 6.00 Build 0)  -->
<svg version="1.1" id="Layer_1" xmlns="http://www.w3.org/2000/svg" xmlns:xlink="http://www.w3.org/1999/xlink" x="0px" y="0px"
	 viewBox="0 0 1350 304.606" style="enable-background:new 0 0 1350 304.606;" xml:space="preserve">
<style type="text/css">
	.st0{fill:#FFFFFF;}
</style>
<g>
	<g>
		<path class="st0" d="M310.384,257.744c-17.132,13.77-38.472,22.883-57.429,24.971c-10.469,1.153-22.291-0.758-27.904-6.803
			c-5.361-5.773-4.255-14.308-3.178-20.878C228.556,214.265,328.34,2.01,328.34,2.01L327.567,0
			c-23.335,20.251-65.559,28.347-65.559,28.347l0.096,2.13c7.577-0.603,13.592-0.568,14.534,3.017
			c0.928,3.617-3.924,14.06-7.604,23.169c0,0-41.838,92.109-54.498,120.903c-23.219,52.814-32.832,79.291-30.258,96.382
			c1.475,9.793,4.946,18.968,12.399,24.55c15.377,11.517,43.316,5.921,66.646-5.461c15.89-7.753,31.839-18.767,47.815-33.044
			C311.137,259.993,310.384,257.743,310.384,257.744z"/>
		<path class="st0" d="M397.659,304.606c-25.702,0-42.906-9.924-51.609-29.78c-8.705-19.854-6.767-45.35,5.814-76.49
			c12.527-31.004,31.101-56.365,55.727-76.083c24.623-19.718,49.855-29.579,75.694-29.579c25.702,0,42.896,9.861,51.588,29.579
			c8.69,19.718,6.774,45.079-5.752,76.083c-12.581,31.14-31.245,56.637-55.992,76.49
			C448.38,294.683,423.224,304.606,397.659,304.606z M402.467,301.95c15.636,0,32.224-13.797,46.268-29.37
			c14.041-15.57,28.949-40.804,41.641-72.219c13.24-32.771,18.408-60.467,17.099-76.242c-1.311-15.775-9.852-29.098-25.626-29.098
			c-15.639,0-34.44,15.401-48.604,31.109c-14.167,15.706-28.983,37.342-41.674,68.754c-13.132,32.503-16.57,59.274-15.19,75.046
			C377.757,285.708,386.691,301.95,402.467,301.95z"/>
		<path class="st0" d="M180.074,118.792c-0.678-9.464-4.393-16.215-13.114-20.672c-5.491-2.777-13.147-4.651-20.866-5.233
			c-1.744-0.161-3.521-0.226-5.265-0.226c-26.777,0-48.451,10.271-73.613,30.815c-25.162,20.543-44.349,47.191-57.592,79.944
			c-12.371,30.621-11.682,54.718-4.317,73.13c7.397,18.411,26.94,28.068,56.353,28.068c13.211,0,27.747-3.876,43.671-11.628
			c4.55-2.215,9.101-4.728,13.653-7.476c20.602-12.131,34.185-25.568,34.185-25.568l-0.749-2.253
			c-33.757,27.18-60.897,27.908-73.268,26.362c-19.468-2.434-33.937-16.449-38.2-33.762c-4.296-17.345-4.225-41.482,7.532-70.585
			c10.498-25.97,24.688-47.034,38.222-61.02c13.534-14.019,31.663-22.405,43.854-23.083c3.621-0.201,15.892,0,20.653,7.309
			c6.162,9.459-10.286,18.785-12.773,26.958c-2.293,7.429-2.293,23.321,16.086,23.289c2.003,0,3.877-0.259,5.621-0.711
			C174.324,148.832,181.011,131.842,180.074,118.792z"/>
	</g>
	<g>
		<path class="st0" d="M849.095,303.71c-62.47,0-100.016-28.83-106.115-81.286h34.643c4.749,35.543,28.161,52.837,71.473,52.837
			c24.867,0,57.927-3.122,57.927-30.116c0-15.458-9.091-23.45-31.38-27.59l-68.615-12.363
			c-38.543-7.036-58.236-25.002-58.523-53.398c0-36.091,34.519-58.532,90.085-58.532c58.067,0,94.078,27.769,99.351,76.344h-34.383
			c-4.5-31.784-26.342-47.895-64.968-47.895c-36.848,0-55.713,10.009-56.072,29.749l0.003,0.212
			c0.808,16.996,12.886,22.643,30.771,25.894l68.914,12.361c39.031,7.153,58.828,25.523,58.828,54.599
			C941.034,282.139,907.523,303.71,849.095,303.71z"/>
		<polygon class="st0" points="965.433,298.768 965.433,98.203 1128.298,98.203 1128.298,126.346 999.136,126.346 999.136,181.324 
			1125.208,181.324 1125.208,209.467 999.136,209.467 999.136,270.625 1129.534,270.625 1129.534,298.768 		"/>
		<path class="st0" d="M1315.888,298.768l-10.938-58.237c-4.515-23.621-13.337-30.448-39.331-30.448h-73.068v88.685h-33.703V98.203
			h127.783c39.183,0,61.656,18.644,61.656,51.151c0,29.954-23.281,43.331-36.503,46.856c-0.812,0.216-1.36,0.969-1.344,1.809l0,0
			c0.015,0.779,0.529,1.454,1.266,1.709c14.292,4.932,20.555,15.005,24.597,34.637L1350,298.768H1315.888z M1192.551,182.253h89.445
			c21.812,0,31.971-8.883,31.971-27.953s-9.57-27.953-30.116-27.953h-91.299V182.253z"/>
	</g>
	<rect x="622.441" y="172.448" class="st0" width="39.719" height="39.719"/>
</g>
</svg>
