<svg xmlns="http://www.w3.org/2000/svg" viewBox="0 0 369 108.14"><defs><style>.cls-1{isolation:isolate;}.cls-2{fill:#ece8e5;}</style></defs><g id="Layer_2" data-name="Layer 2"><g id="Layer_1-2" data-name="Layer 1"><g class="cls-1"><path class="cls-2" d="M122.82,52.42V15.31H138.9a25.42,25.42,0,0,1,10.68,2,13.91,13.91,0,0,1,6.55,6.1,21.6,21.6,0,0,1,2.24,10.47,21.63,21.63,0,0,1-2.24,10.43,13.83,13.83,0,0,1-6.55,6.13,25.42,25.42,0,0,1-10.68,2Zm11.93-8.9h3.93a9.59,9.59,0,0,0,3.38-.54,5.88,5.88,0,0,0,2.34-1.56,6.38,6.38,0,0,0,1.35-2.54,12.25,12.25,0,0,0,.43-3.4V32.25a12.3,12.3,0,0,0-.43-3.4,6.45,6.45,0,0,0-1.35-2.54,5.88,5.88,0,0,0-2.34-1.56,9.59,9.59,0,0,0-3.38-.54h-3.93Z"/></g><g class="cls-1"><path class="cls-2" d="M157.72,52.42l13.54-37.11h13.87l13.54,37.11H186l-1.56-5.23h-13l-1.57,5.23ZM174,38.88h8.09L180.27,33c-.14-.43-.31-1-.48-1.57s-.36-1.26-.54-1.94l-.54-2c-.18-.67-.35-1.25-.49-1.75h-.43c-.14.64-.33,1.38-.57,2.21s-.47,1.68-.73,2.56-.5,1.72-.75,2.51Z"/></g><g class="cls-1"><path class="cls-2" d="M202.39,52.42V15.31h10.14l16,19-.05-19h10.84V52.42H229.26L213.18,33.63l0,18.79Z"/></g><g class="cls-1"><path class="cls-2" d="M243.13,52.42l13.54-37.11h13.87l13.54,37.11H271.45l-1.56-5.23h-13l-1.57,5.23Zm16.24-13.54h8.09L265.68,33c-.14-.43-.3-1-.48-1.57s-.36-1.26-.54-1.94l-.54-2c-.18-.67-.35-1.25-.49-1.75h-.43c-.14.64-.33,1.38-.57,2.21s-.47,1.68-.72,2.56-.51,1.72-.76,2.51Z"/></g><g class="cls-1"><path class="cls-2" d="M287.8,52.42V15.31h32.1v8.9H299.72v5.12H317v8.53H299.72v5.66h20.56v8.9Z"/></g><path class="cls-2" d="M122.82,97.13V60h30v8.9H134.75v6.36h15.53v8.53H134.75V97.13Z"/><path class="cls-2" d="M157.72,97.13V60h11.92V97.13Z"/><g class="cls-1"><path class="cls-2" d="M192.3,97.78a42.29,42.29,0,0,1-7.15-.57,18.21,18.21,0,0,1-5.82-1.94,10,10,0,0,1-3.94-3.83A12.15,12.15,0,0,1,174,85.26V85a2.08,2.08,0,0,1,0-.41h11.28a1.56,1.56,0,0,0-.06.41v.35A3.63,3.63,0,0,0,186,87.8,3.76,3.76,0,0,0,188.12,89a14.62,14.62,0,0,0,3.1.3l1.38,0a9.08,9.08,0,0,0,1.4-.16,5.31,5.31,0,0,0,1.24-.41,2.16,2.16,0,0,0,.89-.73,1.91,1.91,0,0,0,.32-1.15,1.82,1.82,0,0,0-.91-1.62,9,9,0,0,0-2.48-1q-1.58-.43-3.51-.81c-1.3-.25-2.64-.55-4.05-.89a26.89,26.89,0,0,1-4-1.32A14,14,0,0,1,178,79a9,9,0,0,1-2.48-3.18,11.94,11.94,0,0,1,.43-10.11,10.41,10.41,0,0,1,3.7-3.67,17.31,17.31,0,0,1,5.34-2,29.71,29.71,0,0,1,6.28-.65,28.68,28.68,0,0,1,6.29.67,17.16,17.16,0,0,1,5.2,2.08,10.54,10.54,0,0,1,3.56,3.56,10,10,0,0,1,1.35,5.13v.64H196.45v-.21A3.74,3.74,0,0,0,196,69.4a3.58,3.58,0,0,0-1.54-1.4,6.11,6.11,0,0,0-2.78-.54,9.63,9.63,0,0,0-2.72.33,3.58,3.58,0,0,0-1.65.89,1.72,1.72,0,0,0-.54,1.21,2,2,0,0,0,.92,1.67,8.11,8.11,0,0,0,2.48,1.08c1.05.29,2.21.56,3.51.81s2.64.53,4,.84a26.61,26.61,0,0,1,4,1.21,13.82,13.82,0,0,1,3.51,2,9,9,0,0,1,2.48,3,9.51,9.51,0,0,1,.92,4.37,11.34,11.34,0,0,1-8,11.63A24.83,24.83,0,0,1,192.3,97.78Z"/></g><path class="cls-2" d="M230.94,97.78a23.41,23.41,0,0,1-10.6-2.16,14.3,14.3,0,0,1-6.47-6.44,23.17,23.17,0,0,1-2.19-10.6q0-9.49,4.88-14.35t14.38-4.86a22.63,22.63,0,0,1,9.41,1.81,13.82,13.82,0,0,1,6.24,5.36,16.32,16.32,0,0,1,2.21,8.74H237.42a8.54,8.54,0,0,0-.76-3.72,5.61,5.61,0,0,0-2.19-2.43,6.85,6.85,0,0,0-3.58-.86,7,7,0,0,0-4.08,1.08,6.1,6.1,0,0,0-2.23,3,13.12,13.12,0,0,0-.71,4.48V80.3a12.87,12.87,0,0,0,.73,4.48,6.36,6.36,0,0,0,2.24,3,6.63,6.63,0,0,0,3.94,1.08,8.34,8.34,0,0,0,3.91-.81A5.27,5.27,0,0,0,237,85.72a7.94,7.94,0,0,0,.78-3.64h11a16.34,16.34,0,0,1-2.11,8.58A13.21,13.21,0,0,1,240.6,96,23.23,23.23,0,0,1,230.94,97.78Z"/><path class="cls-2" d="M253.23,97.13V60h11.93V73.56h13.1V60h11.93V97.13H278.26V83.05h-13.1V97.13Z"/><g class="cls-1"><path class="cls-2" d="M295.2,97.13V60h32.1v8.9H307.12V74h17.27v8.53H307.12v5.66h20.56v8.9Z"/></g><g class="cls-1"><path class="cls-2" d="M332.16,97.13V60h23.25a13.27,13.27,0,0,1,6.93,1.67,11,11,0,0,1,4.18,4.37,12.51,12.51,0,0,1,1.4,5.83,12.07,12.07,0,0,1-1.67,6.33,12.55,12.55,0,0,1-4.53,4.45L369,97.13H355.62L350,84.67h-5.88V97.13Zm11.92-20.71h8.36a3,3,0,0,0,2.37-1.11,4.29,4.29,0,0,0,1-2.94,4.35,4.35,0,0,0-.43-2A3.54,3.54,0,0,0,354.17,69a3,3,0,0,0-1.73-.51h-8.36Z"/></g><path class="cls-2" d="M30.21,102.5C23,99.68,19.27,90.27,19.91,82.33a43.53,43.53,0,0,1,1.86-8.89c.83-2.8,1.8-5.58,1.71-8.54-.15-5-3.79-8.43-8.66-9.1a13.39,13.39,0,0,0-8.09,1.38C.72,60.43-.8,68.6.36,74.81c3.83,20.52,24.81,32.73,44.47,33.31A53.74,53.74,0,0,0,92.15,81.91a54.6,54.6,0,0,0,7.62-27.83C99.77,24.21,75.82,0,46.27,0a52.09,52.09,0,0,0-7.11.48A34.17,34.17,0,0,0,18,10.49,32.79,32.79,0,0,0,8.89,31.27a13.27,13.27,0,0,0,1.27,6.84,12.09,12.09,0,0,0,9.55,6.24c6.17.48,11-3.63,12.16-9.55.57-2.85.08-5.95,1-8.71,1.36-4,5.87-9.08,10.61-7a5.6,5.6,0,0,1,2.69,2.72c3.41,7-1.67,15.35-6.62,20-3.55,3.37-8.71,5.37-11,10-1.2,2.42-1.23,5.6.56,7.62,3,3.34,8.48,3.37,11.85,1.26,3.06-1.91,6.14-6.53,7.64-9.82a45.46,45.46,0,0,0,4.1-15.38c.47-5.47-.14-15.4-8.1-18.27a10.43,10.43,0,0,0-7.33.47c-5,2-7.22,7.35-11.17,10.67-1.83,1.53-4.16,2.77-6.61,2.34-4.25-.75-6-5.5-4.85-9.32A27.12,27.12,0,0,1,27.25,6.66,30.82,30.82,0,0,1,39.5,2.94c1.14-.11,2.29-.16,3.46-.16,23.07,0,41.9,24,41.9,51s-20.22,53-43.24,51.39A40.68,40.68,0,0,1,30.21,102.5Z"/></g></g></svg>