<?xml version="1.0" encoding="utf-8"?>
<!-- Generator: Adobe Illustrator 25.2.0, SVG Export Plug-In . SVG Version: 6.00 Build 0)  -->
<svg version="1.1" id="Layer_1" xmlns="http://www.w3.org/2000/svg" xmlns:xlink="http://www.w3.org/1999/xlink" x="0px" y="0px"
	 viewBox="0 0 454.6 88.8" style="enable-background:new 0 0 454.6 88.8;" xml:space="preserve">
<style type="text/css">
	.st0{fill:#FFFFFF;}
</style>
<g>
	<g>
		<path class="st0" d="M94.4,63.5c-1.3,1.4-2.6,2.4-4,3.2c-1.4,0.7-2.7,1.1-3.9,1.1c-1.3,0-2.4-0.4-3.1-1.2c-0.7-0.8-1.2-2-1.4-3.7
			c-2,1.6-3.9,2.8-5.6,3.6s-3.2,1.2-4.5,1.2c-2,0-3.7-0.7-5.1-2.2c-1.3-1.4-2-3.2-2-5.4c0-1.7,0.5-3.3,1.4-4.8s2.3-2.8,4-3.9
			c1.1-0.7,3-1.7,5.7-2.8s4.7-2,6-2.6v-3.9c0-1.9-0.3-3.3-0.8-4.1s-1.4-1.2-2.7-1.2c-1,0-1.7,0.3-2.2,0.8s-0.9,1.6-1.2,3.1
			c-0.5,2.2-1,3.7-1.7,4.5c-0.6,0.7-1.5,1.1-2.6,1.1s-2-0.4-2.8-1.1c-0.8-0.8-1.2-1.7-1.2-2.8c0-2.1,1.2-3.9,3.5-5.5
			s5.1-2.3,8.3-2.3c3.9,0,6.7,0.7,8.5,2.2s2.7,3.8,2.7,7.1V59c0,1.4,0.1,2.4,0.4,3s0.7,0.9,1.3,0.9c0.3,0,0.6,0,0.9-0.1
			s0.5-0.2,0.8-0.4L94.4,63.5z M82,48.5c-3.3,1.5-5.6,3-7,4.4c-1.4,1.5-2.1,3.1-2.1,4.9c0,1.4,0.4,2.5,1.2,3.3
			c0.8,0.8,1.8,1.2,3.1,1.2c0.8,0,1.7-0.2,2.5-0.6c0.8-0.4,1.6-0.9,2.3-1.7V48.5z"/>
		<path class="st0" d="M96.7,66.9v-1.2c0.8-0.1,1.3-0.5,1.6-1.1c0.3-0.6,0.4-2.1,0.4-4.4V38.5h-4.9v-3.2h4.8
			c-0.4-1.5-0.7-2.8-0.9-3.9c-0.2-1.1-0.3-2.2-0.3-3.1c0-2.3,0.7-4.1,2-5.4c1.4-1.3,3.2-2,5.6-2c1.9,0,3.6,0.6,5.1,1.7
			c1.4,1.1,2.1,2.5,2.1,4c0,0.7-0.3,1.4-0.9,2s-1.3,0.9-2,0.9c-0.8,0-1.6-0.3-2.1-0.9c-0.6-0.6-1.1-1.6-1.7-3.1v-0.1
			c-0.5-1.3-1-2-1.6-2c-0.4,0-0.8,0.1-1.1,0.4c-0.3,0.3-0.4,0.7-0.4,1.1c0,0.7,1.3,3.6,3.8,8.9l0.7,1.4h6v3.2H107v22.3
			c0,2,0.1,3.3,0.4,3.9s0.8,0.9,1.6,1v1.2H96.7V66.9z"/>
		<path class="st0" d="M142.8,63.5c-1.3,1.4-2.6,2.4-4,3.2c-1.4,0.7-2.7,1.1-3.9,1.1c-1.3,0-2.4-0.4-3.1-1.2c-0.7-0.8-1.2-2-1.4-3.7
			c-2,1.6-3.9,2.8-5.6,3.6s-3.2,1.2-4.5,1.2c-2,0-3.7-0.7-5.1-2.2c-1.3-1.4-2-3.2-2-5.4c0-1.7,0.5-3.3,1.4-4.8s2.3-2.8,4-3.9
			c1.1-0.7,3-1.7,5.7-2.8s4.7-2,6-2.6v-3.9c0-1.9-0.3-3.3-0.8-4.1s-1.4-1.2-2.7-1.2c-1,0-1.7,0.3-2.2,0.8s-0.9,1.6-1.2,3.1
			c-0.5,2.2-1,3.7-1.7,4.5c-0.6,0.7-1.5,1.1-2.6,1.1s-2-0.4-2.8-1.1c-0.8-0.8-1.2-1.7-1.2-2.8c0-2.1,1.2-3.9,3.5-5.5
			s5.1-2.3,8.3-2.3c3.9,0,6.7,0.7,8.5,2.2c1.8,1.5,2.7,3.8,2.7,7.1V59c0,1.4,0.1,2.4,0.4,3c0.3,0.6,0.7,0.9,1.3,0.9
			c0.3,0,0.6,0,0.9-0.1c0.3-0.1,0.5-0.2,0.8-0.4L142.8,63.5z M130.4,48.5c-3.3,1.5-5.6,3-7,4.4c-1.4,1.5-2.1,3.1-2.1,4.9
			c0,1.4,0.4,2.5,1.2,3.3s1.8,1.2,3.1,1.2c0.8,0,1.7-0.2,2.5-0.6c0.8-0.4,1.6-0.9,2.3-1.7V48.5z"/>
		<path class="st0" d="M219.6,33.4v27.4c0,2,0.1,3.3,0.4,3.9c0.3,0.6,0.8,0.9,1.5,1v1.2h-12.2v-1.2c0.8-0.1,1.3-0.5,1.6-1.1
			s0.4-2.1,0.4-4.4V45.9c0-2.2-0.2-3.6-0.6-4.4c-0.4-0.7-1-1.3-2-1.5v-1.2c1.9-0.4,3.6-1.1,5.1-2s2.8-2,3.9-3.4
			C217.7,33.4,219.6,33.4,219.6,33.4z M215.5,30.7c-1.3,0-2.4-0.5-3.4-1.5s-1.4-2.1-1.4-3.4s0.5-2.5,1.4-3.4s2.1-1.4,3.4-1.4
			c1.4,0,2.5,0.5,3.4,1.4s1.4,2.1,1.4,3.4s-0.5,2.5-1.4,3.4C218,30.2,216.8,30.7,215.5,30.7z"/>
		<path class="st0" d="M225.2,66.9v-1.2c0.7-0.1,1.3-0.5,1.5-1c0.3-0.6,0.4-1.9,0.4-3.9v-0.5V33.4c0-2.2-0.2-3.7-0.5-4.4
			c-0.4-0.7-1-1.2-2-1.5v-1.3c1.9-0.4,3.5-1,5-1.9s2.8-2,3.8-3.4h2v39.8c0,2,0.1,3.3,0.4,3.9c0.3,0.6,0.8,0.9,1.5,1v1.2L225.2,66.9
			L225.2,66.9z"/>
		<path class="st0" d="M300.1,40.1H296V38c2-1.2,3.8-2.9,5.4-5.3c1.7-2.4,3.2-5.4,4.6-9.1h2.3V37h6.7v3.1h-6.7v19.1
			c0,1.4,0.2,2.3,0.5,2.9c0.4,0.6,0.9,0.9,1.7,0.9c0.4,0,0.9-0.1,1.3-0.4c0.5-0.3,1-0.7,1.5-1.3l1.3,1c-1,1.8-2.2,3.1-3.6,4.1
			c-1.4,0.9-2.8,1.4-4.4,1.4c-2.3,0-3.9-0.6-5.1-1.8c-1.1-1.2-1.7-3.1-1.7-5.5V40.1H300.1z"/>
		<path class="st0" d="M336.2,66.9V62c-2.2,1.9-4.3,3.4-6.1,4.3c-1.8,1-3.4,1.4-4.8,1.4c-1.8,0-3.1-0.5-4-1.4S320,63.9,320,62V45.9
			c0-2.2-0.2-3.6-0.6-4.4c-0.4-0.7-1.1-1.3-2-1.5v-1.2c1.8-0.4,3.5-1.1,5-2s2.8-2,3.9-3.4h1.5v24.4c0,1.4,0.2,2.4,0.7,3.1
			c0.5,0.7,1.2,1,2.2,1c0.9,0,1.9-0.2,2.8-0.6c0.9-0.4,1.8-0.9,2.6-1.7V45.9c0-2.2-0.2-3.7-0.6-4.5c-0.4-0.7-1-1.2-2-1.5v-1.2
			c1.8-0.4,3.5-1.1,5-2s2.8-2,3.9-3.4h1.5v27.4c0,2,0.1,3.3,0.4,3.9c0.3,0.6,0.8,0.9,1.5,1v1.2h-9.6V66.9z"/>
		<path class="st0" d="M368,66.9v-4.1c-1.8,1.7-3.4,3-4.8,3.8s-2.8,1.2-4.1,1.2c-3,0-5.4-1.3-7.2-4c-1.8-2.7-2.7-6.3-2.7-10.9
			c0-5.2,1.2-9.6,3.5-13.1s5.2-5.2,8.5-5.2c1.3,0,2.4,0.3,3.5,0.8s2.1,1.3,3.2,2.4v-4.2c0-2.2-0.2-3.6-0.6-4.3c-0.4-0.7-1-1.2-2-1.5
			v-1.3c1.9-0.4,3.6-1,5.1-1.9s2.8-2,3.8-3.4h1.5V61c0,2,0.1,3.3,0.4,3.9s0.8,0.9,1.6,1v1.2H368V66.9z M368,60V46.1
			c0-2.9-0.5-5.1-1.5-6.7c-1-1.6-2.4-2.4-4.3-2.4c-1.7,0-2.9,1-3.7,3c-0.8,2-1.2,5.1-1.2,9.3c0,4.1,0.6,7.3,1.7,9.5s2.7,3.3,4.8,3.3
			c0.8,0,1.6-0.2,2.3-0.6C366.8,61.3,367.4,60.7,368,60z"/>
		<path class="st0" d="M391.5,33.4v27.4c0,2,0.1,3.3,0.4,3.9s0.8,0.9,1.5,1v1.2h-12.2v-1.2c0.8-0.1,1.3-0.5,1.6-1.1
			c0.3-0.6,0.4-2.1,0.4-4.4V45.9c0-2.2-0.2-3.6-0.6-4.4c-0.4-0.7-1-1.3-2-1.5v-1.2c1.9-0.4,3.6-1.1,5.1-2s2.8-2,3.9-3.4
			C389.6,33.4,391.5,33.4,391.5,33.4z M387.3,30.7c-1.3,0-2.4-0.5-3.4-1.5s-1.4-2.1-1.4-3.4s0.5-2.5,1.4-3.4s2.1-1.4,3.4-1.4
			c1.4,0,2.5,0.5,3.4,1.4s1.4,2.1,1.4,3.4s-0.5,2.5-1.4,3.4C389.8,30.2,388.7,30.7,387.3,30.7z"/>
		<path class="st0" d="M396.4,51c0-4.6,1.4-8.5,4.3-11.7s6.3-4.8,10.4-4.8c4,0,7.3,1.6,10,4.7c2.6,3.1,4,7.1,4,12
			c0,2.4-0.5,4.7-1.4,6.9s-2.2,4.1-3.9,5.8c-1.3,1.3-2.8,2.3-4.3,2.9c-1.5,0.7-3.2,1-4.9,1c-1.7,0-3.3-0.3-4.8-1s-2.9-1.6-4.2-2.9
			c-1.7-1.7-3-3.7-3.9-5.9C396.9,55.8,396.4,53.4,396.4,51z M410.7,36.8c-1.9,0-3.3,1-4.1,3c-0.8,2-1.2,5.8-1.2,11.3
			s0.4,9.3,1.2,11.3c0.8,2,2.2,3,4.1,3c2,0,3.4-1,4.2-3c0.8-2,1.2-5.8,1.2-11.4s-0.4-9.4-1.2-11.4C414.1,37.8,412.7,36.8,410.7,36.8
			z"/>
		<path class="st0" d="M260.5,61.1l3.4-9l1.5,0.6c0.8,3.8,2.4,6.9,4.7,9.1c2.3,2.2,4.9,3.4,7.9,3.4c2.1,0,3.9-0.7,5.2-2
			c1.3-1.4,2-3.2,2-5.4c0-1.6-0.5-3-1.5-4.2c-1-1.1-3.4-2.7-7.2-4.5c-0.5-0.3-1.2-0.6-2.2-1.1c-4.9-2.4-8-4.4-9.3-5.8
			c-0.9-1-1.6-2.1-2.1-3.4c-0.5-1.3-0.7-2.7-0.7-4.2c0-4,1.4-7.3,4.1-9.8c2.8-2.5,6.4-3.8,10.9-3.8c2.3,0,4.6,0.4,7,1.3
			s4.7,2.1,7.1,3.8l-3.2,8.2l-1.3-0.5c-0.5-3.1-1.7-5.5-3.4-7.4c-1.7-1.8-3.8-2.7-6.2-2.7c-2,0-3.6,0.6-4.8,1.7
			c-1.2,1.1-1.9,2.5-1.9,4.2c0,1.7,0.6,3.1,1.7,4.3s3.3,2.5,6.6,4c0.3,0.1,0.7,0.3,1.2,0.6c5.4,2.5,9,4.6,10.6,6.4
			c1.2,1.2,2.1,2.6,2.8,4c0.6,1.4,0.9,3,0.9,4.5c0,4.3-1.6,7.7-4.7,10.4c-3.1,2.7-7.2,4-12.2,4c-3.1,0-6.1-0.6-9-1.7
			C265.8,65,263.1,63.3,260.5,61.1z"/>
		<path class="st0" d="M24.8,66.9v-1.2c1.1-0.3,1.8-0.7,2.2-1.4c0.4-0.7,0.6-1.7,0.6-3.1V27.6c0-1.4-0.2-2.5-0.6-3.1
			c-0.4-0.7-1.2-1.1-2.2-1.4V22l12-0.6c1.3-0.1,2.6-0.1,3.7-0.2c1.1,0,2-0.1,2.6-0.1c6.1,0,11,1.2,14.7,3.7c3.6,2.5,5.5,5.7,5.5,9.8
			c0,2.8-1,5.3-2.9,7.4c-1.9,2.1-4.7,3.7-8.4,4.9c1.5,5.1,3.3,9.4,5.3,13c2,3.5,4.1,6.2,6.4,8v1c-4.8-0.2-9.1-2.1-12.9-5.8
			c-3.8-3.7-6.8-8.8-9.1-15.4c-0.8,0-1.4,0.1-1.8,0.1c-0.4,0-0.8,0-1.1,0h-1.1v13.5c0,1.5,0.2,2.5,0.6,3.2c0.4,0.6,1.1,1.1,2.2,1.4
			v1.2H24.8V66.9z M37.6,44.3h1.5c4.8,0,8.2-0.8,10.3-2.3s3.1-4,3.1-7.5c0-3.3-0.8-5.8-2.4-7.5c-1.6-1.7-3.9-2.6-7-2.6
			c-2.2,0-3.6,0.3-4.4,0.9c-0.8,0.6-1.1,1.7-1.1,3.4C37.6,28.7,37.6,44.3,37.6,44.3z"/>
		<path class="st0" d="M204.6,40.6v1.1c-0.8,0.3-1.4,0.7-1.7,1.3s-0.5,1.5-0.5,2.8v12.8c0,1.3,0.2,2.3,0.5,3
			c0.4,0.7,0.9,1.2,1.8,1.5v1.2c-3.6,1.1-6.9,2-9.9,2.6c-2.9,0.6-5.5,0.9-7.8,0.9c-7.1,0-12.7-2.1-16.9-6.2
			c-4.2-4.2-6.3-9.7-6.3-16.7c0-3.1,0.5-6.2,1.5-9.1c1-2.9,2.4-5.4,4.1-7.5c2-2.4,4.3-4.2,7.1-5.5c2.7-1.3,5.7-1.9,8.9-1.9
			c3,0,5.9,0.5,8.6,1.4c2.7,0.9,5.5,2.4,8.3,4.3l-3.5,9.4l-1.4-0.4c-1.2-3.8-2.9-6.7-5.1-8.8c-2.2-2.1-4.6-3.2-7.3-3.2
			c-3.4,0-5.9,1.4-7.4,4.2c-1.6,2.8-2.4,7.3-2.4,13.4c0,9,0.8,15.2,2.3,18.6c1.5,3.4,4.2,5.1,8,5.1c2.5,0,4.3-0.6,5.4-1.7
			c1-1.1,1.5-3.2,1.5-6.3v-9.5c0-1.8-0.2-3.2-0.6-4.1c-0.4-1-1.1-1.5-1.9-1.6v-1.1C189.9,40.6,204.6,40.6,204.6,40.6z"/>
	</g>
</g>
</svg>
