<?xml version="1.0" encoding="utf-8"?>
<!-- Generator: Adobe Illustrator 25.2.0, SVG Export Plug-In . SVG Version: 6.00 Build 0)  -->
<svg version="1.1" id="Layer_1" xmlns="http://www.w3.org/2000/svg" xmlns:xlink="http://www.w3.org/1999/xlink" x="0px" y="0px"
	 viewBox="0 0 2257.142 538.216" style="enable-background:new 0 0 2257.142 538.216;" xml:space="preserve">
<style type="text/css">
	.st0{fill:#F9F7F2;}
</style>
<path class="st0" d="M94.723,274.569c57.249,0.531,96.111,9.383,95.142-64.25c2.336-65.978-42.216-66.648-95.142-64.28V274.569z
	 M94.723,135.62c44.575,0.742,90.311,6.79,88.47-62.173c0.002-67.184-36.717-55.497-88.47-56.738V135.62z M0,284.994v-10.425h41.321
	V16.709H0V6.263c64.786,8.757,235.278-33.238,239.939,67.18c-0.003,42.569-43.815,60.929-79.706,66.338v0.849
	c90.371,0.097,129.209,106.54,34.626,137.695C138.109,292.897,57.57,281.804,0,284.994 M459.272,73.859l39.23,116.422h-81.351
	L459.272,73.859z M473.885,0L374.16,274.564h-33.793v10.425h88.879v-10.425h-42.564l25.867-73.858h90.141l25.452,73.858h-43.397
	v10.425h132.276v-10.425h-33.386L488.063,0H473.885z M727.799,287.498h-7.086v-83.035h12.102
	c8.748,39.658,32.537,76.364,76.777,76.364c32.931,0,62.15-24.19,62.15-58.418c0-38.817-34.607-46.302-65.917-57.156
	c-8.355-2.925-16.683-5.843-25.038-8.355c-38.796-11.688-58.004-40.886-58.004-80.531c-2.18-71.798,87.451-98.911,136.879-55.499
	l15.833-16.697h7.521v78.875h-13.365C867.76,9.46,758.036-24.188,745.739,58.008c-1.399,41.834,46.386,38.615,73.864,50.485
	c148.15,35.062,56.768,253.238-72.182,161.473L727.799,287.498z M1058.531,287.498h-7.086v-83.035h12.081
	c8.769,39.658,32.537,76.364,76.756,76.364c32.931,0,62.171-24.19,62.171-58.418c0-38.817-34.649-46.302-65.924-57.156
	c-8.342-2.925-16.697-5.843-25.046-8.355c-38.781-11.688-57.968-40.886-57.968-80.531c-2.17-71.792,87.364-98.911,136.816-55.499
	L1206.2,4.171h7.499v78.875h-13.337c-1.912-73.582-111.627-107.236-123.89-25.037c-1.407,41.831,46.354,38.612,73.801,50.484
	c148.177,35.054,56.787,253.23-72.134,161.473L1058.531,287.498z M1560.811,94.315c0-15.028-2.091-29.22-6.258-41.735
	c-11.414-56.365-114.164-56.19-124.756,0.002c-10.547,26.181-4.928,103.901-6.259,132.689c0.001,16.269,0.829,32.137,4.582,46.729
	c9.972,65.189,118.84,65.179,128.523-0.003C1564.509,202.285,1559.418,125.994,1560.811,94.315 M1362.182,138.54
	c10.777-181.013,249.426-181.332,259.972,0.006C1623.752,339.516,1360.788,339.117,1362.182,138.54 M1739.025,284.994v-10.425h41.3
	V16.709h-41.3V6.263h138.12v10.446h-43.404v257.86c70.029,3.088,126.798,2.786,128.109-83.456h12.95l-4.187,93.881H1739.025z
	 M2090.052,287.498h-7.085v-83.035h12.087c8.762,39.658,32.544,76.364,76.791,76.364c32.959,0,62.15-24.19,62.15-58.418
	c0-38.817-34.642-46.302-65.917-57.156c-8.334-2.925-16.683-5.843-25.038-8.355c-38.795-11.688-57.977-40.886-57.977-80.531
	c-2.188-71.809,87.415-98.907,136.838-55.499l15.868-16.697h7.486v78.875h-13.329c-1.941-73.611-111.656-107.216-123.947-25.037
	c0.005,32.123,22.131,35.455,47.99,42.562c20.844,6.648,34.257,9.384,53.409,17.517c35.042,16.683,47.579,44.24,47.579,81.794
	c4.937,78.528-89.676,119.073-147.297,70.084L2090.052,287.498z M852.58,462.556c-1.732-27.74,7.354-32.03-20.667-18.64
	c-1.547,0.7-3.111,1.285-3.284-1.095c0.065-2.806,31-20.649,37.729-26.295c2.515-2.103,6.04-3.506,5.795,1.251
	c-0.76,12.896-1.459,86.167-0.147,104.916c-0.384,10.228,10.15,8.807,16.585,9.4c1.957,0.278,1.69,3.524-1.243,2.967
	c-26.084-0.433-27.293-0.452-52.938,0.001c-1.712,0-2.498-0.295-2.498-1.389c0-1.095,0.625-1.579,1.257-1.579
	c6.416-0.772,19.117,1.416,18.779-9.4C852.932,511.777,852.479,478.331,852.58,462.556 M1071.014,417.169
	c2.954,0,3.767,0.456,3.767,1.249c-12.617,20.256-38.587,81.595-40.885,103.507c-0.323,2.643-0.001,3.766-0.001,5.786
	c0,3.129-12.684,9.541-19.734,9.541c-9.427-4.893,27.638-75.014,44.934-105.695h-40.564c-9.308-0.291-18.509,1.698-19.86,12.229
	c-0.189,2.754-3.241,2.783-2.828-0.31c0.635-5.703,1.27-28.781,3.921-27.886C1004.198,417.967,1061.427,417.017,1071.014,417.169
	 M1255.346,457.082c0,43.853-38.409,71.41-57.821,80.481c-1.091,0.733-4.042,1.304-4.224-0.919
	c16.041-13.619,42.81-35.064,42.59-75.185c0.001-27.71-11.75-39.911-23.824-39.911c-33.89,3.694-18.118,65.566,12.684,51.051
	c1.74-0.96,2.519-1.738,3.165-1.738c1.557,0.082,1.432,2.285,0.448,3.128c-21.249,18.371-54.456-0.006-52.607-23.025
	C1176.712,399.574,1258.991,403.791,1255.346,457.082 M1408.649,421.546c-30.412-3.453-31.12,111.044,3.74,108.683
	C1443.315,533.413,1443.635,419.563,1408.649,421.546 M1409.414,537.252c-63.573-2.797-51.673-126.803,2.516-122.755
	C1475.976,417.274,1463.055,541.271,1409.414,537.252"/>
</svg>
