<?xml version="1.0" encoding="utf-8"?>
<!-- Generator: Adobe Illustrator 25.0.0, SVG Export Plug-In . SVG Version: 6.00 Build 0)  -->
<svg version="1.1" id="Layer_1" xmlns="http://www.w3.org/2000/svg" xmlns:xlink="http://www.w3.org/1999/xlink" x="0px" y="0px"
	 viewBox="0 0 42.8 42.8" style="enable-background:new 0 0 42.8 42.8;" xml:space="preserve">
<style type="text/css">
	.st0{fill:#00FD8B;}
</style>
<path class="st0" d="M42.7,12.6c-0.2-3.9-1.4-6.8-3.5-9s-5.1-3.3-9-3.5C28.6,0,25.7,0,21.4,0c-4.2,0-7.2,0-8.8,0.1
	c-3.9,0.2-6.9,1.4-9,3.5c-2.2,2.1-3.3,5.1-3.5,9C0,14.2,0,17.2,0,21.4s0,7.2,0.1,8.8c0.2,3.9,1.4,6.9,3.5,9c2.1,2.2,5.1,3.3,9,3.5
	c1.6,0.1,4.5,0.1,8.8,0.1c4.2,0,7.2,0,8.8-0.1c3.9-0.2,6.8-1.4,9-3.5s3.3-5.1,3.5-9c0.1-1.6,0.1-4.5,0.1-8.8S42.7,14.2,42.7,12.6z
	 M6.3,6.3c0.8-0.7,1.6-1.2,2.5-1.6c0.5-0.2,1.2-0.4,2-0.5c0.8-0.2,1.8-0.3,2.9-0.3c1.1-0.1,2-0.1,2.7-0.1h10c0.7,0,1.6,0.1,2.7,0.1
	C30.3,4,31.2,4.1,32,4.2s1.5,0.3,2,0.5c1,0.4,1.8,0.9,2.5,1.6c0.7,0.8,1.2,1.6,1.6,2.5c0.1,0.4,0.3,0.8,0.4,1.4L21.4,21.5L4.3,10.2
	c0.1-0.5,0.3-1,0.4-1.4C5.1,7.8,5.6,7,6.3,6.3z M39,26.4c0,0.7-0.1,1.6-0.1,2.7c-0.1,1.2-0.2,2.1-0.3,2.9s-0.3,1.5-0.5,2
	c-0.4,1-0.9,1.8-1.6,2.5c-0.8,0.7-1.6,1.2-2.5,1.6c-0.5,0.2-1.2,0.4-2,0.5c-0.8,0.2-1.8,0.3-2.9,0.3C28,39,27.1,39,26.4,39h-10
	c-0.7,0-1.5,0-2.7-0.1s-2.1-0.2-2.9-0.3c-0.8-0.1-1.5-0.3-2-0.5c-1-0.4-1.8-0.9-2.5-1.6c-0.7-0.8-1.2-1.6-1.6-2.5
	c-0.2-0.5-0.3-1.2-0.5-2s-0.3-1.8-0.3-2.9c-0.1-1.1-0.1-2-0.1-2.7v-10c0-0.3,0-0.7,0-1.1L20.2,26c0.4,0.2,0.8,0.4,1.2,0.4
	c0.4,0,0.9-0.1,1.2-0.4L39,15.2c0,0.4,0,0.8,0,1.2V26.4z"/>
</svg>
