<?xml version="1.0" encoding="utf-8"?>
<!-- Generator: Adobe Illustrator 25.2.1, SVG Export Plug-In . SVG Version: 6.00 Build 0)  -->
<svg version="1.1" id="Layer_1" xmlns="http://www.w3.org/2000/svg" xmlns:xlink="http://www.w3.org/1999/xlink" x="0px" y="0px"
	 viewBox="0 0 221 221" style="enable-background:new 0 0 221 221;" xml:space="preserve">
<style type="text/css">
	.st0{fill:#1E1E1E;}
	.st1{fill:#FFFFFF;}
</style>
<g>
	<path class="st0" d="M181.33,221H39.67C17.76,221,0,203.24,0,181.33V39.67C0,17.76,17.76,0,39.67,0h141.66
		C203.24,0,221,17.76,221,39.67v141.66C221,203.24,203.24,221,181.33,221z"/>
</g>
<g>
	<polygon class="st1" points="55.97,21.46 53.98,44.96 78.8,122.35 79.86,122.35 87.96,80.8 69.64,21.46 	"/>
	<path class="st1" d="M53.58,50.93l-5.44,71.42h12.48C54.91,105.89,53.31,85.18,53.58,50.93z"/>
	<polygon class="st1" points="112.92,21.46 97.65,21.46 88.76,76.69 94.2,49.61 102.65,122 102.64,122.15 102.69,122.28 
		102.69,122.35 102.71,122.35 127.47,199.54 128.53,199.54 136.63,157.99 123.39,115.12 	"/>
	<path class="st1" d="M102.24,128.12l-5.44,71.42h12.48C103.57,183.08,101.98,162.37,102.24,128.12z"/>
	<polygon class="st1" points="161.58,98.65 146.32,98.65 137.42,153.87 142.86,126.79 151.36,199.54 172.86,199.54 	"/>
</g>
</svg>
