<?xml version="1.0" encoding="utf-8"?>
<!-- Generator: Adobe Illustrator 25.2.0, SVG Export Plug-In . SVG Version: 6.00 Build 0)  -->
<svg version="1.1" id="Layer_1" xmlns="http://www.w3.org/2000/svg" xmlns:xlink="http://www.w3.org/1999/xlink" x="0px" y="0px"
	 viewBox="0 0 115.1 40.2" style="enable-background:new 0 0 115.1 40.2;" xml:space="preserve">
<style type="text/css">
	.st0{fill:#FFFFFF;}
</style>
<g>
	<path class="st0" d="M114.1,0H1C0.5,0,0,0.5,0,1v16.2c0,0.5,0.5,1,1,1h17.7c0.5,0,1,0.4,1,0.9v20.1c0,0.5,0.4,1,0.9,1h18.1
		c0.6,0,1-0.5,1-1V19.1c0-0.5,0.4-0.9,1-0.9h33.8c0.5,0,1,0.4,1,0.9v20.1c0,0.5,0.4,1,0.9,1h18.2c0.5,0,0.9-0.5,0.9-1V19.1
		c0-0.5,0.5-0.9,1-0.9l17.7,0c0.5,0,1-0.5,1-1V1C115.1,0.5,114.6,0,114.1,0z"/>
</g>
</svg>
