<?xml version="1.0" encoding="utf-8"?>
<!-- Generator: Adobe Illustrator 25.2.0, SVG Export Plug-In . SVG Version: 6.00 Build 0)  -->
<svg version="1.1" id="Layer_1" xmlns="http://www.w3.org/2000/svg" xmlns:xlink="http://www.w3.org/1999/xlink" x="0px" y="0px"
	 viewBox="0 0 320.2 101.9" style="enable-background:new 0 0 320.2 101.9;" xml:space="preserve">
<style type="text/css">
	.st0{fill:#232323;}
</style>
<g>
	<path class="st0" d="M28.2,29.3V49h7.8h0V29.8c0.1-3.4,0.9-6.1,2.3-7.8c1.6-2,4.3-3,8.2-3c3.6,0,6.1,0.8,7.6,2.4s2.3,4.2,2.3,7.8
		V49h7.8V27.1c0-2.9-0.5-5.5-1.6-7.8s-2.6-4.1-4.7-5.4c-2.1-1.3-4.7-2-7.9-2c-3,0-5.5,0.6-7.5,1.7c-2,1.1-3.5,2.6-4.6,4.4
		s-1.8,3.8-2.1,5.8h-0.4c-0.2-1.6-0.7-3.1-1.3-4.5c-1-2.3-2.6-4.1-4.6-5.5c-2-1.3-4.7-2-7.8-2c-3,0-5.5,0.6-7.5,1.7
		c-2,1.1-3.4,2.6-4.5,4.3c-1,1.8-1.7,3.7-2,5.7H7.2v-11H0V49h7.9c0,0,0-10.9,0-18c0-4,0.8-7,2.3-9c1.6-2,4.3-3,8.2-3
		c3.5,0,6,0.8,7.5,2.4S28.2,25.7,28.2,29.3z"/>
	<path class="st0" d="M100,39.9h0.5V49h7.2V26.9c0-2.9-0.6-5.5-1.8-7.8c-1.2-2.2-3-4-5.5-5.3c-2.5-1.3-5.6-1.9-9.5-1.9
		c-3.9,0-7.2,0.6-9.9,1.9c-2.8,1.3-4.9,3-6.3,5.2c-1.5,2.2-2.2,4.6-2.2,7.4v0.3h7.8v-0.3c0-2.7,0.8-4.6,2.5-5.8
		c1.6-1.2,4.2-1.8,7.5-1.8c3.5,0,6,0.6,7.4,1.8c1.4,1.2,2.2,3.3,2.2,6.3v2.1l-16.5,1.8c-2.4,0.3-4.5,0.8-6.2,1.5
		c-1.8,0.7-3.1,1.8-4.1,3c-1,1.3-1.4,2.9-1.4,4.8c0,3,1.1,5.3,3.3,7c2.2,1.7,5.2,2.5,9,2.5c4.1,0,7.6-0.9,10.3-2.6
		C97.1,45.4,99,43,100,39.9z M86.1,44c-2.2,0-3.9-0.4-4.9-1.1c-1-0.7-1.6-1.8-1.6-3.2c0-1.4,0.5-2.4,1.5-3s2.5-1,4.6-1.3l14.3-1.6
		v0.2c0,2.3-0.6,4.2-1.8,5.7c-1.2,1.5-2.8,2.6-4.8,3.3C91.3,43.7,88.9,44,86.1,44z"/>
	<path class="st0" d="M138.6,41.9H132c-2.2,0-3.9-0.4-5-1.1c-1.1-0.8-1.6-2.3-1.6-4.5v-17h13.2v-6.6h-13.2v-8h-7.8v8h-6.2v6.6h6.2
		v17.5c0,4.4,1.1,7.5,3.4,9.4c2.3,1.9,5.3,2.8,9.2,2.8h8.3V41.9z"/>
	<path class="st0" d="M154.4,31.4L154.4,31.4c0-2.6,0.4-4.8,1.1-6.6c0.8-1.8,2-3.2,3.7-4.2c1.7-1,4-1.5,6.9-1.5
		c3.8,0,6.5,0.8,8.3,2.4c1.7,1.6,2.6,4.2,2.6,7.9V49h7.8V27.4c0-3-0.5-5.6-1.7-7.9c-1.1-2.3-2.8-4.1-5-5.5c-2.2-1.3-5-2-8.3-2
		c-3.1,0-5.7,0.6-7.8,1.7c-2.1,1.1-3.7,2.6-4.9,4.4c-1.1,1.8-1.9,3.7-2.4,5.8h-0.4V0h-7.9v49h7.9V31.4z"/>
	<path class="st0" d="M227.7,43.5c1.6-2,2.4-4.3,2.4-6.8V36h-7.9v0.6c0,2.2-0.8,3.8-2.5,5s-4.4,1.8-8.2,1.8c-4.4,0-7.5-1-9.4-3
		c-1.7-1.8-2.6-4.4-2.7-7.7h30.8c0.1-0.5,0.2-1.1,0.2-1.6c0-0.6,0.1-1.2,0.1-1.8c0-3.7-0.8-6.8-2.4-9.4c-1.6-2.6-3.8-4.5-6.7-5.9
		c-2.8-1.3-6.2-2-9.9-2c-4,0-7.4,0.8-10.3,2.4c-2.9,1.6-5.2,3.8-6.8,6.6c-1.6,2.8-2.4,6.2-2.4,10c0,4,0.8,7.4,2.4,10.2
		c1.6,2.8,3.9,5,6.9,6.4c3,1.5,6.4,2.2,10.4,2.2c3.6,0,6.8-0.5,9.5-1.7C223.9,47,226.1,45.5,227.7,43.5z M202.1,21.1
		c1.8-2,5-3,9.3-3c3.9,0,6.8,0.8,8.7,2.5c1.9,1.6,2.9,4.1,2.9,7.5c0,0.1,0,0.1,0,0.1h-23.6C199.6,25.2,200.5,22.8,202.1,21.1z"/>
	<path class="st0" d="M269.3,37.7V49h7.2V12.7h-7.9v18.6c-0.1,3.6-1,6.4-2.8,8.3c-1.9,2-4.8,3-8.9,3c-3.9,0-6.6-0.9-8.3-2.6
		c-1.7-1.7-2.5-4.3-2.5-7.6V12.7h-7.8v21.9c0,2.8,0.6,5.4,1.7,7.7c1.1,2.3,2.8,4.1,5,5.5c2.2,1.4,5.1,2,8.5,2c3.2,0,5.8-0.6,8-1.8
		c2.1-1.2,3.8-2.7,5-4.5c1.2-1.8,2-3.7,2.3-5.8H269.3z"/>
	<path class="st0" d="M317.1,32c-2.1-1.6-5.2-2.6-9.5-3.1l-8.4-1.2c-2.7-0.4-4.5-0.9-5.5-1.5c-1-0.6-1.5-1.7-1.5-3.1
		c0-1.7,0.6-3,2-3.7c1.3-0.8,3.7-1.2,7-1.2c2.7,0,4.8,0.3,6.2,0.8s2.5,1.3,3.1,2.2c0.6,1,0.9,2.2,0.9,3.6v0.4h7.8V25
		c0-2.9-0.7-5.3-2.2-7.2c-1.4-1.9-3.5-3.4-6.1-4.4c-2.7-1-5.8-1.5-9.5-1.5c-3.7,0-6.8,0.5-9.4,1.4c-2.5,0.9-4.4,2.2-5.7,3.8
		c-1.3,1.6-1.9,3.5-1.9,5.7c0,3.1,1,5.4,2.9,6.9c2,1.5,4.7,2.5,8.1,3l10,1.3c2.6,0.3,4.5,0.8,5.5,1.5c1,0.6,1.5,1.7,1.5,3.2
		c0,1.6-0.6,2.8-1.9,3.5c-1.3,0.8-3.7,1.1-7.3,1.1c-3.8,0-6.5-0.5-8.1-1.4c-1.6-0.9-2.4-2.5-2.4-4.9v-0.6h-7.9v0.2
		c0,4.2,1.6,7.4,4.8,9.7c3.2,2.2,7.7,3.4,13.6,3.4c3.4,0,6.4-0.4,8.9-1.3c2.5-0.8,4.5-2.1,5.9-3.7c1.4-1.6,2.1-3.6,2.1-5.8
		C320.2,35.9,319.1,33.6,317.1,32z"/>
	<path class="st0" d="M81.5,71.5c-1-2.3-2.6-4.1-4.7-5.4c-2.1-1.3-4.7-2-7.9-2c-3,0-5.5,0.6-7.5,1.7c-2,1.1-3.5,2.6-4.6,4.4
		c-1.1,1.8-1.8,3.8-2.1,5.8h-0.4c-0.2-1.6-0.7-3.1-1.3-4.5c-1-2.3-2.6-4.1-4.6-5.5c-2-1.3-4.7-2-7.8-2c-3,0-5.5,0.6-7.5,1.7
		c-2,1.1-3.4,2.6-4.5,4.3c-1,1.8-1.7,3.7-2,5.7H26v-11h-7.2v36.4h7.9v-18c0-4,0.8-7,2.3-9c1.6-2,4.3-3,8.2-3c3.5,0,6,0.8,7.5,2.4
		s2.3,4.2,2.3,7.8v19.8h7.8h0V82c0.1-3.4,0.9-6.1,2.4-7.8c1.6-2,4.3-3,8.2-3c3.6,0,6.1,0.8,7.6,2.4c1.5,1.6,2.3,4.2,2.3,7.8v19.8H83
		V79.3C83,76.4,82.5,73.8,81.5,71.5z"/>
	<path class="st0" d="M119.2,66.1c-2.5-1.3-5.6-1.9-9.5-1.9c-3.9,0-7.2,0.6-9.9,1.9c-2.8,1.3-4.9,3-6.3,5.2
		c-1.5,2.2-2.2,4.6-2.2,7.4v0.3h7.8v-0.3c0-2.7,0.8-4.6,2.5-5.8c1.7-1.2,4.2-1.8,7.5-1.8c3.5,0,6,0.6,7.4,1.8
		c1.4,1.2,2.2,3.3,2.2,6.3v2.1l-16.5,1.8c-2.4,0.3-4.5,0.8-6.2,1.5c-1.8,0.7-3.1,1.8-4.1,3c-0.9,1.3-1.4,2.9-1.4,4.8
		c0,3,1.1,5.3,3.3,7c2.2,1.7,5.2,2.5,9,2.5c4.1,0,7.6-0.9,10.4-2.6c2.8-1.7,4.6-4.1,5.6-7.2h0.5v9.1h7.2c0,0,0-22.1,0-22.1
		c0-2.9-0.6-5.5-1.8-7.8C123.5,69.1,121.7,67.4,119.2,66.1z M112.2,95.2c-2,0.7-4.5,1.1-7.2,1.1c-2.2,0-3.9-0.3-4.9-1.1
		c-1.1-0.7-1.6-1.8-1.6-3.2c0-1.4,0.5-2.4,1.5-3s2.5-1,4.6-1.3l14.3-1.6v0.1c0,2.3-0.6,4.2-1.8,5.7
		C115.8,93.3,114.2,94.5,112.2,95.2z"/>
	<path class="st0" d="M161.2,65.9c-1.8-1.2-4-1.8-6.8-1.8c-2.5,0-4.6,0.5-6.3,1.4s-3.1,2.2-4.1,3.8c-1,1.6-1.7,3.4-2,5.4h-0.5v-9.8
		h-7.2v36.4h7.9h0V80.8c0-3.2,0.7-5.7,2-7.4c1.4-1.7,3.6-2.6,6.7-2.6c2.7,0,4.7,0.6,5.9,1.8c1.2,1.2,1.8,3.2,1.8,5.8v3.2h7.8v-4.8
		c0-2.3-0.4-4.4-1.2-6.4C164.2,68.6,163,67,161.2,65.9z"/>
	<path class="st0" d="M184.7,56.9h-7.8v8h-6.2v6.6h6.2v17.5c0,4.4,1.1,7.5,3.4,9.4c2.3,1.9,5.3,2.9,9.2,2.9h8.3v-7.1h-6.6
		c-2.2,0-3.9-0.4-5-1.1s-1.6-2.3-1.6-4.5v-17h13.2v-6.6h-13.2V56.9z"/>
	<rect x="205.7" y="71.4" class="st0" width="7.9" height="29.8"/>
	<rect x="205.7" y="56.9" class="st0" width="7.9" height="8"/>
	<path class="st0" d="M257.7,71.7c-1.1-2.3-2.8-4.1-5-5.5c-2.2-1.4-5-2-8.4-2c-3.1,0-5.7,0.6-7.8,1.7c-2.1,1.1-3.8,2.6-5,4.5
		c-1.2,1.8-2,3.8-2.4,5.8h-0.5V64.8h-7.2v36.4h7.9h0V82.9c0.1-3.8,1-6.7,2.8-8.6c1.9-2,4.8-3,8.7-3c3.8,0,6.5,0.9,8.2,2.6
		c1.6,1.7,2.5,4.3,2.5,7.7v19.8h7.9V79.3C259.3,76.5,258.8,74,257.7,71.7z"/>
	<path class="st0" d="M299.8,84.2c-2.1-1.6-5.2-2.6-9.5-3.2l-8.4-1.2c-2.7-0.4-4.5-0.9-5.5-1.5c-1-0.6-1.5-1.7-1.5-3.1
		c0-1.7,0.6-3,2-3.7c1.3-0.8,3.7-1.2,7-1.2c2.7,0,4.8,0.3,6.2,0.8s2.5,1.3,3.1,2.2c0.6,1,0.9,2.2,0.9,3.6v0.4h7.8v-0.2
		c0-2.9-0.7-5.3-2.2-7.2c-1.4-1.9-3.5-3.4-6.1-4.4c-2.7-1-5.8-1.5-9.5-1.5c-3.7,0-6.8,0.5-9.4,1.4c-2.5,0.9-4.4,2.2-5.7,3.8
		c-1.3,1.6-1.9,3.5-1.9,5.7c0,3.1,1,5.4,2.9,6.9c2,1.5,4.7,2.5,8.1,3l10,1.3c2.6,0.3,4.5,0.8,5.5,1.5c1,0.6,1.5,1.7,1.5,3.2
		c0,1.6-0.6,2.8-1.9,3.6c-1.3,0.8-3.7,1.1-7.3,1.1c-3.8,0-6.5-0.5-8.1-1.4c-1.6-0.9-2.4-2.5-2.4-4.9v-0.6h-7.9v0.2
		c0,4.2,1.6,7.4,4.8,9.7c3.2,2.2,7.7,3.4,13.6,3.4c3.4,0,6.4-0.4,8.9-1.3c2.5-0.8,4.5-2.1,5.9-3.7c1.4-1.6,2.1-3.6,2.1-5.8
		C302.9,88.1,301.8,85.8,299.8,84.2z"/>
</g>
</svg>
