<?xml version="1.0" encoding="utf-8"?>
<!-- Generator: Adobe Illustrator 25.2.0, SVG Export Plug-In . SVG Version: 6.00 Build 0)  -->
<svg version="1.1" id="Layer_1" xmlns="http://www.w3.org/2000/svg" xmlns:xlink="http://www.w3.org/1999/xlink" x="0px" y="0px"
	 viewBox="0 0 841.89 328.854" style="enable-background:new 0 0 841.89 328.854;" xml:space="preserve">
<style type="text/css">
	.st0{fill:#333333;}
</style>
<g>
	<circle class="st0" cx="250.165" cy="249.932" r="78.922"/>
	
		<ellipse transform="matrix(0.7071 -0.7071 0.7071 0.7071 67.4858 320.7686)" class="st0" cx="420.945" cy="78.922" rx="78.922" ry="78.922"/>
	<circle class="st0" cx="591.83" cy="249.932" r="78.922"/>
	
		<ellipse transform="matrix(0.7071 -0.7071 0.7071 0.7071 167.6621 562.6155)" class="st0" cx="762.968" cy="78.922" rx="78.922" ry="78.922"/>
	<circle class="st0" cx="78.922" cy="78.922" r="78.922"/>
	<path class="st0" d="M841.727,244.899c-0.027-0.381-0.054-0.761-0.082-1.142c-0.354-4.76-1.142-9.411-2.339-13.898
		c-0.598-2.258-1.278-4.461-2.067-6.637c-1.958-5.413-4.515-10.553-7.561-15.367c-3.073-4.814-6.609-9.275-10.608-13.3
		c-12.756-12.947-29.892-21.542-48.876-23.228c-0.87-0.082-1.741-0.136-2.584-0.163c-0.19-0.027-0.408-0.054-0.598-0.054
		c-0.381-0.027-0.789-0.027-1.17-0.027c-0.245,0-0.49-0.027-0.761-0.027c-3.4-0.163-9.873-0.653-17.571-2.067
		c-0.082,0-0.163,0-0.272-0.027c-9.411-1.469-18.386-4.379-26.601-8.513c-8.051-4.025-15.422-9.194-21.895-15.34
		c-0.082-0.054-0.163-0.136-0.245-0.217c-0.816-0.816-1.659-1.632-2.448-2.448c-0.734-0.734-1.442-1.469-2.122-2.23
		c-0.054-0.027-0.081-0.054-0.081-0.081c-0.245-0.245-0.463-0.49-0.68-0.734c-0.272-0.299-0.544-0.598-0.789-0.898
		c-0.19-0.245-0.408-0.489-0.598-0.734c-4.134-5.086-7.697-10.607-10.635-16.51c-4.134-8.241-7.044-17.19-8.513-26.628
		c-0.027-0.081-0.027-0.163-0.027-0.245c-0.843-4.596-1.414-13.763-1.741-17.19c-0.027,0.027-0.027,0.054-0.027,0.082
		c0-0.789-0.027-1.577-0.082-2.366c-0.027-0.761-0.082-1.523-0.136-2.285c0-0.299-0.027-0.625-0.054-0.925
		c-0.054-0.707-0.163-1.414-0.245-2.121c-0.027-0.054-0.027-0.109-0.027-0.163c-0.081-0.653-0.163-1.279-0.245-1.931
		c-0.027-0.136-0.054-0.245-0.054-0.381c-0.027-0.19-0.054-0.38-0.109-0.571c-0.163-1.006-0.326-2.04-0.517-3.046
		c-0.054-0.217-0.109-0.435-0.163-0.68c0-0.054-0.027-0.109-0.027-0.163c-0.163-0.707-0.299-1.414-0.49-2.094
		c-0.082-0.408-0.19-0.816-0.299-1.224c-0.054-0.272-0.109-0.544-0.19-0.816c-0.082-0.327-0.19-0.653-0.272-0.952
		c-0.163-0.598-0.354-1.224-0.544-1.822c-0.054-0.163-0.082-0.299-0.136-0.435c-0.136-0.408-0.272-0.843-0.408-1.279
		c-0.082-0.244-0.163-0.517-0.245-0.761c-0.054-0.163-0.109-0.326-0.19-0.49c-0.082-0.245-0.163-0.489-0.245-0.707
		c-0.245-0.68-0.49-1.36-0.789-2.013c-0.027-0.136-0.082-0.245-0.136-0.38c-0.245-0.68-0.544-1.36-0.843-2.04
		s-0.599-1.36-0.925-2.04c-0.109-0.272-0.245-0.544-0.381-0.816c-0.49-1.061-1.006-2.094-1.578-3.101
		c0-0.027-0.027-0.054-0.027-0.082c-0.598-1.088-1.197-2.176-1.85-3.237c-0.598-0.979-1.197-1.931-1.849-2.883
		c-0.299-0.49-0.625-0.979-0.979-1.469c-0.408-0.598-0.843-1.197-1.278-1.795c-0.027-0.054-0.082-0.109-0.109-0.163
		c-0.326-0.436-0.653-0.871-0.979-1.279c-0.354-0.462-0.734-0.925-1.115-1.387c-0.245-0.326-0.49-0.653-0.761-0.952
		c-0.272-0.326-0.544-0.625-0.789-0.925c-0.109-0.136-0.218-0.244-0.326-0.38c-0.435-0.49-0.87-0.979-1.306-1.469
		c-0.299-0.326-0.598-0.625-0.897-0.952c-0.088-0.093-0.187-0.174-0.276-0.266c-1.487-1.56-3.031-3.071-4.648-4.494
		c-0.435-0.381-0.87-0.762-1.305-1.142c-0.435-0.353-0.898-0.734-1.333-1.088c-0.653-0.544-1.333-1.088-2.013-1.605
		c-1.36-1.088-2.774-2.067-4.216-2.992c-0.707-0.462-1.441-0.925-2.176-1.387c-0.793-0.478-1.595-0.939-2.399-1.397
		c-0.773-0.441-1.555-0.861-2.344-1.274c-0.441-0.233-0.876-0.478-1.322-0.702c-0.952-0.462-1.904-0.925-2.856-1.36
		c-0.163-0.082-0.299-0.163-0.462-0.217c-0.625-0.327-1.251-0.571-1.877-0.843c-0.109-0.027-0.19-0.054-0.272-0.109
		c-0.952-0.38-1.877-0.734-2.829-1.088c-0.353-0.136-0.68-0.245-1.033-0.354c-0.789-0.272-1.578-0.544-2.366-0.816
		c-1.17-0.354-2.339-0.707-3.509-1.006c-0.218-0.055-0.435-0.109-0.653-0.163c-1.088-0.272-2.203-0.544-3.318-0.761
		c-0.326-0.054-0.625-0.109-0.925-0.19c-1.061-0.191-2.094-0.381-3.155-0.544c-0.326-0.054-0.653-0.082-0.979-0.136
		c-1.061-0.163-2.121-0.272-3.182-0.381l-0.979-0.082c-0.218-0.027-0.435-0.054-0.68-0.081c-0.462-0.054-0.979-0.054-1.469-0.082
		c-0.027,0-0.027,0-0.054,0h-0.245c-0.49-0.027-0.979-0.054-1.496-0.081c-0.027,0-0.054,0.027-0.082,0.027h-0.027
		c-0.027,0-0.027-0.027-0.054-0.027c-0.163-0.027-0.354-0.027-0.517-0.027C593.427,0,592.693,0,591.958,0
		c-0.925,0-1.822,0.027-2.747,0.054c-0.027,0.027-0.082,0.027-0.163,0c-0.517,0.027-1.006,0.054-1.496,0.081h-0.218
		c-0.517,0.027-1.061,0.027-1.55,0.082c-0.245,0.027-0.462,0.054-0.68,0.081l-0.979,0.082c-0.435,0.054-0.87,0.082-1.278,0.136
		c-1.904,0.218-3.781,0.517-5.657,0.871c-0.136,0-0.245,0.027-0.381,0.054c-0.299,0.081-0.598,0.136-0.925,0.19
		c-0.49,0.109-0.979,0.19-1.469,0.326c-0.625,0.136-1.224,0.299-1.85,0.435c-1.523,0.381-3.019,0.816-4.515,1.305
		c-0.68,0.218-1.333,0.436-2.013,0.68c-0.272,0.082-0.517,0.163-0.789,0.272c-0.082,0.027-0.163,0.054-0.245,0.082
		c-0.952,0.353-1.877,0.707-2.829,1.088c-0.054,0.027-0.109,0.054-0.163,0.082c-0.027,0-0.054,0.027-0.109,0.027
		c-1.034,0.435-2.04,0.871-3.046,1.36c-0.87,0.408-1.741,0.843-2.611,1.278c-0.245,0.109-0.462,0.245-0.707,0.354
		c-0.925,0.489-1.849,1.006-2.747,1.523c-2.23,1.251-4.406,2.638-6.5,4.161c-1.387,0.979-2.747,2.013-4.053,3.101
		c-1.333,1.033-2.611,2.148-3.862,3.345c-0.598,0.571-1.224,1.169-1.822,1.768c-0.408,0.394-0.789,0.816-1.184,1.224
		c-0.867,0.888-1.716,1.79-2.539,2.723c-1.066,1.19-2.101,2.398-3.077,3.641c0,0,0,0,0,0.027c-0.816,1.034-1.605,2.067-2.339,3.128
		c-0.109,0.136-0.218,0.299-0.326,0.463c-0.354,0.489-0.68,0.979-0.979,1.469c-0.571,0.843-1.115,1.686-1.632,2.53
		c-2.91,4.787-5.304,9.873-7.153,15.231c-0.136,0.435-0.299,0.87-0.435,1.305c-0.163,0.462-0.272,0.897-0.408,1.36
		c-0.272,0.843-0.517,1.714-0.761,2.584c-0.109,0.38-0.19,0.734-0.272,1.115c-0.272,1.006-0.49,2.013-0.707,3.019
		c-0.054,0.299-0.136,0.571-0.19,0.843c-0.218,1.197-0.435,2.421-0.625,3.617c0,0.136-0.027,0.245-0.054,0.381
		c-0.19,1.387-0.381,2.802-0.517,4.216c-0.109,1.442-0.19,2.856-0.245,4.27c0,0.218,0,0.435-0.027,0.68v0.653
		c0-0.054,0-0.082-0.027-0.109c-0.027,0.191-0.027,0.408-0.054,0.653v0.082c-0.109,1.278-0.245,3.047-0.408,5.005
		c-0.027,0.38-0.082,0.789-0.109,1.197c-0.299,3.645-0.707,7.67-1.17,10.254c0,0.082,0,0.163-0.027,0.245
		c-1.469,9.438-4.379,18.387-8.513,26.628c-2.938,5.902-6.5,11.424-10.635,16.51c-0.19,0.245-0.408,0.49-0.598,0.734
		c-0.245,0.299-0.517,0.598-0.789,0.898c-0.218,0.245-0.435,0.489-0.68,0.734c0,0.027-0.027,0.054-0.082,0.081
		c-0.68,0.762-1.387,1.496-2.122,2.23c-0.408,0.408-0.789,0.816-1.224,1.224c-0.408,0.408-0.816,0.816-1.224,1.224
		c-0.082,0.054-0.163,0.136-0.245,0.217l-0.734,0.734h-0.027c-0.979,0.979-1.986,1.931-3.019,2.883
		c-1.006,0.898-2.013,1.795-3.046,2.611c-2.067,1.714-4.189,3.291-6.365,4.733c-0.109,0.082-0.245,0.163-0.381,0.245
		c-1.034,0.707-2.067,1.36-3.155,1.985c-1.006,0.626-2.04,1.224-3.073,1.768c-0.299,0.19-0.626,0.354-0.925,0.49
		c-0.326,0.217-0.653,0.38-0.979,0.544c-0.707,0.353-1.387,0.707-2.094,1.033c-1.142,0.571-2.312,1.088-3.481,1.578
		c-0.19,0.082-0.381,0.163-0.544,0.218c-1.034,0.462-2.067,0.87-3.101,1.278c-1.523,0.544-3.019,1.06-4.542,1.523
		c-2.393,0.789-4.841,1.442-7.316,1.986c-6.065,1.387-12.321,2.148-18.631,2.284c-0.843,0.027-1.686,0.027-2.529,0.027
		c-0.109,0-0.218,0.027-0.299,0.027c-0.082,0-0.19-0.027-0.299-0.027c-0.843,0-1.686,0-2.529-0.027
		c-6.31-0.136-12.566-0.897-18.631-2.284c-2.475-0.544-4.923-1.197-7.316-1.986c-1.523-0.463-3.019-0.979-4.542-1.523
		c-1.034-0.408-2.067-0.816-3.101-1.278c-0.163-0.054-0.354-0.136-0.544-0.218c-1.17-0.489-2.339-1.006-3.482-1.578
		c-0.707-0.326-1.387-0.68-2.094-1.033c-0.326-0.163-0.653-0.327-0.979-0.544c-0.299-0.136-0.625-0.299-0.925-0.49
		c-1.034-0.544-2.067-1.142-3.073-1.768c-1.088-0.625-2.122-1.278-3.155-1.985c-0.136-0.082-0.272-0.163-0.381-0.245
		c-2.176-1.441-4.297-3.019-6.364-4.733c-1.034-0.816-2.04-1.713-3.046-2.611c-1.034-0.952-2.04-1.904-3.019-2.883h-0.027
		c-0.326-0.299-0.626-0.625-0.952-0.952l-1.496-1.496c-0.326-0.326-0.653-0.625-0.952-0.952c-0.734-0.734-1.442-1.469-2.122-2.23
		c-0.054-0.027-0.081-0.054-0.081-0.081c-0.245-0.245-0.463-0.49-0.68-0.734c-0.272-0.299-0.544-0.598-0.789-0.898
		c-0.19-0.245-0.408-0.489-0.598-0.734c-4.134-5.086-7.697-10.607-10.635-16.51c-4.134-8.241-7.044-17.19-8.513-26.628
		c-0.027-0.081-0.027-0.163-0.027-0.245c-0.435-2.285-0.762-5.739-1.061-9.03c0-0.163-0.027-0.326-0.054-0.489
		c-0.272-3.101-0.462-6.011-0.626-7.643c-0.027,0.027-0.027,0.027-0.027,0.082V76.81c0-0.272,0-0.571-0.027-0.843
		c-0.054-1.414-0.136-2.829-0.245-4.27c-0.054-0.707-0.136-1.414-0.245-2.121c-0.081-0.707-0.163-1.414-0.272-2.094
		c0-0.163-0.027-0.326-0.054-0.463c-0.19-1.169-0.408-2.366-0.626-3.536c-0.054-0.272-0.136-0.544-0.19-0.843
		c-0.218-1.007-0.435-2.013-0.707-3.019c-0.082-0.38-0.163-0.734-0.272-1.115c-0.245-0.871-0.49-1.741-0.762-2.584
		c-0.054-0.217-0.136-0.462-0.19-0.68c-0.054-0.245-0.136-0.463-0.218-0.68c-0.136-0.435-0.299-0.87-0.435-1.305
		c-0.898-2.611-1.931-5.195-3.128-7.67c-0.081-0.218-0.19-0.463-0.299-0.68c-0.544-1.142-1.115-2.258-1.714-3.345
		c-0.408-0.762-0.816-1.523-1.306-2.258c-0.49-0.925-1.061-1.849-1.659-2.747c-0.571-0.925-1.17-1.822-1.795-2.693
		c-0.818-1.177-1.678-2.321-2.557-3.449c0,0,0-0.005,0-0.005c-0.012-0.016-0.026-0.031-0.038-0.047
		c-0.513-0.657-1.053-1.29-1.586-1.93c-0.228-0.271-0.451-0.545-0.683-0.813c-5.859-6.848-12.864-12.67-20.727-17.17l-0.004-0.004
		c-0.979-0.571-1.986-1.115-2.992-1.659c-1.985-1.061-4.025-2.013-6.093-2.856c-0.109-0.027-0.19-0.054-0.272-0.109
		c-0.952-0.38-1.877-0.734-2.829-1.088c-0.082-0.027-0.19-0.082-0.272-0.082c-0.843-0.299-1.686-0.598-2.53-0.871
		c-0.19-0.082-0.408-0.136-0.598-0.217c-0.408-0.136-0.816-0.245-1.251-0.354c-0.19-0.054-0.354-0.109-0.517-0.163
		c-0.571-0.163-1.142-0.326-1.741-0.489c-0.218-0.055-0.435-0.109-0.653-0.163c-0.558-0.139-1.133-0.258-1.701-0.39
		c-0.059-0.014-0.116-0.031-0.176-0.045c-0.063-0.015-0.126-0.024-0.189-0.039c-0.42-0.095-0.832-0.206-1.253-0.288
		c-0.326-0.054-0.625-0.109-0.925-0.19c-0.136-0.027-0.272-0.054-0.408-0.054c-1.251-0.245-2.475-0.435-3.726-0.626
		c-0.625-0.082-1.278-0.163-1.931-0.245c-0.435-0.054-0.843-0.082-1.251-0.136l-0.979-0.082c-0.218-0.027-0.435-0.054-0.68-0.081
		c-0.517-0.054-1.061-0.054-1.605-0.082h-0.163c-0.49-0.027-0.979-0.054-1.496-0.081c-0.082,0.027-0.136,0.027-0.163,0
		C251.754,0.027,250.856,0,249.931,0c-0.734,0-1.469,0-2.23,0.027c-0.163,0-0.354,0-0.517,0.027c0,0-0.027,0.027-0.054,0.027h-0.027
		c-0.027,0-0.027-0.027-0.082-0.027c-0.517,0.027-1.006,0.054-1.496,0.081h-0.354c-0.49,0.027-0.952,0.027-1.415,0.082
		c-0.245,0.027-0.462,0.054-0.68,0.081l-0.979,0.082c-1.061,0.109-2.121,0.218-3.182,0.381c-0.326,0.054-0.653,0.081-0.979,0.136
		c-1.061,0.163-2.094,0.354-3.155,0.544c-0.299,0.081-0.598,0.136-0.925,0.19c-1.115,0.217-2.23,0.49-3.318,0.761
		c-0.218,0.054-0.435,0.109-0.653,0.163c-1.17,0.299-2.339,0.653-3.509,1.006c-0.789,0.272-1.578,0.544-2.366,0.816
		c-0.354,0.109-0.68,0.218-1.034,0.354c-0.626,0.245-1.251,0.462-1.877,0.734c-0.326,0.109-0.626,0.217-0.952,0.353
		c-0.082,0.054-0.163,0.082-0.272,0.109c-0.625,0.245-1.251,0.517-1.849,0.816c-0.027,0-0.027,0.027-0.054,0.027
		c-0.163,0.054-0.299,0.136-0.462,0.217c-0.952,0.435-1.904,0.897-2.856,1.36c-1.099,0.549-2.181,1.133-3.254,1.736
		c-0.683,0.381-1.356,0.776-2.025,1.179c-0.261,0.155-0.526,0.301-0.786,0.458c-0.707,0.435-1.414,0.897-2.094,1.333
		c-0.027,0.027-0.082,0.054-0.109,0.082c-0.707,0.463-1.414,0.952-2.094,1.441c-0.707,0.49-1.387,1.007-2.094,1.523
		c-0.626,0.49-1.251,0.979-1.877,1.496c-0.055,0.027-0.082,0.082-0.136,0.109c-0.898,0.707-1.768,1.469-2.638,2.23
		c-0.109,0.109-0.218,0.19-0.326,0.326c-0.761,0.625-1.469,1.305-2.176,2.013c-0.843,0.789-1.632,1.605-2.421,2.421
		c-0.081,0.081-0.163,0.163-0.218,0.245c-0.789,0.843-1.55,1.686-2.312,2.557c-0.517,0.599-1.061,1.224-1.55,1.877
		c-0.381,0.463-0.761,0.925-1.115,1.387c-0.109,0.163-0.245,0.326-0.381,0.49c-0.68,0.897-1.333,1.822-1.985,2.747
		c-0.163,0.217-0.299,0.408-0.435,0.626c-0.734,1.115-1.469,2.257-2.176,3.4c-1.442,2.393-2.774,4.869-3.971,7.398
		c-0.027,0.054-0.054,0.109-0.081,0.163c-0.571,1.224-1.088,2.448-1.605,3.699c-0.544,1.306-1.033,2.639-1.496,3.971
		c-0.136,0.435-0.299,0.87-0.435,1.305c-0.082,0.245-0.163,0.49-0.245,0.734c-0.054,0.217-0.109,0.408-0.163,0.625
		c-0.245,0.789-0.49,1.605-0.707,2.421c-0.027,0.027-0.027,0.054-0.027,0.082c-0.027,0.054-0.027,0.136-0.054,0.19
		c-0.109,0.354-0.163,0.653-0.245,1.006c-0.082,0.299-0.163,0.598-0.245,0.925c-0.082,0.326-0.163,0.653-0.218,1.006
		c-0.027,0.082-0.054,0.163-0.054,0.245c-0.054,0.272-0.136,0.571-0.19,0.843c-0.054,0.272-0.136,0.544-0.19,0.789
		c-0.027,0.163-0.054,0.354-0.081,0.517c-0.082,0.408-0.163,0.816-0.218,1.251c-0.109,0.625-0.218,1.251-0.326,1.849
		c-0.027,0.299-0.082,0.571-0.109,0.843c-0.136,1.006-0.272,2.04-0.381,3.073c-0.027,0.326-0.054,0.653-0.109,0.979
		c-0.082,1.36-0.163,2.693-0.218,4.025c0,0.218,0,0.435-0.027,0.68v0.653c0-0.027-0.027-0.054-0.027-0.054
		c-0.326,3.454-0.898,12.566-1.741,17.135c0,0.082,0,0.163-0.027,0.245c-1.469,9.438-4.379,18.387-8.513,26.628
		c-2.938,5.902-6.501,11.424-10.635,16.51c-0.19,0.245-0.408,0.49-0.598,0.734c-0.245,0.299-0.517,0.598-0.789,0.898
		c-0.217,0.245-0.435,0.489-0.68,0.734c0,0.027-0.027,0.054-0.082,0.081c-0.68,0.762-1.387,1.496-2.122,2.23
		c-0.789,0.816-1.632,1.632-2.448,2.448c-0.082,0.081-0.163,0.163-0.245,0.217c-6.473,6.147-13.844,11.315-21.895,15.34
		c-8.214,4.134-17.19,7.044-26.601,8.513c-0.109,0.027-0.19,0.027-0.272,0.027c-7.697,1.414-14.171,1.904-17.571,2.067
		c-0.272,0-0.517,0.027-0.761,0.027c-0.381,0-0.789,0-1.169,0.027c-0.19,0-0.408,0.027-0.599,0.054
		c-0.843,0.027-1.714,0.082-2.584,0.163c-18.985,1.686-36.12,10.281-48.877,23.228c-3.998,4.025-7.534,8.486-10.608,13.3
		c-3.046,4.814-5.603,9.955-7.561,15.367c-0.789,2.176-1.469,4.379-2.067,6.637c-1.197,4.488-1.986,9.138-2.339,13.898
		c-0.027,0.381-0.054,0.762-0.082,1.142c-0.027,0.789-0.082,1.577-0.109,2.366C0.027,248.163,0,249.061,0,249.931
		c0,1.36,0.027,2.693,0.109,4.025c0.054,1.333,0.163,2.639,0.299,3.944c0.109,1.034,0.218,2.067,0.381,3.073
		c0.109,0.898,0.245,1.795,0.435,2.693c0.054,0.435,0.136,0.843,0.218,1.251c0.136,0.816,0.299,1.605,0.517,2.394
		c0.054,0.353,0.136,0.68,0.217,1.006c0.163,0.707,0.327,1.414,0.544,2.122c0.218,0.898,0.49,1.795,0.762,2.693
		c0.054,0.163,0.081,0.299,0.136,0.435c0.272,0.843,0.544,1.714,0.843,2.53c0.163,0.489,0.326,0.925,0.49,1.387
		c0.218,0.571,0.435,1.142,0.68,1.713c0.245,0.68,0.544,1.36,0.843,2.04c2.366,5.494,5.358,10.662,8.867,15.422
		c0.354,0.49,0.734,0.979,1.088,1.442c0.354,0.462,0.734,0.925,1.115,1.387c0.49,0.653,1.033,1.279,1.55,1.877
		c0.109,0.136,0.218,0.245,0.326,0.381c0.734,0.816,1.442,1.632,2.203,2.421c1.578,1.659,3.209,3.237,4.923,4.76
		c0.87,0.761,1.741,1.523,2.638,2.23c2.666,2.176,5.467,4.161,8.404,5.984c1.985,1.197,3.998,2.339,6.065,3.373
		c0.952,0.462,1.904,0.925,2.856,1.36c0.163,0.081,0.299,0.163,0.462,0.217c2.067,0.898,4.189,1.741,6.337,2.475
		c1.088,0.381,2.203,0.734,3.345,1.061c3.373,1.006,6.854,1.768,10.417,2.312c0.054,0,0.109,0.027,0.163,0.027
		c0.326,0.055,0.653,0.081,0.979,0.136c0.49,0.082,0.952,0.136,1.414,0.191c0.082,0.027,0.163,0.027,0.272,0.027
		c0.517,0.054,1.006,0.109,1.496,0.163c0.354,0.054,0.734,0.081,1.143,0.081c0.517,0.082,1.033,0.109,1.577,0.136
		c0.082,0.027,0.136,0.027,0.218,0c0.163,0.027,0.326,0.027,0.49,0.027c0.354,0.027,0.68,0.054,1.061,0.054
		c3.046,0.136,6.12,0.082,9.248-0.163c3.862-0.299,7.616-0.87,11.315-1.714c3.128-0.707,6.201-1.605,9.166-2.693l0.027-0.027
		c4.324-1.55,8.486-3.482,12.43-5.766c0,0,0,0,0.027-0.027c5.929-3.4,11.396-7.561,16.211-12.348
		c0.816-0.789,1.605-1.605,2.366-2.448c1.578-1.659,3.046-3.373,4.433-5.14c0,0,0,0,0-0.027c3.536-4.461,6.555-9.302,9.03-14.47
		c1.496-3.1,2.802-6.283,3.862-9.601c0.354-1.088,0.68-2.203,1.006-3.318c0.626-2.23,1.17-4.515,1.578-6.827
		c0.408-2.312,0.734-4.678,0.952-7.044c0.136-1.741,0.245-3.427,0.272-5.113c0.054-1.36,0.19-3.182,0.381-5.385
		c0.326-3.345,0.843-7.534,1.686-12.185c0-0.082,0-0.163,0.027-0.245c1.469-9.438,4.379-18.387,8.513-26.628
		c2.937-5.902,6.5-11.424,10.635-16.51c0.381-0.517,0.789-1.007,1.251-1.496c0.897-1.088,1.822-2.149,2.774-3.182l0.299-0.299
		c0.19-0.217,0.381-0.435,0.598-0.653c0.816-0.816,1.632-1.659,2.448-2.448h0.027c0.979-0.979,1.986-1.931,3.019-2.883
		c1.006-0.898,2.013-1.795,3.046-2.611c2.067-1.714,4.188-3.291,6.365-4.733c0.109-0.082,0.245-0.163,0.381-0.245
		c1.034-0.707,2.067-1.36,3.155-1.985c1.006-0.626,2.04-1.224,3.073-1.768c0.299-0.19,0.626-0.354,0.925-0.49
		c0.326-0.217,0.653-0.38,0.979-0.544c0.707-0.354,1.387-0.707,2.094-1.034c1.142-0.571,2.312-1.088,3.481-1.577
		c0.19-0.082,0.381-0.163,0.544-0.218c1.033-0.462,2.067-0.87,3.101-1.278c1.523-0.544,3.019-1.06,4.542-1.523
		c2.394-0.789,4.842-1.441,7.317-1.985c6.066-1.387,12.321-2.148,18.631-2.285c0.462-0.027,0.925-0.027,1.387-0.027h1.142
		c0.109,0,0.218-0.027,0.299-0.027c0.082,0,0.19,0.027,0.299,0.027c0.843,0,1.686,0,2.53,0.027
		c6.31,0.136,12.566,0.897,18.631,2.285c2.475,0.544,4.923,1.197,7.317,1.985c1.523,0.463,3.019,0.979,4.542,1.523
		c1.034,0.408,2.067,0.816,3.101,1.278c0.163,0.054,0.354,0.136,0.544,0.218c1.17,0.489,2.339,1.006,3.481,1.577
		c0.707,0.326,1.387,0.68,2.094,1.034c0.326,0.163,0.653,0.326,0.979,0.544c0.299,0.136,0.625,0.299,0.925,0.49
		c1.034,0.544,2.067,1.142,3.073,1.768c1.088,0.626,2.121,1.278,3.155,1.985c0.136,0.082,0.272,0.163,0.381,0.245
		c2.176,1.441,4.297,3.019,6.365,4.733c1.033,0.816,2.04,1.713,3.046,2.611c1.034,0.952,2.04,1.904,3.019,2.883h0.027
		c0.245,0.217,0.462,0.462,0.707,0.734c0.082,0.055,0.163,0.136,0.245,0.217l1.496,1.496c0.218,0.218,0.408,0.435,0.598,0.653
		l0.299,0.299c0.952,1.034,1.877,2.094,2.774,3.182c0.463,0.489,0.87,0.979,1.251,1.496c4.134,5.086,7.697,10.607,10.635,16.51
		c4.134,8.241,7.044,17.19,8.513,26.628c0.027,0.082,0.027,0.163,0.027,0.245c0.599,3.291,1.034,6.337,1.36,9.03
		c0.027,0.163,0.027,0.326,0.054,0.489c0.109,0.952,0.19,1.822,0.272,2.665c0.163,1.985,0.299,3.672,0.354,4.978v0.027
		c0.027,0.136,0.027,0.244,0.027,0.38v0.163c0,0.217,0.027,0.462,0.054,0.707c0,0.245,0,0.544,0.027,0.816
		c0.027,1.142,0.109,2.257,0.19,3.427c0.054,0.707,0.163,1.414,0.245,2.122c0.082,0.707,0.19,1.387,0.272,2.094
		c0.027,0.136,0.054,0.245,0.054,0.381v0.082c0.109,0.789,0.245,1.577,0.381,2.366c0.081,0.381,0.136,0.789,0.245,1.17
		c0.299,1.686,0.707,3.345,1.17,4.977c0.027,0.218,0.109,0.463,0.163,0.68c0.245,0.871,0.517,1.741,0.789,2.584
		c0.054,0.217,0.136,0.435,0.218,0.68c0.136,0.435,0.299,0.87,0.435,1.306c0.136,0.408,0.272,0.816,0.435,1.197
		c0.082,0.217,0.163,0.462,0.245,0.68c0.082,0.244,0.19,0.489,0.272,0.734c0.109,0.272,0.218,0.544,0.354,0.843
		c0.163,0.463,0.381,0.925,0.571,1.387c0.245,0.626,0.517,1.279,0.843,1.904c0.218,0.435,0.408,0.925,0.599,1.387
		c0.435,0.897,0.87,1.795,1.387,2.693c0.327,0.625,0.653,1.224,0.979,1.85c0.109,0.217,0.218,0.435,0.381,0.625
		c0.272,0.544,0.571,1.034,0.898,1.55c0.326,0.517,0.626,1.061,0.979,1.577c0.517,0.843,1.088,1.687,1.659,2.502
		c0.163,0.245,0.326,0.517,0.517,0.734c0.136,0.217,0.272,0.408,0.408,0.625c0.19,0.326,0.435,0.626,0.653,0.925
		c0.326,0.435,0.653,0.871,0.979,1.279c0.598,0.789,1.224,1.577,1.877,2.339c0.272,0.326,0.544,0.626,0.789,0.925
		c0.517,0.626,1.061,1.251,1.632,1.85c0.299,0.326,0.598,0.626,0.898,0.952c0.462,0.49,1.006,0.952,1.469,1.441
		c0.163,0.136,0.299,0.299,0.435,0.436c0.245,0.244,0.517,0.489,0.789,0.734c0.734,0.707,1.442,1.469,2.23,2.149
		c0.435,0.381,0.87,0.761,1.305,1.142c0.435,0.408,0.87,0.762,1.333,1.088c0.49,0.408,0.979,0.762,1.496,1.142
		c0.354,0.272,0.734,0.571,1.088,0.843c1.034,0.762,2.067,1.496,3.128,2.203c0.326,0.218,0.653,0.435,0.979,0.653
		c0.571,0.381,1.115,0.789,1.714,1.142c0.707,0.435,1.442,0.843,2.149,1.251c0.054,0.082,0.082,0.109,0.136,0.082
		c0.625,0.354,1.251,0.707,1.877,1.061c0.625,0.353,1.251,0.707,1.904,0.979c0.571,0.272,1.142,0.544,1.714,0.816
		c0.272,0.136,0.517,0.245,0.789,0.381c0.109,0.054,0.217,0.109,0.354,0.163c0.163,0.081,0.299,0.163,0.462,0.217
		c1.496,0.653,3.046,1.251,4.597,1.85c0.218,0.054,0.408,0.163,0.626,0.245l0.027,0.027c0.245,0.109,0.49,0.191,0.762,0.272
		c0.598,0.19,1.17,0.408,1.768,0.599c0.68,0.217,1.333,0.435,1.986,0.625c0.136,0.054,0.245,0.082,0.354,0.109
		c1.414,0.381,2.856,0.762,4.297,1.088c2.312,0.517,4.651,0.898,7.017,1.224c0.408,0.054,0.816,0.109,1.224,0.163
		c0.082,0.027,0.163,0.027,0.272,0.027c0.517,0.054,1.006,0.109,1.496,0.163c0.054,0.027,0.109,0.027,0.163,0.027h0.163
		c0.326,0.027,0.653,0.081,0.979,0.109c0.354,0.027,0.68,0.027,1.034,0.054c0.136,0,0.245,0.027,0.381,0.027
		c0.054,0.027,0.054,0.027,0.082,0.027c0.027,0,0.027,0,0.054,0s0.027,0,0.082-0.027c0.163,0.027,0.326,0.027,0.49,0.027
		c0.354,0.027,0.68,0.054,1.061,0.054h0.218c0.027,0,0.027,0,0.054,0c0.925,0.027,1.85,0.054,2.747,0.027
		c0.925,0.027,1.849,0,2.747-0.027c0.027,0,0.027,0,0.054,0h0.245c0.381,0,0.707-0.027,1.061-0.054c0.163,0,0.326,0,0.49-0.027
		c0.027,0.027,0.054,0.027,0.082,0.027h0.082c0.027,0,0.027,0,0.054-0.027c0.136,0,0.245-0.027,0.354-0.027
		c0.354-0.027,0.707-0.027,1.061-0.054c0.218-0.027,0.408-0.054,0.626-0.054c0.109-0.027,0.245-0.054,0.354-0.054h0.163
		c0.054,0,0.109,0,0.163-0.027c0.49-0.054,0.979-0.109,1.496-0.163c0.109,0,0.19,0,0.272-0.027c0.408-0.054,0.816-0.109,1.224-0.163
		c2.366-0.326,4.706-0.707,7.017-1.224c0.625-0.136,1.224-0.299,1.85-0.435c0.218-0.054,0.435-0.109,0.653-0.163
		c1.17-0.299,2.339-0.653,3.509-1.006c0.109-0.027,0.245-0.082,0.354-0.136c0.68-0.217,1.333-0.435,2.013-0.68
		c0.272-0.081,0.517-0.163,0.789-0.272l0.027-0.027c0.19-0.082,0.408-0.191,0.625-0.245c1.523-0.599,3.073-1.17,4.542-1.822
		c0.299-0.109,0.598-0.245,0.87-0.408c0.272-0.136,0.517-0.245,0.789-0.381c0.571-0.272,1.142-0.544,1.714-0.816
		c2.393-1.17,4.705-2.475,6.936-3.944c0.272-0.19,0.544-0.38,0.843-0.571c0.326-0.217,0.653-0.435,0.979-0.653
		c1.061-0.707,2.094-1.442,3.101-2.203c0.381-0.272,0.761-0.571,1.115-0.843c0.463-0.354,0.979-0.707,1.442-1.088
		c1.006-0.789,1.958-1.605,2.91-2.502c0.68-0.598,1.333-1.305,2.013-1.931c0.245-0.245,0.517-0.49,0.789-0.734
		c0.136-0.136,0.272-0.299,0.408-0.436c0.49-0.489,1.006-0.952,1.496-1.441c0.082-0.082,0.136-0.163,0.218-0.245
		c0.68-0.707,1.333-1.442,1.985-2.176c0.109-0.136,0.218-0.245,0.326-0.381c1.033-1.224,2.067-2.475,3.046-3.753
		c0.218-0.299,0.462-0.625,0.707-0.952c0.272-0.381,0.544-0.789,0.816-1.17c0.082-0.082,0.136-0.136,0.136-0.217
		c0.163-0.217,0.354-0.49,0.517-0.734c0.462-0.68,0.925-1.36,1.387-2.067c0.925-1.414,1.768-2.856,2.557-4.325
		c0.299-0.489,0.571-0.979,0.816-1.469c0.054-0.082,0.109-0.163,0.136-0.245c0.299-0.571,0.598-1.143,0.897-1.741
		c0.109-0.245,0.245-0.489,0.381-0.734c0.082-0.163,0.163-0.326,0.218-0.517c0.163-0.354,0.326-0.734,0.49-1.088
		c0.163-0.381,0.354-0.734,0.517-1.115c0.109-0.272,0.218-0.544,0.326-0.789c0.109-0.272,0.218-0.517,0.299-0.761
		c0.054-0.082,0.082-0.163,0.109-0.245c0.19-0.408,0.354-0.816,0.49-1.224c0.109-0.245,0.218-0.49,0.299-0.734
		c0.163-0.463,0.326-0.898,0.49-1.387c0.054-0.109,0.054-0.218,0.109-0.327c0.027-0.054,0.027-0.109,0.054-0.163
		c0.054-0.19,0.136-0.408,0.218-0.599c0.109-0.217,0.163-0.435,0.245-0.653c0.354-1.088,0.68-2.203,1.006-3.318
		c0.626-2.23,1.17-4.515,1.578-6.827c0.408-2.312,0.734-4.678,0.952-7.044c0.054-0.68,0.054-1.333,0.109-2.013
		c0.027-0.408,0.054-0.789,0.082-1.197c0.027-0.353,0.027-0.707,0.027-1.033v-0.027c0-0.136,0-0.272,0.027-0.408
		c0-0.163,0.027-0.299,0.027-0.435c0-0.326,0.027-0.653,0.054-1.034v-0.081c0.082-1.17,0.19-2.611,0.326-4.27
		c0.027-0.245,0.054-0.489,0.082-0.734c0.054-0.38,0.082-0.789,0.109-1.197c0.326-2.965,0.816-6.446,1.496-10.254
		c0-0.082,0-0.163,0.027-0.245c1.469-9.438,4.379-18.387,8.513-26.628c2.938-5.902,6.5-11.424,10.635-16.51
		c0.381-0.517,0.789-1.007,1.251-1.496c0.897-1.088,1.822-2.149,2.774-3.182l0.299-0.299c0.19-0.217,0.381-0.435,0.598-0.653
		l1.714-1.714c0.245-0.245,0.49-0.49,0.734-0.734h0.027c0.979-0.979,1.986-1.931,3.019-2.883c1.006-0.898,2.013-1.795,3.046-2.611
		c2.067-1.714,4.188-3.291,6.364-4.733c0.109-0.082,0.245-0.163,0.381-0.245c1.034-0.707,2.067-1.36,3.155-1.985
		c1.006-0.626,2.04-1.224,3.073-1.768c0.299-0.19,0.626-0.354,0.925-0.49c0.326-0.217,0.653-0.38,0.979-0.544
		c0.707-0.354,1.387-0.707,2.094-1.034c1.142-0.571,2.312-1.088,3.481-1.577c0.19-0.082,0.381-0.163,0.544-0.218
		c1.034-0.462,2.067-0.87,3.101-1.278c1.523-0.544,3.019-1.06,4.542-1.523c2.394-0.789,4.841-1.441,7.316-1.985
		c6.066-1.387,12.321-2.148,18.631-2.285c0.843-0.027,1.686-0.027,2.529-0.027c0.109,0,0.218-0.027,0.299-0.027
		c0.082,0,0.19,0.027,0.299,0.027h1.115c0.462,0,0.952,0,1.414,0.027c6.31,0.136,12.566,0.897,18.631,2.285
		c2.475,0.544,4.923,1.197,7.316,1.985c1.523,0.463,3.019,0.979,4.542,1.523c1.034,0.408,2.067,0.816,3.101,1.278
		c0.163,0.054,0.354,0.136,0.544,0.218c1.17,0.489,2.339,1.006,3.481,1.577c0.707,0.326,1.387,0.68,2.094,1.034
		c0.326,0.163,0.653,0.326,0.979,0.544c0.299,0.136,0.625,0.299,0.925,0.49c1.034,0.544,2.067,1.142,3.073,1.768
		c1.088,0.626,2.121,1.278,3.155,1.985c0.136,0.082,0.272,0.163,0.381,0.245c2.176,1.441,4.297,3.019,6.364,4.733
		c1.034,0.816,2.04,1.713,3.046,2.611c1.034,0.952,2.04,1.904,3.019,2.883h0.027c0.816,0.789,1.632,1.632,2.448,2.448
		c0.218,0.218,0.408,0.435,0.599,0.653l0.299,0.299c0.952,1.034,1.877,2.094,2.774,3.182c0.463,0.489,0.87,0.979,1.251,1.496
		c4.134,5.086,7.697,10.607,10.635,16.51c4.134,8.241,7.044,17.19,8.513,26.628c0.027,0.082,0.027,0.163,0.027,0.245
		c0.843,4.651,1.36,8.84,1.686,12.185c0.19,2.203,0.326,4.025,0.381,5.385c0.027,1.686,0.136,3.373,0.272,5.113
		c0.217,2.366,0.544,4.733,0.952,7.044c0.408,2.312,0.952,4.597,1.578,6.827c0.326,1.115,0.653,2.23,1.006,3.318
		c1.061,3.319,2.366,6.501,3.862,9.601c2.475,5.168,5.494,10.009,9.03,14.47c0,0.027,0,0.027,0,0.027
		c1.387,1.768,2.856,3.482,4.433,5.14c0.761,0.843,1.55,1.659,2.366,2.448c4.814,4.787,10.281,8.948,16.211,12.348
		c0.027,0.027,0.027,0.027,0.027,0.027c3.944,2.285,8.105,4.216,12.43,5.766l0.027,0.027c2.965,1.088,6.038,1.985,9.166,2.693
		c3.699,0.843,7.453,1.414,11.315,1.714c3.128,0.245,6.201,0.299,9.248,0.163c0.381,0,0.707-0.027,1.061-0.054
		c0.163,0,0.326,0,0.49-0.027c0.082,0.027,0.136,0.027,0.218,0c0.544-0.027,1.061-0.054,1.578-0.136
		c0.408,0,0.789-0.027,1.142-0.081c0.49-0.054,0.979-0.109,1.496-0.163c0.109,0,0.19,0,0.272-0.027
		c0.463-0.054,0.925-0.109,1.414-0.191c0.326-0.054,0.653-0.081,0.979-0.136c0.054,0,0.109-0.027,0.163-0.027
		c3.563-0.544,7.045-1.305,10.417-2.312c1.142-0.326,2.258-0.68,3.345-1.061c2.149-0.734,4.27-1.577,6.337-2.475
		c0.163-0.054,0.299-0.136,0.462-0.217c0.952-0.435,1.904-0.897,2.856-1.36c2.067-1.034,4.08-2.176,6.065-3.373
		c2.938-1.822,5.739-3.808,8.404-5.984c0.898-0.707,1.768-1.469,2.638-2.23c1.714-1.523,3.345-3.101,4.923-4.76
		c0.762-0.789,1.469-1.605,2.203-2.421c0.109-0.136,0.218-0.245,0.326-0.381c0.517-0.598,1.061-1.224,1.55-1.877
		c0.381-0.462,0.762-0.924,1.115-1.387c0.354-0.463,0.734-0.952,1.088-1.442c3.509-4.76,6.5-9.928,8.867-15.422
		c0.299-0.68,0.598-1.36,0.843-2.04c0.245-0.571,0.462-1.142,0.68-1.713c0.163-0.463,0.326-0.898,0.49-1.387
		c0.299-0.816,0.571-1.687,0.843-2.53c0.054-0.136,0.082-0.272,0.136-0.435c0.272-0.897,0.544-1.795,0.762-2.693
		c0.218-0.707,0.381-1.414,0.544-2.122c0.082-0.326,0.163-0.653,0.218-1.006c0.218-0.789,0.381-1.578,0.517-2.394
		c0.082-0.408,0.163-0.816,0.218-1.251c0.19-0.898,0.326-1.795,0.435-2.693c0.163-1.006,0.272-2.04,0.381-3.073
		c0.136-1.306,0.245-2.611,0.299-3.944c0.082-1.333,0.109-2.665,0.109-4.025c0-0.87-0.027-1.768-0.054-2.665
		C841.808,246.477,841.754,245.688,841.727,244.899z"/>
</g>
</svg>
