<?xml version="1.0" encoding="utf-8"?>
<!-- Generator: Adobe Illustrator 25.2.0, SVG Export Plug-In . SVG Version: 6.00 Build 0)  -->
<svg version="1.1" id="Layer_1" xmlns="http://www.w3.org/2000/svg" xmlns:xlink="http://www.w3.org/1999/xlink" x="0px" y="0px"
	 viewBox="0 0 328.854 841.89" style="enable-background:new 0 0 328.854 841.89;" xml:space="preserve">
<g>
	<circle cx="78.922" cy="250.165" r="78.922"/>
	
		<ellipse transform="matrix(0.7071 -0.7071 0.7071 0.7071 -224.4495 300.0206)" cx="249.932" cy="420.945" rx="78.922" ry="78.922"/>
	<circle cx="78.922" cy="591.83" r="78.922"/>
	
		<ellipse transform="matrix(0.7071 -0.7071 0.7071 0.7071 -466.2964 400.1968)" cx="249.932" cy="762.968" rx="78.922" ry="78.922"/>
	<circle cx="249.932" cy="78.922" r="78.922"/>
	<path d="M83.954,841.727c0.381-0.027,0.761-0.054,1.142-0.082c4.76-0.354,9.411-1.142,13.898-2.339
		c2.258-0.598,4.461-1.278,6.637-2.067c5.413-1.958,10.553-4.515,15.367-7.561c4.814-3.073,9.275-6.609,13.3-10.608
		c12.947-12.756,21.542-29.892,23.228-48.876c0.082-0.87,0.136-1.741,0.163-2.584c0.027-0.19,0.054-0.408,0.054-0.598
		c0.027-0.381,0.027-0.789,0.027-1.17c0-0.245,0.027-0.49,0.027-0.761c0.163-3.4,0.653-9.873,2.067-17.571
		c0-0.082,0-0.163,0.027-0.272c1.469-9.411,4.379-18.386,8.513-26.601c4.025-8.051,9.194-15.422,15.34-21.895
		c0.054-0.082,0.136-0.163,0.217-0.245c0.816-0.816,1.632-1.659,2.448-2.448c0.734-0.734,1.469-1.442,2.23-2.122
		c0.027-0.054,0.054-0.081,0.081-0.081c0.245-0.245,0.49-0.463,0.734-0.68c0.299-0.272,0.598-0.544,0.898-0.789
		c0.245-0.19,0.489-0.408,0.734-0.598c5.086-4.134,10.607-7.697,16.51-10.635c8.241-4.134,17.19-7.044,26.628-8.513
		c0.081-0.027,0.163-0.027,0.245-0.027c4.596-0.843,13.763-1.414,17.19-1.741c-0.027-0.027-0.054-0.027-0.082-0.027
		c0.789,0,1.577-0.027,2.366-0.082c0.761-0.027,1.523-0.082,2.285-0.136c0.299,0,0.625-0.027,0.925-0.054
		c0.707-0.054,1.414-0.163,2.121-0.245c0.054-0.027,0.109-0.027,0.163-0.027c0.653-0.081,1.279-0.163,1.931-0.245
		c0.136-0.027,0.245-0.054,0.381-0.054c0.19-0.027,0.38-0.054,0.571-0.109c1.006-0.163,2.04-0.326,3.046-0.517
		c0.217-0.054,0.435-0.109,0.68-0.163c0.054,0,0.109-0.027,0.163-0.027c0.707-0.163,1.414-0.299,2.094-0.49
		c0.408-0.082,0.816-0.19,1.224-0.299c0.272-0.054,0.544-0.109,0.816-0.19c0.327-0.082,0.653-0.19,0.952-0.272
		c0.598-0.163,1.224-0.354,1.822-0.544c0.163-0.054,0.299-0.082,0.435-0.136c0.408-0.136,0.843-0.272,1.279-0.408
		c0.244-0.082,0.517-0.163,0.761-0.245c0.163-0.054,0.326-0.109,0.49-0.19c0.245-0.082,0.489-0.163,0.707-0.245
		c0.68-0.245,1.36-0.49,2.013-0.789c0.136-0.027,0.245-0.082,0.38-0.136c0.68-0.245,1.36-0.544,2.04-0.843s1.36-0.599,2.04-0.925
		c0.272-0.109,0.544-0.245,0.816-0.381c1.061-0.49,2.094-1.006,3.101-1.578c0.027,0,0.054-0.027,0.082-0.027
		c1.088-0.598,2.176-1.197,3.237-1.85c0.979-0.598,1.931-1.197,2.883-1.849c0.49-0.299,0.979-0.625,1.469-0.979
		c0.598-0.408,1.197-0.843,1.795-1.278c0.054-0.027,0.109-0.082,0.163-0.109c0.436-0.326,0.871-0.653,1.279-0.979
		c0.462-0.354,0.925-0.734,1.387-1.115c0.326-0.245,0.653-0.49,0.952-0.761c0.326-0.272,0.625-0.544,0.925-0.789
		c0.136-0.109,0.244-0.218,0.38-0.326c0.49-0.435,0.979-0.87,1.469-1.306c0.326-0.299,0.625-0.598,0.952-0.897
		c0.093-0.088,0.174-0.187,0.266-0.276c1.56-1.487,3.071-3.031,4.494-4.648c0.381-0.435,0.762-0.87,1.142-1.305
		c0.353-0.435,0.734-0.898,1.088-1.333c0.544-0.653,1.088-1.333,1.605-2.013c1.088-1.36,2.067-2.774,2.992-4.216
		c0.462-0.707,0.925-1.441,1.387-2.176c0.478-0.793,0.939-1.595,1.397-2.399c0.441-0.773,0.861-1.555,1.274-2.344
		c0.233-0.441,0.478-0.876,0.702-1.322c0.462-0.952,0.925-1.904,1.36-2.856c0.082-0.163,0.163-0.299,0.217-0.462
		c0.327-0.625,0.571-1.251,0.843-1.877c0.027-0.109,0.054-0.19,0.109-0.272c0.38-0.952,0.734-1.877,1.088-2.829
		c0.136-0.353,0.245-0.68,0.354-1.033c0.272-0.789,0.544-1.578,0.816-2.366c0.354-1.17,0.707-2.339,1.006-3.509
		c0.055-0.218,0.109-0.435,0.163-0.653c0.272-1.088,0.544-2.203,0.761-3.318c0.054-0.326,0.109-0.625,0.19-0.925
		c0.191-1.061,0.381-2.094,0.544-3.155c0.054-0.326,0.082-0.653,0.136-0.979c0.163-1.061,0.272-2.121,0.381-3.182l0.082-0.979
		c0.027-0.218,0.054-0.435,0.081-0.68c0.054-0.462,0.054-0.979,0.082-1.469c0-0.027,0-0.027,0-0.054v-0.245
		c0.027-0.49,0.054-0.979,0.081-1.496c0-0.027-0.027-0.054-0.027-0.082v-0.027c0-0.027,0.027-0.027,0.027-0.054
		c0.027-0.163,0.027-0.354,0.027-0.517c0.027-0.762,0.027-1.496,0.027-2.23c0-0.925-0.027-1.822-0.054-2.747
		c-0.027-0.027-0.027-0.082,0-0.163c-0.027-0.517-0.054-1.006-0.081-1.496v-0.218c-0.027-0.517-0.027-1.061-0.082-1.55
		c-0.027-0.245-0.054-0.462-0.081-0.68l-0.082-0.979c-0.054-0.435-0.082-0.87-0.136-1.278c-0.218-1.904-0.517-3.781-0.871-5.657
		c0-0.136-0.027-0.245-0.054-0.381c-0.081-0.299-0.136-0.598-0.19-0.925c-0.109-0.49-0.19-0.979-0.326-1.469
		c-0.136-0.625-0.299-1.224-0.435-1.85c-0.381-1.523-0.816-3.019-1.305-4.515c-0.218-0.68-0.436-1.333-0.68-2.013
		c-0.082-0.272-0.163-0.517-0.272-0.789c-0.027-0.082-0.054-0.163-0.082-0.245c-0.353-0.952-0.707-1.877-1.088-2.829
		c-0.027-0.054-0.054-0.109-0.082-0.163c0-0.027-0.027-0.054-0.027-0.109c-0.435-1.034-0.871-2.04-1.36-3.046
		c-0.408-0.87-0.843-1.741-1.278-2.611c-0.109-0.245-0.245-0.462-0.354-0.707c-0.489-0.925-1.006-1.849-1.523-2.747
		c-1.251-2.23-2.638-4.406-4.161-6.5c-0.979-1.387-2.013-2.747-3.101-4.053c-1.033-1.333-2.148-2.611-3.345-3.862
		c-0.571-0.598-1.169-1.224-1.768-1.822c-0.394-0.408-0.816-0.789-1.224-1.184c-0.888-0.867-1.79-1.716-2.723-2.539
		c-1.19-1.066-2.398-2.101-3.641-3.077c0,0,0,0-0.027,0c-1.034-0.816-2.067-1.605-3.128-2.339c-0.136-0.109-0.299-0.218-0.463-0.326
		c-0.489-0.354-0.979-0.68-1.469-0.979c-0.843-0.571-1.686-1.115-2.53-1.632c-4.787-2.91-9.873-5.304-15.231-7.153
		c-0.435-0.136-0.87-0.299-1.305-0.435c-0.462-0.163-0.897-0.272-1.36-0.408c-0.843-0.272-1.714-0.517-2.584-0.761
		c-0.38-0.109-0.734-0.19-1.115-0.272c-1.006-0.272-2.013-0.49-3.019-0.707c-0.299-0.054-0.571-0.136-0.843-0.19
		c-1.197-0.218-2.421-0.435-3.617-0.625c-0.136,0-0.245-0.027-0.381-0.054c-1.387-0.19-2.802-0.381-4.216-0.517
		c-1.442-0.109-2.856-0.19-4.27-0.245c-0.218,0-0.435,0-0.68-0.027h-0.653c0.054,0,0.082,0,0.109-0.027
		c-0.191-0.027-0.408-0.027-0.653-0.054h-0.082c-1.278-0.109-3.047-0.245-5.005-0.408c-0.38-0.027-0.789-0.082-1.197-0.109
		c-3.645-0.299-7.67-0.707-10.254-1.17c-0.082,0-0.163,0-0.245-0.027c-9.438-1.469-18.387-4.379-26.628-8.513
		c-5.902-2.938-11.424-6.5-16.51-10.635c-0.245-0.19-0.49-0.408-0.734-0.598c-0.299-0.245-0.598-0.517-0.898-0.789
		c-0.245-0.218-0.489-0.435-0.734-0.68c-0.027,0-0.054-0.027-0.081-0.082c-0.762-0.68-1.496-1.387-2.23-2.122
		c-0.408-0.408-0.816-0.789-1.224-1.224c-0.408-0.408-0.816-0.816-1.224-1.224c-0.054-0.082-0.136-0.163-0.217-0.245l-0.734-0.734
		v-0.027c-0.979-0.979-1.931-1.986-2.883-3.019c-0.898-1.006-1.795-2.013-2.611-3.046c-1.714-2.067-3.291-4.189-4.733-6.365
		c-0.082-0.109-0.163-0.245-0.245-0.381c-0.707-1.034-1.36-2.067-1.985-3.155c-0.626-1.006-1.224-2.04-1.768-3.073
		c-0.19-0.299-0.354-0.626-0.49-0.925c-0.217-0.326-0.38-0.653-0.544-0.979c-0.353-0.707-0.707-1.387-1.033-2.094
		c-0.571-1.142-1.088-2.312-1.578-3.481c-0.082-0.19-0.163-0.381-0.218-0.544c-0.462-1.034-0.87-2.067-1.278-3.101
		c-0.544-1.523-1.06-3.019-1.523-4.542c-0.789-2.393-1.442-4.841-1.986-7.316c-1.387-6.065-2.148-12.321-2.284-18.631
		c-0.027-0.843-0.027-1.686-0.027-2.529c0-0.109-0.027-0.218-0.027-0.299c0-0.082,0.027-0.19,0.027-0.299
		c0-0.843,0-1.686,0.027-2.529c0.136-6.31,0.897-12.566,2.284-18.631c0.544-2.475,1.197-4.923,1.986-7.316
		c0.463-1.523,0.979-3.019,1.523-4.542c0.408-1.034,0.816-2.067,1.278-3.101c0.054-0.163,0.136-0.354,0.218-0.544
		c0.489-1.17,1.006-2.339,1.578-3.482c0.326-0.707,0.68-1.387,1.033-2.094c0.163-0.326,0.327-0.653,0.544-0.979
		c0.136-0.299,0.299-0.625,0.49-0.925c0.544-1.034,1.142-2.067,1.768-3.073c0.625-1.088,1.278-2.122,1.985-3.155
		c0.082-0.136,0.163-0.272,0.245-0.381c1.441-2.176,3.019-4.297,4.733-6.364c0.816-1.034,1.713-2.04,2.611-3.046
		c0.952-1.034,1.904-2.04,2.883-3.019v-0.027c0.299-0.326,0.625-0.626,0.952-0.952l1.496-1.496c0.326-0.326,0.625-0.653,0.952-0.952
		c0.734-0.734,1.469-1.442,2.23-2.122c0.027-0.054,0.054-0.081,0.081-0.081c0.245-0.245,0.49-0.463,0.734-0.68
		c0.299-0.272,0.598-0.544,0.898-0.789c0.245-0.19,0.489-0.408,0.734-0.598c5.086-4.134,10.607-7.697,16.51-10.635
		c8.241-4.134,17.19-7.044,26.628-8.513c0.081-0.027,0.163-0.027,0.245-0.027c2.285-0.435,5.739-0.762,9.03-1.061
		c0.163,0,0.326-0.027,0.489-0.054c3.101-0.272,6.011-0.462,7.643-0.626c-0.027-0.027-0.027-0.027-0.082-0.027h0.489
		c0.272,0,0.571,0,0.843-0.027c1.414-0.054,2.829-0.136,4.27-0.245c0.707-0.054,1.414-0.136,2.121-0.245
		c0.707-0.081,1.414-0.163,2.094-0.272c0.163,0,0.326-0.027,0.463-0.054c1.169-0.19,2.366-0.408,3.536-0.626
		c0.272-0.054,0.544-0.136,0.843-0.19c1.007-0.218,2.013-0.435,3.019-0.707c0.38-0.082,0.734-0.163,1.115-0.272
		c0.871-0.245,1.741-0.49,2.584-0.762c0.217-0.054,0.462-0.136,0.68-0.19c0.245-0.054,0.463-0.136,0.68-0.218
		c0.435-0.136,0.87-0.299,1.305-0.435c2.611-0.898,5.195-1.931,7.67-3.128c0.218-0.081,0.463-0.19,0.68-0.299
		c1.142-0.544,2.258-1.115,3.345-1.714c0.762-0.408,1.523-0.816,2.258-1.306c0.925-0.49,1.849-1.061,2.747-1.659
		c0.925-0.571,1.822-1.17,2.693-1.795c1.177-0.818,2.321-1.678,3.449-2.557c0,0,0.005,0,0.005,0
		c0.016-0.012,0.031-0.026,0.047-0.038c0.657-0.513,1.29-1.053,1.93-1.586c0.271-0.228,0.545-0.451,0.813-0.683
		c6.848-5.859,12.67-12.864,17.17-20.727l0.004-0.004c0.571-0.979,1.115-1.986,1.659-2.992c1.061-1.985,2.013-4.025,2.856-6.093
		c0.027-0.109,0.054-0.19,0.109-0.272c0.38-0.952,0.734-1.877,1.088-2.829c0.027-0.082,0.082-0.19,0.082-0.272
		c0.299-0.843,0.598-1.686,0.871-2.53c0.082-0.19,0.136-0.408,0.217-0.598c0.136-0.408,0.245-0.816,0.354-1.251
		c0.054-0.19,0.109-0.354,0.163-0.517c0.163-0.571,0.326-1.142,0.489-1.741c0.055-0.218,0.109-0.435,0.163-0.653
		c0.139-0.558,0.258-1.133,0.39-1.701c0.014-0.059,0.031-0.116,0.045-0.176c0.015-0.063,0.024-0.126,0.039-0.189
		c0.095-0.42,0.206-0.832,0.288-1.253c0.054-0.326,0.109-0.625,0.19-0.925c0.027-0.136,0.054-0.272,0.054-0.408
		c0.245-1.251,0.435-2.475,0.626-3.726c0.082-0.625,0.163-1.278,0.245-1.931c0.054-0.435,0.082-0.843,0.136-1.251l0.082-0.979
		c0.027-0.218,0.054-0.435,0.081-0.68c0.054-0.517,0.054-1.061,0.082-1.605v-0.163c0.027-0.49,0.054-0.979,0.081-1.496
		c-0.027-0.082-0.027-0.136,0-0.163c0.027-0.925,0.054-1.822,0.054-2.747c0-0.734,0-1.469-0.027-2.23c0-0.163,0-0.354-0.027-0.517
		c0,0-0.027-0.027-0.027-0.054v-0.027c0-0.027,0.027-0.027,0.027-0.082c-0.027-0.517-0.054-1.006-0.081-1.496v-0.354
		c-0.027-0.49-0.027-0.952-0.082-1.415c-0.027-0.245-0.054-0.462-0.081-0.68l-0.082-0.979c-0.109-1.061-0.218-2.121-0.381-3.182
		c-0.054-0.326-0.081-0.653-0.136-0.979c-0.163-1.061-0.354-2.094-0.544-3.155c-0.081-0.299-0.136-0.598-0.19-0.925
		c-0.217-1.115-0.49-2.23-0.761-3.318c-0.054-0.218-0.109-0.435-0.163-0.653c-0.299-1.17-0.653-2.339-1.006-3.509
		c-0.272-0.789-0.544-1.578-0.816-2.366c-0.109-0.354-0.218-0.68-0.354-1.034c-0.245-0.626-0.462-1.251-0.734-1.877
		c-0.109-0.326-0.217-0.626-0.353-0.952c-0.054-0.082-0.082-0.163-0.109-0.272c-0.245-0.625-0.517-1.251-0.816-1.849
		c0-0.027-0.027-0.027-0.027-0.054c-0.054-0.163-0.136-0.299-0.217-0.462c-0.435-0.952-0.897-1.904-1.36-2.856
		c-0.549-1.099-1.133-2.181-1.736-3.254c-0.381-0.683-0.776-1.356-1.179-2.025c-0.155-0.261-0.301-0.526-0.458-0.786
		c-0.435-0.707-0.897-1.414-1.333-2.094c-0.027-0.027-0.054-0.082-0.082-0.109c-0.463-0.707-0.952-1.414-1.441-2.094
		c-0.49-0.707-1.007-1.387-1.523-2.094c-0.49-0.626-0.979-1.251-1.496-1.877c-0.027-0.055-0.082-0.082-0.109-0.136
		c-0.707-0.898-1.469-1.768-2.23-2.638c-0.109-0.109-0.19-0.218-0.326-0.326c-0.625-0.761-1.305-1.469-2.013-2.176
		c-0.789-0.843-1.605-1.632-2.421-2.421c-0.081-0.081-0.163-0.163-0.245-0.218c-0.843-0.789-1.686-1.55-2.557-2.312
		c-0.599-0.517-1.224-1.061-1.877-1.55c-0.463-0.381-0.925-0.761-1.387-1.115c-0.163-0.109-0.326-0.245-0.49-0.381
		c-0.897-0.68-1.822-1.333-2.747-1.985c-0.217-0.163-0.408-0.299-0.626-0.435c-1.115-0.734-2.257-1.469-3.4-2.176
		c-2.393-1.442-4.869-2.774-7.398-3.971c-0.054-0.027-0.109-0.054-0.163-0.081c-1.224-0.571-2.448-1.088-3.699-1.605
		c-1.306-0.544-2.639-1.033-3.971-1.496c-0.435-0.136-0.87-0.299-1.305-0.435c-0.245-0.082-0.49-0.163-0.734-0.245
		c-0.217-0.054-0.408-0.109-0.625-0.163c-0.789-0.245-1.605-0.49-2.421-0.707c-0.027-0.027-0.054-0.027-0.082-0.027
		c-0.054-0.027-0.136-0.027-0.19-0.054c-0.354-0.109-0.653-0.163-1.006-0.245c-0.299-0.082-0.598-0.163-0.925-0.245
		c-0.326-0.082-0.653-0.163-1.006-0.218c-0.082-0.027-0.163-0.054-0.245-0.054c-0.272-0.054-0.571-0.136-0.843-0.19
		c-0.272-0.054-0.544-0.136-0.789-0.19c-0.163-0.027-0.354-0.054-0.517-0.081c-0.408-0.082-0.816-0.163-1.251-0.218
		c-0.625-0.109-1.251-0.218-1.849-0.326c-0.299-0.027-0.571-0.082-0.843-0.109c-1.006-0.136-2.04-0.272-3.073-0.381
		c-0.326-0.027-0.653-0.054-0.979-0.109c-1.36-0.082-2.693-0.163-4.025-0.218c-0.218,0-0.435,0-0.68-0.027h-0.653
		c0.027,0,0.054-0.027,0.054-0.027c-3.454-0.326-12.566-0.898-17.135-1.741c-0.082,0-0.163,0-0.245-0.027
		c-9.438-1.469-18.387-4.379-26.628-8.513c-5.902-2.938-11.424-6.501-16.51-10.635c-0.245-0.19-0.49-0.408-0.734-0.598
		c-0.299-0.245-0.598-0.517-0.898-0.789c-0.245-0.217-0.489-0.435-0.734-0.68c-0.027,0-0.054-0.027-0.081-0.082
		c-0.762-0.68-1.496-1.387-2.23-2.122c-0.816-0.789-1.632-1.632-2.448-2.448c-0.081-0.082-0.163-0.163-0.217-0.245
		c-6.147-6.473-11.315-13.844-15.34-21.895c-4.134-8.214-7.044-17.19-8.513-26.601c-0.027-0.109-0.027-0.19-0.027-0.272
		c-1.414-7.697-1.904-14.171-2.067-17.571c0-0.272-0.027-0.517-0.027-0.761c0-0.381,0-0.789-0.027-1.169
		c0-0.19-0.027-0.408-0.054-0.599c-0.027-0.843-0.082-1.714-0.163-2.584c-1.686-18.985-10.281-36.12-23.228-48.877
		c-4.025-3.998-8.486-7.534-13.3-10.608c-4.814-3.046-9.955-5.603-15.367-7.561c-2.176-0.789-4.379-1.469-6.637-2.067
		c-4.488-1.197-9.138-1.986-13.898-2.339c-0.381-0.027-0.762-0.054-1.142-0.082c-0.789-0.027-1.577-0.082-2.366-0.109
		C80.69,0.027,79.793,0,78.923,0c-1.36,0-2.693,0.027-4.025,0.109c-1.333,0.054-2.639,0.163-3.944,0.299
		c-1.034,0.109-2.067,0.218-3.073,0.381c-0.898,0.109-1.795,0.245-2.693,0.435c-0.435,0.054-0.843,0.136-1.251,0.218
		c-0.816,0.136-1.605,0.299-2.394,0.517c-0.353,0.054-0.68,0.136-1.006,0.217c-0.707,0.163-1.414,0.327-2.122,0.544
		c-0.898,0.218-1.795,0.49-2.693,0.762c-0.163,0.054-0.299,0.081-0.435,0.136c-0.843,0.272-1.714,0.544-2.53,0.843
		c-0.489,0.163-0.925,0.326-1.387,0.49c-0.571,0.218-1.142,0.435-1.713,0.68c-0.68,0.245-1.36,0.544-2.04,0.843
		c-5.494,2.366-10.662,5.358-15.422,8.867c-0.49,0.354-0.979,0.734-1.442,1.088c-0.462,0.354-0.925,0.734-1.387,1.115
		c-0.653,0.49-1.279,1.033-1.877,1.55c-0.136,0.109-0.245,0.218-0.381,0.326c-0.816,0.734-1.632,1.442-2.421,2.203
		c-1.659,1.578-3.237,3.209-4.76,4.923c-0.761,0.87-1.523,1.741-2.23,2.638c-2.176,2.666-4.161,5.467-5.984,8.404
		c-1.197,1.985-2.339,3.998-3.373,6.065c-0.462,0.952-0.925,1.904-1.36,2.856C6.9,46.674,6.818,46.81,6.764,46.973
		c-0.898,2.067-1.741,4.189-2.475,6.337c-0.381,1.088-0.734,2.203-1.061,3.345C2.221,60.028,1.46,63.51,0.916,67.073
		c0,0.054-0.027,0.109-0.027,0.163c-0.055,0.326-0.081,0.653-0.136,0.979c-0.082,0.49-0.136,0.952-0.191,1.414
		c-0.027,0.082-0.027,0.163-0.027,0.272c-0.054,0.517-0.109,1.006-0.163,1.496C0.318,71.751,0.29,72.132,0.29,72.54
		c-0.082,0.517-0.109,1.033-0.136,1.577c-0.027,0.082-0.027,0.136,0,0.218c-0.027,0.163-0.027,0.326-0.027,0.49
		c-0.027,0.354-0.054,0.68-0.054,1.061c-0.136,3.046-0.082,6.12,0.163,9.248c0.299,3.862,0.87,7.616,1.714,11.315
		c0.707,3.128,1.605,6.201,2.693,9.166l0.027,0.027c1.55,4.324,3.482,8.486,5.766,12.43c0,0,0,0,0.027,0.027
		c3.4,5.929,7.561,11.396,12.348,16.211c0.789,0.816,1.605,1.605,2.448,2.366c1.659,1.578,3.373,3.046,5.14,4.433c0,0,0,0,0.027,0
		c4.461,3.536,9.302,6.555,14.47,9.03c3.1,1.496,6.283,2.802,9.601,3.862c1.088,0.354,2.203,0.68,3.318,1.006
		c2.23,0.626,4.515,1.17,6.827,1.578c2.312,0.408,4.678,0.734,7.044,0.952c1.741,0.136,3.427,0.245,5.113,0.272
		c1.36,0.054,3.182,0.19,5.385,0.381c3.345,0.326,7.534,0.843,12.185,1.686c0.082,0,0.163,0,0.245,0.027
		c9.438,1.469,18.387,4.379,26.628,8.513c5.902,2.937,11.424,6.5,16.51,10.635c0.517,0.381,1.007,0.789,1.496,1.251
		c1.088,0.897,2.149,1.822,3.182,2.774l0.299,0.299c0.217,0.19,0.435,0.381,0.653,0.598c0.816,0.816,1.659,1.632,2.448,2.448v0.027
		c0.979,0.979,1.931,1.986,2.883,3.019c0.898,1.006,1.795,2.013,2.611,3.046c1.714,2.067,3.291,4.188,4.733,6.365
		c0.082,0.109,0.163,0.245,0.245,0.381c0.707,1.034,1.36,2.067,1.985,3.155c0.626,1.006,1.224,2.04,1.768,3.073
		c0.19,0.299,0.354,0.626,0.49,0.925c0.217,0.326,0.38,0.653,0.544,0.979c0.354,0.707,0.707,1.387,1.034,2.094
		c0.571,1.142,1.088,2.312,1.577,3.481c0.082,0.19,0.163,0.381,0.218,0.544c0.462,1.033,0.87,2.067,1.278,3.101
		c0.544,1.523,1.06,3.019,1.523,4.542c0.789,2.394,1.441,4.842,1.985,7.317c1.387,6.066,2.148,12.321,2.285,18.631
		c0.027,0.462,0.027,0.925,0.027,1.387v1.142c0,0.109,0.027,0.218,0.027,0.299c0,0.082-0.027,0.19-0.027,0.299
		c0,0.843,0,1.686-0.027,2.53c-0.136,6.31-0.897,12.566-2.285,18.631c-0.544,2.475-1.197,4.923-1.985,7.317
		c-0.463,1.523-0.979,3.019-1.523,4.542c-0.408,1.034-0.816,2.067-1.278,3.101c-0.054,0.163-0.136,0.354-0.218,0.544
		c-0.489,1.17-1.006,2.339-1.577,3.481c-0.326,0.707-0.68,1.387-1.034,2.094c-0.163,0.326-0.326,0.653-0.544,0.979
		c-0.136,0.299-0.299,0.625-0.49,0.925c-0.544,1.034-1.142,2.067-1.768,3.073c-0.626,1.088-1.278,2.121-1.985,3.155
		c-0.082,0.136-0.163,0.272-0.245,0.381c-1.441,2.176-3.019,4.297-4.733,6.365c-0.816,1.033-1.713,2.04-2.611,3.046
		c-0.952,1.034-1.904,2.04-2.883,3.019v0.027c-0.217,0.245-0.462,0.462-0.734,0.707c-0.055,0.082-0.136,0.163-0.217,0.245
		l-1.496,1.496c-0.218,0.218-0.435,0.408-0.653,0.598l-0.299,0.299c-1.034,0.952-2.094,1.877-3.182,2.774
		c-0.489,0.463-0.979,0.87-1.496,1.251c-5.086,4.134-10.607,7.697-16.51,10.635c-8.241,4.134-17.19,7.044-26.628,8.513
		c-0.082,0.027-0.163,0.027-0.245,0.027c-3.291,0.599-6.337,1.034-9.03,1.36c-0.163,0.027-0.326,0.027-0.489,0.054
		c-0.952,0.109-1.822,0.19-2.665,0.272c-1.985,0.163-3.672,0.299-4.978,0.354h-0.027c-0.136,0.027-0.244,0.027-0.38,0.027h-0.163
		c-0.217,0-0.462,0.027-0.707,0.054c-0.245,0-0.544,0-0.816,0.027c-1.142,0.027-2.257,0.109-3.427,0.19
		c-0.707,0.054-1.414,0.163-2.122,0.245c-0.707,0.082-1.387,0.19-2.094,0.272c-0.136,0.027-0.245,0.054-0.381,0.054h-0.082
		c-0.789,0.109-1.577,0.245-2.366,0.381c-0.381,0.081-0.789,0.136-1.17,0.245c-1.686,0.299-3.345,0.707-4.977,1.17
		c-0.218,0.027-0.463,0.109-0.68,0.163c-0.871,0.245-1.741,0.517-2.584,0.789c-0.217,0.054-0.435,0.136-0.68,0.218
		c-0.435,0.136-0.87,0.299-1.306,0.435c-0.408,0.136-0.816,0.272-1.197,0.435c-0.217,0.082-0.462,0.163-0.68,0.245
		c-0.244,0.082-0.489,0.19-0.734,0.272c-0.272,0.109-0.544,0.218-0.843,0.354c-0.463,0.163-0.925,0.381-1.387,0.571
		c-0.626,0.245-1.279,0.517-1.904,0.843c-0.435,0.218-0.925,0.408-1.387,0.599c-0.897,0.435-1.795,0.87-2.693,1.387
		c-0.625,0.327-1.224,0.653-1.85,0.979c-0.217,0.109-0.435,0.218-0.625,0.381c-0.544,0.272-1.034,0.571-1.55,0.898
		c-0.517,0.326-1.061,0.626-1.577,0.979c-0.843,0.517-1.687,1.088-2.502,1.659c-0.245,0.163-0.517,0.326-0.734,0.517
		c-0.217,0.136-0.408,0.272-0.625,0.408c-0.326,0.19-0.626,0.435-0.925,0.653c-0.435,0.326-0.871,0.653-1.279,0.979
		c-0.789,0.598-1.577,1.224-2.339,1.877c-0.326,0.272-0.626,0.544-0.925,0.789c-0.626,0.517-1.251,1.061-1.85,1.632
		c-0.326,0.299-0.626,0.598-0.952,0.898c-0.49,0.462-0.952,1.006-1.441,1.469c-0.136,0.163-0.299,0.299-0.436,0.435
		c-0.244,0.245-0.489,0.517-0.734,0.789c-0.707,0.734-1.469,1.442-2.149,2.23c-0.381,0.435-0.761,0.87-1.142,1.305
		c-0.408,0.435-0.762,0.87-1.088,1.333c-0.408,0.49-0.762,0.979-1.142,1.496c-0.272,0.354-0.571,0.734-0.843,1.088
		c-0.762,1.034-1.496,2.067-2.203,3.128c-0.218,0.326-0.435,0.653-0.653,0.979c-0.381,0.571-0.789,1.115-1.142,1.714
		c-0.435,0.707-0.843,1.442-1.251,2.149c-0.082,0.054-0.109,0.082-0.082,0.136c-0.354,0.625-0.707,1.251-1.061,1.877
		c-0.353,0.625-0.707,1.251-0.979,1.904c-0.272,0.571-0.544,1.142-0.816,1.714c-0.136,0.272-0.245,0.517-0.381,0.789
		c-0.054,0.109-0.109,0.217-0.163,0.354C6.9,388.701,6.818,388.837,6.764,389c-0.653,1.496-1.251,3.046-1.85,4.597
		c-0.054,0.218-0.163,0.408-0.245,0.626l-0.027,0.027c-0.109,0.245-0.191,0.49-0.272,0.762c-0.19,0.598-0.408,1.17-0.599,1.768
		c-0.217,0.68-0.435,1.333-0.625,1.986c-0.054,0.136-0.082,0.245-0.109,0.354c-0.381,1.414-0.762,2.856-1.088,4.297
		c-0.517,2.312-0.898,4.651-1.224,7.017c-0.054,0.408-0.109,0.816-0.163,1.224c-0.027,0.082-0.027,0.163-0.027,0.272
		c-0.054,0.517-0.109,1.006-0.163,1.496c-0.027,0.054-0.027,0.109-0.027,0.163v0.163c-0.027,0.326-0.081,0.653-0.109,0.979
		c-0.027,0.354-0.027,0.68-0.054,1.034c0,0.136-0.027,0.245-0.027,0.381c-0.027,0.054-0.027,0.054-0.027,0.082
		c0,0.027,0,0.027,0,0.054s0,0.027,0.027,0.082c-0.027,0.163-0.027,0.326-0.027,0.49c-0.027,0.354-0.054,0.68-0.054,1.061v0.218
		c0,0.027,0,0.027,0,0.054c-0.027,0.925-0.054,1.85-0.027,2.747c-0.027,0.925,0,1.849,0.027,2.747c0,0.027,0,0.027,0,0.054v0.245
		c0,0.381,0.027,0.707,0.054,1.061c0,0.163,0,0.326,0.027,0.49c-0.027,0.027-0.027,0.054-0.027,0.082v0.082
		c0,0.027,0,0.027,0.027,0.054c0,0.136,0.027,0.245,0.027,0.354c0.027,0.354,0.027,0.707,0.054,1.061
		c0.027,0.218,0.054,0.408,0.054,0.626c0.027,0.109,0.054,0.245,0.054,0.354v0.163c0,0.054,0,0.109,0.027,0.163
		c0.054,0.49,0.109,0.979,0.163,1.496c0,0.109,0,0.19,0.027,0.272c0.054,0.408,0.109,0.816,0.163,1.224
		c0.326,2.366,0.707,4.706,1.224,7.017c0.136,0.625,0.299,1.224,0.435,1.85c0.054,0.218,0.109,0.435,0.163,0.653
		c0.299,1.17,0.653,2.339,1.006,3.509c0.027,0.109,0.082,0.245,0.136,0.354c0.217,0.68,0.435,1.333,0.68,2.013
		c0.081,0.272,0.163,0.517,0.272,0.789l0.027,0.027c0.082,0.19,0.191,0.408,0.245,0.625c0.599,1.523,1.17,3.073,1.822,4.542
		c0.109,0.299,0.245,0.598,0.408,0.87c0.136,0.272,0.245,0.517,0.381,0.789c0.272,0.571,0.544,1.142,0.816,1.714
		c1.17,2.393,2.475,4.705,3.944,6.936c0.19,0.272,0.38,0.544,0.571,0.843c0.217,0.326,0.435,0.653,0.653,0.979
		c0.707,1.061,1.442,2.094,2.203,3.101c0.272,0.381,0.571,0.761,0.843,1.115c0.354,0.463,0.707,0.979,1.088,1.442
		c0.789,1.006,1.605,1.958,2.502,2.91c0.598,0.68,1.305,1.333,1.931,2.013c0.245,0.245,0.49,0.517,0.734,0.789
		c0.136,0.136,0.299,0.272,0.436,0.408c0.489,0.49,0.952,1.006,1.441,1.496c0.082,0.082,0.163,0.136,0.245,0.218
		c0.707,0.68,1.442,1.333,2.176,1.985c0.136,0.109,0.245,0.218,0.381,0.326c1.224,1.033,2.475,2.067,3.753,3.046
		c0.299,0.218,0.625,0.462,0.952,0.707c0.381,0.272,0.789,0.544,1.17,0.816c0.082,0.082,0.136,0.136,0.217,0.136
		c0.217,0.163,0.49,0.354,0.734,0.517c0.68,0.462,1.36,0.925,2.067,1.387c1.414,0.925,2.856,1.768,4.325,2.557
		c0.489,0.299,0.979,0.571,1.469,0.816c0.082,0.054,0.163,0.109,0.245,0.136c0.571,0.299,1.143,0.598,1.741,0.897
		c0.245,0.109,0.489,0.245,0.734,0.381c0.163,0.082,0.326,0.163,0.517,0.218c0.354,0.163,0.734,0.326,1.088,0.49
		c0.381,0.163,0.734,0.354,1.115,0.517c0.272,0.109,0.544,0.218,0.789,0.326c0.272,0.109,0.517,0.218,0.761,0.299
		c0.082,0.054,0.163,0.082,0.245,0.109c0.408,0.19,0.816,0.354,1.224,0.49c0.245,0.109,0.49,0.218,0.734,0.299
		c0.463,0.163,0.898,0.326,1.387,0.49c0.109,0.054,0.218,0.054,0.327,0.109c0.054,0.027,0.109,0.027,0.163,0.054
		c0.19,0.054,0.408,0.136,0.599,0.218c0.217,0.109,0.435,0.163,0.653,0.245c1.088,0.354,2.203,0.68,3.318,1.006
		c2.23,0.626,4.515,1.17,6.827,1.578c2.312,0.408,4.678,0.734,7.044,0.952c0.68,0.054,1.333,0.054,2.013,0.109
		c0.408,0.027,0.789,0.054,1.197,0.082c0.353,0.027,0.707,0.027,1.033,0.027h0.027c0.136,0,0.272,0,0.408,0.027
		c0.163,0,0.299,0.027,0.435,0.027c0.326,0,0.653,0.027,1.034,0.054h0.081c1.17,0.082,2.611,0.19,4.27,0.326
		c0.245,0.027,0.489,0.054,0.734,0.082c0.38,0.054,0.789,0.082,1.197,0.109c2.965,0.326,6.446,0.816,10.254,1.496
		c0.082,0,0.163,0,0.245,0.027c9.438,1.469,18.387,4.379,26.628,8.513c5.902,2.938,11.424,6.5,16.51,10.635
		c0.517,0.381,1.007,0.789,1.496,1.251c1.088,0.897,2.149,1.822,3.182,2.774l0.299,0.299c0.217,0.19,0.435,0.381,0.653,0.598
		l1.714,1.714c0.245,0.245,0.49,0.49,0.734,0.734v0.027c0.979,0.979,1.931,1.986,2.883,3.019c0.898,1.006,1.795,2.013,2.611,3.046
		c1.714,2.067,3.291,4.188,4.733,6.364c0.082,0.109,0.163,0.245,0.245,0.381c0.707,1.034,1.36,2.067,1.985,3.155
		c0.626,1.006,1.224,2.04,1.768,3.073c0.19,0.299,0.354,0.626,0.49,0.925c0.217,0.326,0.38,0.653,0.544,0.979
		c0.354,0.707,0.707,1.387,1.034,2.094c0.571,1.142,1.088,2.312,1.577,3.481c0.082,0.19,0.163,0.381,0.218,0.544
		c0.462,1.034,0.87,2.067,1.278,3.101c0.544,1.523,1.06,3.019,1.523,4.542c0.789,2.394,1.441,4.841,1.985,7.316
		c1.387,6.066,2.148,12.321,2.285,18.631c0.027,0.843,0.027,1.686,0.027,2.529c0,0.109,0.027,0.218,0.027,0.299
		c0,0.082-0.027,0.19-0.027,0.299v1.115c0,0.462,0,0.952-0.027,1.414c-0.136,6.31-0.897,12.566-2.285,18.631
		c-0.544,2.475-1.197,4.923-1.985,7.316c-0.463,1.523-0.979,3.019-1.523,4.542c-0.408,1.034-0.816,2.067-1.278,3.101
		c-0.054,0.163-0.136,0.354-0.218,0.544c-0.489,1.17-1.006,2.339-1.577,3.481c-0.326,0.707-0.68,1.387-1.034,2.094
		c-0.163,0.326-0.326,0.653-0.544,0.979c-0.136,0.299-0.299,0.625-0.49,0.925c-0.544,1.034-1.142,2.067-1.768,3.073
		c-0.626,1.088-1.278,2.121-1.985,3.155c-0.082,0.136-0.163,0.272-0.245,0.381c-1.441,2.176-3.019,4.297-4.733,6.364
		c-0.816,1.034-1.713,2.04-2.611,3.046c-0.952,1.034-1.904,2.04-2.883,3.019v0.027c-0.789,0.816-1.632,1.632-2.448,2.448
		c-0.218,0.218-0.435,0.408-0.653,0.599l-0.299,0.299c-1.034,0.952-2.094,1.877-3.182,2.774c-0.489,0.463-0.979,0.87-1.496,1.251
		c-5.086,4.134-10.607,7.697-16.51,10.635c-8.241,4.134-17.19,7.044-26.628,8.513c-0.082,0.027-0.163,0.027-0.245,0.027
		c-4.651,0.843-8.84,1.36-12.185,1.686c-2.203,0.19-4.025,0.326-5.385,0.381c-1.686,0.027-3.373,0.136-5.113,0.272
		c-2.366,0.217-4.733,0.544-7.044,0.952c-2.312,0.408-4.597,0.952-6.827,1.578c-1.115,0.326-2.23,0.653-3.318,1.006
		c-3.319,1.061-6.501,2.366-9.601,3.862c-5.168,2.475-10.009,5.494-14.47,9.03c-0.027,0-0.027,0-0.027,0
		c-1.768,1.387-3.482,2.856-5.14,4.433c-0.843,0.761-1.659,1.55-2.448,2.366c-4.787,4.814-8.948,10.281-12.348,16.211
		c-0.027,0.027-0.027,0.027-0.027,0.027c-2.285,3.944-4.216,8.105-5.766,12.43l-0.027,0.027c-1.088,2.965-1.985,6.038-2.693,9.166
		c-0.843,3.699-1.414,7.453-1.714,11.315c-0.245,3.128-0.299,6.201-0.163,9.248c0,0.381,0.027,0.707,0.054,1.061
		c0,0.163,0,0.326,0.027,0.49c-0.027,0.082-0.027,0.136,0,0.218c0.027,0.544,0.054,1.061,0.136,1.578
		c0,0.408,0.027,0.789,0.081,1.142c0.054,0.49,0.109,0.979,0.163,1.496c0,0.109,0,0.19,0.027,0.272
		c0.054,0.463,0.109,0.925,0.191,1.414c0.054,0.326,0.081,0.653,0.136,0.979c0,0.054,0.027,0.109,0.027,0.163
		c0.544,3.563,1.305,7.045,2.312,10.417c0.326,1.142,0.68,2.258,1.061,3.345c0.734,2.149,1.577,4.27,2.475,6.337
		c0.054,0.163,0.136,0.299,0.217,0.462c0.435,0.952,0.897,1.904,1.36,2.856c1.034,2.067,2.176,4.08,3.373,6.065
		c1.822,2.938,3.808,5.739,5.984,8.404c0.707,0.898,1.469,1.768,2.23,2.638c1.523,1.714,3.101,3.345,4.76,4.923
		c0.789,0.762,1.605,1.469,2.421,2.203c0.136,0.109,0.245,0.218,0.381,0.326c0.598,0.517,1.224,1.061,1.877,1.55
		c0.462,0.381,0.924,0.762,1.387,1.115c0.463,0.354,0.952,0.734,1.442,1.088c4.76,3.509,9.928,6.5,15.422,8.867
		c0.68,0.299,1.36,0.598,2.04,0.843c0.571,0.245,1.142,0.462,1.713,0.68c0.463,0.163,0.898,0.326,1.387,0.49
		c0.816,0.299,1.687,0.571,2.53,0.843c0.136,0.054,0.272,0.082,0.435,0.136c0.897,0.272,1.795,0.544,2.693,0.762
		c0.707,0.218,1.414,0.381,2.122,0.544c0.326,0.082,0.653,0.163,1.006,0.218c0.789,0.218,1.578,0.381,2.394,0.517
		c0.408,0.082,0.816,0.163,1.251,0.218c0.898,0.19,1.795,0.326,2.693,0.435c1.006,0.163,2.04,0.272,3.073,0.381
		c1.306,0.136,2.611,0.245,3.944,0.299c1.333,0.082,2.665,0.109,4.025,0.109c0.87,0,1.768-0.027,2.665-0.054
		C82.377,841.808,83.166,841.754,83.954,841.727z"/>
</g>
</svg>
