<?xml version="1.0" encoding="utf-8"?>
<!-- Generator: Adobe Illustrator 25.2.0, SVG Export Plug-In . SVG Version: 6.00 Build 0)  -->
<svg version="1.1" id="Layer_1" xmlns="http://www.w3.org/2000/svg" xmlns:xlink="http://www.w3.org/1999/xlink" x="0px" y="0px"
	 viewBox="0 0 1080 421.8" style="enable-background:new 0 0 1080 421.8;" xml:space="preserve">
<style type="text/css">
	.st0{fill:#4C6793;}
	.st1{fill:#333333;}
</style>
<path class="st0" d="M117.6,217.4c-2.4,0.4-4.7,0.7-6.8,1C113,217.9,115.3,217.6,117.6,217.4z"/>
<path class="st1" d="M969.7,218.5h-0.1c-2.1-0.3-4.4-0.6-6.8-1c-1.1-0.2-2.3-0.4-3.5-0.6H959c-12.1-1.9-23.6-5.6-34.1-10.9
	c-10.3-5.2-19.8-11.8-28.1-19.7l-3.4-3.4c-0.9-0.9-1.9-1.9-2.7-2.9c-0.1,0-0.1-0.1-0.1-0.1c-0.3-0.3-0.6-0.6-0.9-0.9
	c-0.4-0.4-0.7-0.8-1-1.1c-0.2-0.3-0.5-0.6-0.8-0.9c-5.3-6.5-9.9-13.6-13.6-21.2c-5.3-10.6-9-22.1-10.9-34.2v-0.3
	c-0.1-0.4-0.1-0.8-0.2-1.2c0-0.1,0-0.1,0-0.2c0-0.2-0.1-0.4-0.1-0.6C855.3,69.3,812,31,759.8,31c-51.3,0-94,37-102.8,85.7
	c0,0,0,0,0,0c-0.4,2.2-0.7,4.4-1,6.6c-0.1,0.3-0.1,0.6-0.2,1c-2,11.2-5.5,21.8-10.5,31.6c-3.8,7.6-8.3,14.6-13.6,21.2
	c-0.2,0.3-0.5,0.6-0.8,0.9c-0.3,0.4-0.7,0.8-1,1.1c-0.3,0.3-0.6,0.6-0.9,0.9c0,0,0,0.1-0.1,0.1c-0.9,1-1.8,1.9-2.7,2.9
	c-0.4,0.4-0.8,0.8-1.2,1.2l-1.9,1.9c-0.4,0.4-0.8,0.8-1.2,1.2c-1.2,1.3-2.5,2.5-3.9,3.7c-1.3,1.1-2.6,2.3-3.9,3.4
	c-2.6,2.2-5.4,4.2-8.2,6.1c-0.1,0.1-0.3,0.2-0.5,0.3c-1.3,0.9-2.6,1.8-4,2.6c-0.8,0.5-1.5,0.9-2.3,1.4c-0.5,0.3-1,0.6-1.6,0.9
	c-0.4,0.2-0.8,0.4-1.2,0.6c-0.4,0.3-0.8,0.5-1.2,0.7c-0.9,0.5-1.8,0.9-2.7,1.3c-1.5,0.7-3,1.4-4.5,2c-0.2,0.1-0.5,0.2-0.7,0.3
	c-1.3,0.6-2.6,1.1-4,1.6c-2,0.7-3.9,1.4-5.8,2c-3.1,1-6.2,1.9-9.4,2.5c-7.8,1.8-15.8,2.8-23.9,2.9h-8.4c-8.1-0.1-16.1-1.1-23.9-2.9
	c-3.2-0.6-6.3-1.5-9.4-2.5c-1.9-0.6-3.8-1.3-5.8-2c-1.4-0.5-2.7-1-4-1.6c-0.2-0.1-0.5-0.2-0.7-0.3c-1.5-0.6-3-1.3-4.5-2
	c-0.9-0.4-1.8-0.8-2.7-1.3c-0.4-0.2-0.8-0.4-1.2-0.7c-0.4-0.2-0.8-0.4-1.2-0.6c-0.5-0.3-1.1-0.6-1.6-0.9c-0.8-0.5-1.5-0.9-2.3-1.4
	c-1.4-0.8-2.7-1.7-4-2.6c-0.2-0.1-0.4-0.2-0.5-0.3c-2.8-1.9-5.6-3.9-8.2-6.1c-1.3-1.1-2.6-2.3-3.9-3.4c-1.4-1.2-2.7-2.4-3.9-3.7
	c-0.4-0.4-0.8-0.8-1.2-1.2l-1.9-1.9c-0.4-0.4-0.8-0.8-1.2-1.2c-0.9-1-1.8-1.9-2.7-2.9c-0.1,0-0.1-0.1-0.1-0.1
	c-0.3-0.3-0.6-0.6-0.9-0.9c-0.3-0.3-0.7-0.7-1-1.1c-0.3-0.3-0.6-0.6-0.8-0.9c-5.3-6.6-9.8-13.6-13.6-21.2
	c-5.3-10.6-9-22.1-10.9-34.2v-0.3c-0.1-0.3-0.1-0.6-0.2-0.9c-0.1-0.7-0.2-1.3-0.3-2C415.1,68.9,372,31,320.1,31
	c-51.4,0-94.1,37.1-102.8,85.9c-0.4,2.1-0.7,4.3-0.9,6.4c-2,11.5-5.6,22.4-10.6,32.5c-3.7,7.6-8.3,14.7-13.6,21.2
	c-0.3,0.3-0.6,0.6-0.8,0.9c-0.3,0.3-0.6,0.7-1,1.1c-0.3,0.3-0.6,0.6-0.9,0.9c0,0,0,0.1-0.1,0.1c-0.8,1-1.8,2-2.7,2.9l-3.4,3.4
	c-8.3,7.9-17.8,14.5-28.1,19.7c-10.5,5.3-22,9-34.1,10.9h-0.3c-1.2,0.2-2.4,0.4-3.5,0.6c-2.4,0.4-4.7,0.7-6.8,1h-0.1
	c-36.8,6.9-64.7,39.2-64.7,78.1c0,43.8,35.5,79.4,79.4,79.4c39.6,0,72.4-29,78.4-66.9c0.2-0.8,0.3-1.6,0.4-2.4v-0.1
	c0.2-1.8,0.5-3.7,0.9-5.6v-0.3c1.9-12.2,5.6-23.6,10.9-34.2c3.7-7.6,8.3-14.7,13.6-21.2c0.5-0.6,1-1.3,1.6-1.9
	c1.2-1.4,2.4-2.8,3.6-4.1l0.4-0.4c0.3-0.2,0.5-0.5,0.8-0.8c1-1,2-2.1,3.1-3.1c1.3-1.3,2.6-2.5,3.9-3.7c1.3-1.2,2.6-2.3,3.9-3.4
	c2.7-2.2,5.4-4.2,8.2-6.1c0.1-0.1,0.3-0.2,0.5-0.3c1-0.7,1.9-1.3,2.9-1.9c0.3-0.2,0.7-0.4,1.1-0.6c1.3-0.8,2.7-1.6,4-2.3
	c0.4-0.2,0.8-0.4,1.2-0.6c0.5-0.3,0.9-0.5,1.3-0.7c0.9-0.4,1.8-0.9,2.7-1.3c1.5-0.7,3-1.4,4.5-2c0.2-0.1,0.5-0.2,0.7-0.3
	c1.4-0.5,2.7-1.1,4-1.6c1.9-0.6,3.8-1.3,5.8-1.9c3.1-1.1,6.2-1.9,9.4-2.6c7.8-1.8,15.8-2.7,23.9-2.9h7.3c8.1,0.1,16.1,1.1,23.9,2.9
	c3.2,0.7,6.3,1.6,9.4,2.6c1.9,0.5,3.8,1.2,5.8,1.9c1.4,0.5,2.7,1,4,1.6c0.2,0.1,0.5,0.2,0.7,0.3c1.5,0.6,3,1.3,4.5,2
	c0.9,0.4,1.8,0.9,2.7,1.3c0.5,0.2,0.9,0.4,1.3,0.7c0.4,0.2,0.8,0.4,1.2,0.6c1.3,0.7,2.6,1.5,3.9,2.3c0.3,0.2,0.6,0.3,0.9,0.5
	c1.1,0.6,2.1,1.3,3.1,2c0.2,0.1,0.4,0.2,0.5,0.3c2.8,1.9,5.5,3.9,8.2,6.1c1.3,1.1,2.6,2.3,3.9,3.4c1.4,1.2,2.6,2.4,3.9,3.7
	c0.3,0.2,0.6,0.5,0.9,0.9c0.1,0.1,0.2,0.2,0.3,0.3l1.9,1.9c0.3,0.2,0.6,0.5,0.8,0.8l0.4,0.4c1.3,1.3,2.5,2.7,3.6,4.1
	c0.6,0.6,1.1,1.2,1.6,1.9c5.3,6.5,9.8,13.6,13.6,21.2c5.3,10.6,9,22.1,10.9,34.2v0.3c0.1,0.4,0.1,0.8,0.2,1.2c0,0,0,0,0,0.1
	c0.3,2.8,0.7,5.5,1.2,8.3c0,0,0,0,0,0c9.2,48.3,51.7,84.8,102.7,84.8s93.5-36.5,102.7-84.8c0,0,0,0,0,0c0.5-2.7,0.9-5.5,1.2-8.3
	c0,0,0,0,0-0.1c0.1-0.4,0.1-0.8,0.2-1.2v-0.3c1.9-12.1,5.6-23.6,10.9-34.2c3.8-7.6,8.3-14.7,13.6-21.2c0.5-0.7,1-1.3,1.6-1.9
	c1.1-1.4,2.3-2.8,3.6-4.1l0.4-0.4c0.2-0.3,0.5-0.6,0.8-0.8l1.9-1.9c0.1-0.1,0.2-0.2,0.3-0.3c0.3-0.4,0.6-0.7,0.9-0.9
	c1.3-1.3,2.5-2.5,3.9-3.7c1.3-1.1,2.6-2.3,3.9-3.4c2.7-2.2,5.4-4.2,8.2-6.1c0.1-0.1,0.3-0.2,0.5-0.3c1-0.7,2-1.3,3.1-2c0,0,0,0,0,0
	c0.3-0.2,0.6-0.4,0.9-0.5c1.3-0.8,2.6-1.6,3.9-2.3c0.4-0.2,0.8-0.4,1.2-0.6c0.4-0.3,0.8-0.5,1.3-0.7c0.9-0.4,1.8-0.9,2.7-1.3
	c1.5-0.7,3-1.4,4.5-2c0.2-0.1,0.5-0.2,0.7-0.3c1.3-0.6,2.6-1.1,4-1.6c2-0.7,3.9-1.4,5.8-1.9c3.1-1,6.2-1.9,9.4-2.6
	c7.8-1.8,15.8-2.8,23.9-2.9h7.3c8.1,0.2,16.1,1.1,23.9,2.9c3.2,0.7,6.3,1.5,9.4,2.6c2,0.6,3.9,1.3,5.8,1.9c1.3,0.5,2.6,1.1,4,1.6
	c0.2,0.1,0.5,0.2,0.7,0.3c1.5,0.6,3,1.3,4.5,2c0.9,0.4,1.8,0.9,2.7,1.3c0.4,0.2,0.8,0.4,1.3,0.7c0.4,0.2,0.8,0.4,1.2,0.6
	c1.3,0.7,2.7,1.5,4,2.3c0.3,0.2,0.7,0.4,1,0.6c0,0,0,0,0,0c1,0.6,2,1.2,3,1.9c0.2,0.1,0.4,0.2,0.5,0.3c2.8,1.9,5.5,3.9,8.2,6.1
	c1.3,1.1,2.6,2.2,3.9,3.4c1.3,1.2,2.6,2.4,3.9,3.7c1.1,1,2.1,2.1,3.1,3.1c0.3,0.3,0.5,0.6,0.8,0.8l0.4,0.4c1.2,1.3,2.4,2.7,3.6,4.1
	c0.6,0.6,1.1,1.3,1.6,1.9c5.3,6.5,9.9,13.6,13.6,21.2c5.3,10.6,9,22,10.9,34.2v0.3c0.4,1.9,0.7,3.8,0.9,5.6v0.1
	c0.1,0.8,0.2,1.6,0.4,2.4c6,37.9,38.8,66.9,78.4,66.9c43.9,0,79.4-35.6,79.4-79.4C1034.4,257.7,1006.5,225.4,969.7,218.5z"/>
</svg>
