<?xml version="1.0" encoding="utf-8"?>
<!-- Generator: Adobe Illustrator 25.2.0, SVG Export Plug-In . SVG Version: 6.00 Build 0)  -->
<svg version="1.1" id="Layer_1" xmlns="http://www.w3.org/2000/svg" xmlns:xlink="http://www.w3.org/1999/xlink" x="0px" y="0px"
	 viewBox="0 0 841.9 328.9" style="enable-background:new 0 0 841.9 328.9;" xml:space="preserve">
<style type="text/css">
	.st0{fill:#DDDEE1;}
</style>
<g>
	<g>
		<circle class="st0" cx="250.2" cy="249.9" r="75.5"/>
		<circle class="st0" cx="420.9" cy="78.9" r="75.5"/>
		<circle class="st0" cx="591.8" cy="249.9" r="75.5"/>
		<circle class="st0" cx="763" cy="78.9" r="75.5"/>
		<circle class="st0" cx="78.9" cy="78.9" r="75.5"/>
		<path class="st0" d="M841.9,249.9c0,1.4,0,2.7-0.1,4s-0.2,2.6-0.3,3.9c-0.1,1-0.2,2.1-0.4,3.1c-0.1,0.9-0.2,1.8-0.4,2.7
			c-0.1,0.4-0.1,0.8-0.2,1.3c-0.1,0.8-0.3,1.6-0.5,2.4c-0.1,0.4-0.1,0.7-0.2,1c-0.2,0.7-0.3,1.4-0.5,2.1c-0.2,0.9-0.5,1.8-0.8,2.7
			c-0.1,0.2-0.1,0.3-0.1,0.4c-0.3,0.8-0.5,1.7-0.8,2.5c-0.2,0.5-0.3,0.9-0.5,1.4c-0.2,0.6-0.4,1.1-0.7,1.7c-0.2,0.7-0.5,1.4-0.8,2
			c-2.4,5.5-5.4,10.7-8.9,15.4c-0.4,0.5-0.7,1-1.1,1.4c-0.4,0.5-0.7,0.9-1.1,1.4c-0.5,0.7-1,1.3-1.5,1.9c-0.1,0.1-0.2,0.2-0.3,0.4
			c-0.7,0.8-1.4,1.6-2.2,2.4c-1.6,1.7-3.2,3.2-4.9,4.8c-0.9,0.8-1.7,1.5-2.6,2.2c-2.7,2.2-5.5,4.2-8.4,6c-2,1.2-4,2.3-6.1,3.4
			c-1,0.5-1.9,0.9-2.9,1.4c-0.2,0.1-0.3,0.2-0.5,0.2c-2.1,0.9-4.2,1.7-6.3,2.5c-1.1,0.4-2.2,0.7-3.3,1.1c-3.4,1-6.9,1.8-10.4,2.3
			c-0.1,0-0.1,0-0.2,0c-0.3,0.1-0.7,0.1-1,0.1c-0.5,0.1-1,0.1-1.4,0.2c-0.1,0-0.2,0-0.3,0c-0.5,0.1-1,0.1-1.5,0.2
			c-0.4,0.1-0.7,0.1-1.1,0.1c-0.5,0.1-1,0.1-1.6,0.1c-0.1,0-0.1,0-0.2,0c-0.2,0-0.3,0-0.5,0c-0.4,0-0.7,0.1-1.1,0.1
			c-3,0.1-6.1,0.1-9.2-0.2c-3.9-0.3-7.6-0.9-11.3-1.7c-3.1-0.7-6.2-1.6-9.2-2.7l0,0c-4.3-1.6-8.5-3.5-12.4-5.8l0,0
			c-5.9-3.4-11.4-7.6-16.2-12.3c-0.8-0.8-1.6-1.6-2.4-2.4c-1.6-1.7-3-3.4-4.4-5.1l0,0c-3.5-4.5-6.6-9.3-9-14.5
			c-1.5-3.1-2.8-6.3-3.9-9.6c-0.4-1.1-0.7-2.2-1-3.3c-0.6-2.2-1.2-4.5-1.6-6.8c-0.4-2.3-0.7-4.7-1-7c-0.1-1.7-0.2-3.4-0.3-5.1
			c-0.1-1.4-0.2-3.2-0.4-5.4c-0.3-3.3-0.8-7.5-1.7-12.2c0-0.1,0-0.2,0-0.2c-1.5-9.4-4.4-18.4-8.5-26.6c-2.9-5.9-6.5-11.4-10.6-16.5
			c-0.4-0.5-0.8-1-1.3-1.5c-0.9-1.1-1.8-2.1-2.8-3.2l-0.3-0.3c-0.2-0.2-0.4-0.4-0.6-0.7c-0.8-0.8-1.6-1.7-2.4-2.4l0,0
			c-1-1-2-1.9-3-2.9c-1-0.9-2-1.8-3-2.6c-2.1-1.7-4.2-3.3-6.4-4.7c-0.1-0.1-0.2-0.2-0.4-0.2c-1-0.7-2.1-1.4-3.2-2
			c-1-0.6-2-1.2-3.1-1.8c-0.3-0.2-0.6-0.4-0.9-0.5c-0.3-0.2-0.7-0.4-1-0.5c-0.7-0.4-1.4-0.7-2.1-1c-1.1-0.6-2.3-1.1-3.5-1.6
			c-0.2-0.1-0.4-0.2-0.5-0.2c-1-0.5-2.1-0.9-3.1-1.3c-1.5-0.5-3-1.1-4.5-1.5c-2.4-0.8-4.8-1.4-7.3-2c-6.1-1.4-12.3-2.1-18.6-2.3
			c-0.5,0-1,0-1.4,0h-1.1c-0.1,0-0.2,0-0.3,0s-0.2,0-0.3,0c-0.8,0-1.7,0-2.5,0c-6.3,0.1-12.6,0.9-18.6,2.3c-2.5,0.5-4.9,1.2-7.3,2
			c-1.5,0.5-3,1-4.5,1.5c-1,0.4-2.1,0.8-3.1,1.3c-0.2,0.1-0.4,0.1-0.5,0.2c-1.2,0.5-2.3,1-3.5,1.6c-0.7,0.3-1.4,0.7-2.1,1
			c-0.3,0.2-0.7,0.3-1,0.5c-0.3,0.1-0.6,0.3-0.9,0.5c-1,0.5-2.1,1.1-3.1,1.8c-1.1,0.6-2.1,1.3-3.2,2c-0.1,0.1-0.3,0.2-0.4,0.2
			c-2.2,1.4-4.3,3-6.4,4.7c-1,0.8-2,1.7-3,2.6c-1,1-2,1.9-3,2.9l0,0c-0.2,0.2-0.5,0.5-0.7,0.7l-1.7,1.7c-0.2,0.2-0.4,0.4-0.6,0.7
			l-0.3,0.3c-1,1-1.9,2.1-2.8,3.2c-0.5,0.5-0.9,1-1.3,1.5c-4.1,5.1-7.7,10.6-10.6,16.5c-4.1,8.2-7,17.2-8.5,26.6c0,0.1,0,0.2,0,0.2
			c-0.7,3.8-1.2,7.3-1.5,10.3c0,0.4-0.1,0.8-0.1,1.2c0,0.2-0.1,0.5-0.1,0.7c-0.1,1.7-0.2,3.1-0.3,4.3v0.1c0,0.4-0.1,0.7-0.1,1
			c0,0.1,0,0.3,0,0.4c0,0.1,0,0.3,0,0.4l0,0c0,0.3,0,0.7,0,1c0,0.4-0.1,0.8-0.1,1.2c-0.1,0.7-0.1,1.3-0.1,2c-0.2,2.4-0.5,4.7-1,7
			c-0.4,2.3-1,4.6-1.6,6.8c-0.3,1.1-0.7,2.2-1,3.3c-0.1,0.2-0.1,0.4-0.2,0.7c-0.1,0.2-0.2,0.4-0.2,0.6c0,0.1,0,0.1-0.1,0.2
			s-0.1,0.2-0.1,0.3c-0.2,0.5-0.3,0.9-0.5,1.4c-0.1,0.2-0.2,0.5-0.3,0.7c-0.1,0.4-0.3,0.8-0.5,1.2c0,0.1-0.1,0.2-0.1,0.2
			c-0.1,0.2-0.2,0.5-0.3,0.8c-0.1,0.2-0.2,0.5-0.3,0.8c-0.2,0.4-0.4,0.7-0.5,1.1c-0.2,0.4-0.3,0.7-0.5,1.1c-0.1,0.2-0.1,0.4-0.2,0.5
			c-0.1,0.2-0.3,0.5-0.4,0.7c-0.3,0.6-0.6,1.2-0.9,1.7c0,0.1-0.1,0.2-0.1,0.2c-0.2,0.5-0.5,1-0.8,1.5c-0.8,1.5-1.6,2.9-2.6,4.3
			c-0.5,0.7-0.9,1.4-1.4,2.1c-0.2,0.2-0.4,0.5-0.5,0.7c0,0.1-0.1,0.1-0.1,0.2c-0.3,0.4-0.5,0.8-0.8,1.2c-0.2,0.3-0.5,0.7-0.7,1
			c-1,1.3-2,2.5-3,3.8c-0.1,0.1-0.2,0.2-0.3,0.4c-0.7,0.7-1.3,1.5-2,2.2c-0.1,0.1-0.1,0.2-0.2,0.2c-0.5,0.5-1,1-1.5,1.4
			c-0.1,0.1-0.3,0.3-0.4,0.4c-0.3,0.2-0.5,0.5-0.8,0.7c-0.7,0.6-1.3,1.3-2,1.9c-1,0.9-1.9,1.7-2.9,2.5c-0.5,0.4-1,0.7-1.4,1.1
			c-0.4,0.3-0.7,0.6-1.1,0.8c-1,0.8-2,1.5-3.1,2.2c-0.3,0.2-0.7,0.4-1,0.7c-0.3,0.2-0.6,0.4-0.8,0.6c-2.2,1.5-4.5,2.8-6.9,3.9
			c-0.6,0.3-1.1,0.5-1.7,0.8c-0.3,0.1-0.5,0.2-0.8,0.4c-0.3,0.2-0.6,0.3-0.9,0.4c-1.5,0.7-3,1.2-4.5,1.8c-0.2,0.1-0.4,0.2-0.6,0.2
			l0,0c-0.3,0.1-0.5,0.2-0.8,0.3c-0.7,0.2-1.3,0.5-2,0.7c-0.1,0.1-0.2,0.1-0.4,0.1c-1.2,0.4-2.3,0.7-3.5,1c-0.2,0.1-0.4,0.1-0.7,0.2
			c-0.6,0.1-1.2,0.3-1.9,0.4c-2.3,0.5-4.7,0.9-7,1.2c-0.4,0.1-0.8,0.1-1.2,0.2c-0.1,0-0.2,0-0.3,0c-0.5,0.1-1,0.1-1.5,0.2
			c-0.1,0-0.1,0-0.2,0h-0.2c-0.1,0-0.2,0-0.4,0.1c-0.2,0-0.4,0-0.6,0.1c-0.4,0-0.7,0-1.1,0.1c-0.1,0-0.2,0-0.4,0c0,0,0,0-0.1,0h-0.1
			H426c-0.2,0-0.3,0-0.5,0c-0.4,0-0.7,0.1-1.1,0.1h-0.2c0,0,0,0-0.1,0c-0.9,0-1.8,0.1-2.7,0c-0.9,0-1.8,0-2.7,0c0,0,0,0-0.1,0h-0.2
			c-0.4,0-0.7,0-1.1-0.1c-0.2,0-0.3,0-0.5,0c-0.1,0-0.1,0-0.1,0s0,0-0.1,0s0,0-0.1,0s-0.2,0-0.4,0c-0.4,0-0.7,0-1-0.1
			c-0.3,0-0.7-0.1-1-0.1h-0.2c-0.1,0-0.1,0-0.2,0c-0.5-0.1-1-0.1-1.5-0.2c-0.1,0-0.2,0-0.3,0c-0.4-0.1-0.8-0.1-1.2-0.2
			c-2.4-0.3-4.7-0.7-7-1.2c-1.4-0.3-2.9-0.7-4.3-1.1c-0.1,0-0.2-0.1-0.4-0.1c-0.7-0.2-1.3-0.4-2-0.6c-0.6-0.2-1.2-0.4-1.8-0.6
			c-0.3-0.1-0.5-0.2-0.8-0.3l0,0c-0.2-0.1-0.4-0.2-0.6-0.2c-1.5-0.6-3.1-1.2-4.6-1.9c-0.2-0.1-0.3-0.1-0.5-0.2
			c-0.1-0.1-0.2-0.1-0.4-0.2c-0.3-0.1-0.5-0.2-0.8-0.4c-0.6-0.3-1.1-0.5-1.7-0.8c-0.7-0.3-1.3-0.6-1.9-1s-1.3-0.7-1.9-1.1
			c-0.1,0-0.1,0-0.1-0.1c-0.7-0.4-1.4-0.8-2.1-1.3c-0.6-0.4-1.1-0.8-1.7-1.1c-0.3-0.2-0.7-0.4-1-0.7c-1.1-0.7-2.1-1.4-3.1-2.2
			c-0.4-0.3-0.7-0.6-1.1-0.8c-0.5-0.4-1-0.7-1.5-1.1c-0.5-0.3-0.9-0.7-1.3-1.1s-0.9-0.8-1.3-1.1c-0.8-0.7-1.5-1.4-2.2-2.1
			c-0.3-0.2-0.5-0.5-0.8-0.7c-0.1-0.1-0.3-0.3-0.4-0.4c-0.5-0.5-1-1-1.5-1.4c-0.3-0.3-0.6-0.6-0.9-1c-0.6-0.6-1.1-1.2-1.6-1.9
			c-0.2-0.3-0.5-0.6-0.8-0.9c-0.7-0.8-1.3-1.6-1.9-2.3c-0.3-0.4-0.7-0.8-1-1.3c-0.2-0.3-0.5-0.6-0.7-0.9c-0.1-0.2-0.3-0.4-0.4-0.6
			c-0.2-0.2-0.4-0.5-0.5-0.7c-0.6-0.8-1.1-1.7-1.7-2.5c-0.4-0.5-0.7-1.1-1-1.6s-0.6-1-0.9-1.5c-0.2-0.2-0.3-0.4-0.4-0.6
			c-0.3-0.6-0.7-1.2-1-1.9c-0.5-0.9-1-1.8-1.4-2.7c-0.2-0.5-0.4-1-0.6-1.4c-0.3-0.6-0.6-1.3-0.8-1.9c-0.2-0.5-0.4-0.9-0.6-1.4
			c-0.1-0.3-0.2-0.6-0.4-0.8c-0.1-0.2-0.2-0.5-0.3-0.7c-0.1-0.2-0.2-0.5-0.2-0.7c-0.2-0.4-0.3-0.8-0.4-1.2c-0.1-0.4-0.3-0.9-0.4-1.3
			c-0.1-0.2-0.2-0.5-0.2-0.7c-0.3-0.8-0.5-1.7-0.8-2.6c-0.1-0.2-0.1-0.5-0.2-0.7c-0.5-1.6-0.9-3.3-1.2-5c-0.1-0.4-0.2-0.8-0.2-1.2
			c-0.1-0.8-0.3-1.6-0.4-2.4v-0.1c0-0.1,0-0.2-0.1-0.4c-0.1-0.7-0.2-1.4-0.3-2.1s-0.2-1.4-0.2-2.1c-0.1-1.2-0.2-2.3-0.2-3.4
			c0-0.3,0-0.6,0-0.8s-0.1-0.5-0.1-0.7V252c0-0.1,0-0.2,0-0.4l0,0c-0.1-1.3-0.2-3-0.4-5c-0.1-0.8-0.2-1.7-0.3-2.7
			c0-0.2,0-0.3-0.1-0.5c-0.3-2.7-0.8-5.7-1.4-9c0-0.1,0-0.2,0-0.2c-1.5-9.4-4.4-18.4-8.5-26.6c-2.9-5.9-6.5-11.4-10.6-16.5
			c-0.4-0.5-0.8-1-1.3-1.5c-0.9-1.1-1.8-2.1-2.8-3.2l-0.3-0.3c-0.2-0.2-0.4-0.4-0.6-0.7l-1.5-1.5c-0.1-0.1-0.2-0.2-0.2-0.2
			c-0.2-0.3-0.5-0.5-0.7-0.7l0,0c-1-1-2-1.9-3-2.9c-1-0.9-2-1.8-3-2.6c-2.1-1.7-4.2-3.3-6.4-4.7c-0.1-0.1-0.2-0.2-0.4-0.2
			c-1-0.7-2.1-1.4-3.2-2c-1-0.6-2-1.2-3.1-1.8c-0.3-0.2-0.6-0.4-0.9-0.5c-0.3-0.2-0.7-0.4-1-0.5c-0.7-0.4-1.4-0.7-2.1-1
			c-1.1-0.6-2.3-1.1-3.5-1.6c-0.2-0.1-0.4-0.2-0.5-0.2c-1-0.5-2.1-0.9-3.1-1.3c-1.5-0.5-3-1.1-4.5-1.5c-2.4-0.8-4.8-1.4-7.3-2
			c-6.1-1.4-12.3-2.1-18.6-2.3c-0.8,0-1.7,0-2.5,0c-0.1,0-0.2,0-0.3,0s-0.2,0-0.3,0h-1.1c-0.5,0-0.9,0-1.4,0
			c-6.3,0.1-12.6,0.9-18.6,2.3c-2.5,0.5-4.9,1.2-7.3,2c-1.5,0.5-3,1-4.5,1.5c-1,0.4-2.1,0.8-3.1,1.3c-0.2,0.1-0.4,0.1-0.5,0.2
			c-1.2,0.5-2.3,1-3.5,1.6c-0.7,0.3-1.4,0.7-2.1,1c-0.3,0.2-0.7,0.3-1,0.5c-0.3,0.1-0.6,0.3-0.9,0.5c-1,0.5-2.1,1.1-3.1,1.8
			c-1.1,0.6-2.1,1.3-3.2,2c-0.1,0.1-0.3,0.2-0.4,0.2c-2.2,1.4-4.3,3-6.4,4.7c-1,0.8-2,1.7-3,2.6c-1,1-2,1.9-3,2.9l0,0
			c-0.8,0.8-1.6,1.6-2.4,2.4c-0.2,0.2-0.4,0.4-0.6,0.7l-0.3,0.3c-1,1-1.9,2.1-2.8,3.2c-0.5,0.5-0.9,1-1.3,1.5
			c-4.1,5.1-7.7,10.6-10.6,16.5c-4.1,8.2-7,17.2-8.5,26.6c0,0.1,0,0.2,0,0.2c-0.8,4.7-1.4,8.8-1.7,12.2c-0.2,2.2-0.3,4-0.4,5.4
			c0,1.7-0.1,3.4-0.3,5.1c-0.2,2.4-0.5,4.7-1,7c-0.4,2.3-1,4.6-1.6,6.8c-0.3,1.1-0.7,2.2-1,3.3c-1.1,3.3-2.4,6.5-3.9,9.6
			c-2.5,5.2-5.5,10-9,14.5l0,0c-1.4,1.8-2.9,3.5-4.4,5.1c-0.8,0.8-1.6,1.7-2.4,2.4c-4.8,4.8-10.3,8.9-16.2,12.3l0,0
			c-3.9,2.3-8.1,4.2-12.4,5.8l0,0c-3,1.1-6,2-9.2,2.7c-3.7,0.8-7.5,1.4-11.3,1.7c-3.1,0.2-6.2,0.3-9.2,0.2c-0.4,0-0.7,0-1.1-0.1
			c-0.2,0-0.3,0-0.5,0c-0.1,0-0.1,0-0.2,0c-0.5,0-1.1-0.1-1.6-0.1c-0.4,0-0.8,0-1.1-0.1c-0.5-0.1-1-0.1-1.5-0.2c-0.1,0-0.2,0-0.3,0
			c-0.5-0.1-0.9-0.1-1.4-0.2c-0.3-0.1-0.7-0.1-1-0.1c-0.1,0-0.1,0-0.2,0c-3.6-0.5-7-1.3-10.4-2.3c-1.1-0.3-2.3-0.7-3.3-1.1
			c-2.1-0.7-4.3-1.6-6.3-2.5c-0.2-0.1-0.3-0.1-0.5-0.2c-1-0.4-1.9-0.9-2.9-1.4c-2.1-1-4.1-2.2-6.1-3.4c-2.9-1.8-5.7-3.8-8.4-6
			c-0.9-0.7-1.8-1.5-2.6-2.2c-1.7-1.5-3.3-3.1-4.9-4.8c-0.8-0.8-1.5-1.6-2.2-2.4c-0.1-0.1-0.2-0.2-0.3-0.4c-0.5-0.6-1.1-1.2-1.5-1.9
			c-0.4-0.5-0.8-0.9-1.1-1.4s-0.7-1-1.1-1.4c-3.5-4.8-6.5-9.9-8.9-15.4c-0.3-0.7-0.6-1.4-0.8-2c-0.2-0.6-0.5-1.1-0.7-1.7
			c-0.2-0.5-0.3-0.9-0.5-1.4c-0.3-0.8-0.6-1.7-0.8-2.5c-0.1-0.1-0.1-0.3-0.1-0.4c-0.3-0.9-0.5-1.8-0.8-2.7c-0.2-0.7-0.4-1.4-0.5-2.1
			c-0.1-0.3-0.2-0.7-0.2-1c-0.2-0.8-0.4-1.6-0.5-2.4c-0.1-0.4-0.2-0.8-0.2-1.3c-0.2-0.9-0.3-1.8-0.4-2.7c-0.2-1-0.3-2-0.4-3.1
			c-0.1-1.3-0.2-2.6-0.3-3.9c-0.1-1.3-0.1-2.7-0.1-4c0-0.9,0-1.8,0.1-2.7c0-0.8,0.1-1.6,0.1-2.4c0-0.4,0.1-0.8,0.1-1.1
			c0.4-4.8,1.1-9.4,2.3-13.9c0.6-2.3,1.3-4.5,2.1-6.6c2-5.4,4.5-10.6,7.6-15.4c3.1-4.8,6.6-9.3,10.6-13.3
			c12.8-12.9,29.9-21.5,48.9-23.2c0.9-0.1,1.7-0.1,2.6-0.2c0.2,0,0.4-0.1,0.6-0.1c0.4,0,0.8,0,1.2,0c0.2,0,0.5,0,0.8,0
			c3.4-0.2,9.9-0.7,17.6-2.1c0.1,0,0.2,0,0.3,0c9.4-1.5,18.4-4.4,26.6-8.5c8.1-4,15.4-9.2,21.9-15.3c0.1-0.1,0.2-0.1,0.2-0.2
			c0.8-0.8,1.7-1.6,2.4-2.4c0.7-0.7,1.4-1.5,2.1-2.2c0.1,0,0.1-0.1,0.1-0.1c0.2-0.2,0.5-0.5,0.7-0.7c0.3-0.3,0.5-0.6,0.8-0.9
			c0.2-0.2,0.4-0.5,0.6-0.7c4.1-5.1,7.7-10.6,10.6-16.5c4.1-8.2,7-17.2,8.5-26.6c0-0.1,0-0.2,0-0.2c0.8-4.6,1.4-13.7,1.7-17.1
			c0,0,0,0,0,0.1v-0.7c0-0.2,0-0.5,0-0.7c0.1-1.3,0.1-2.7,0.2-4c0.1-0.3,0.1-0.7,0.1-1c0.1-1,0.2-2.1,0.4-3.1c0-0.3,0.1-0.5,0.1-0.8
			c0.1-0.6,0.2-1.2,0.3-1.8c0.1-0.4,0.1-0.8,0.2-1.3c0-0.2,0.1-0.4,0.1-0.5c0.1-0.2,0.1-0.5,0.2-0.8c0.1-0.3,0.1-0.6,0.2-0.8
			c0-0.1,0-0.2,0.1-0.2c0.1-0.4,0.1-0.7,0.2-1c0.1-0.3,0.2-0.6,0.2-0.9c0.1-0.4,0.1-0.7,0.2-1c0-0.1,0-0.1,0.1-0.2v-0.1
			c0.2-0.8,0.5-1.6,0.7-2.4c0.1-0.2,0.1-0.4,0.2-0.6c0.1-0.2,0.2-0.5,0.2-0.7c0.1-0.4,0.3-0.9,0.4-1.3c0.5-1.3,1-2.7,1.5-4
			s1-2.5,1.6-3.7c0-0.1,0.1-0.1,0.1-0.2c1.2-2.5,2.5-5,4-7.4c0.7-1.1,1.4-2.3,2.2-3.4c0.1-0.2,0.3-0.4,0.4-0.6
			c0.7-0.9,1.3-1.8,2-2.7c0.1-0.2,0.3-0.3,0.4-0.5c0.4-0.5,0.7-0.9,1.1-1.4c0.5-0.7,1-1.3,1.6-1.9c0.8-0.9,1.5-1.7,2.3-2.6
			c0.1-0.1,0.1-0.2,0.2-0.2c0.8-0.8,1.6-1.6,2.4-2.4c0.7-0.7,1.4-1.4,2.2-2c0.1-0.1,0.2-0.2,0.3-0.3c0.9-0.8,1.7-1.5,2.6-2.2
			c0.1,0,0.1-0.1,0.1-0.1c0.6-0.5,1.3-1,1.9-1.5c0.7-0.5,1.4-1,2.1-1.5c0.7-0.5,1.4-1,2.1-1.4l0.1-0.1c0.7-0.4,1.4-0.9,2.1-1.3
			c0.3-0.2,0.5-0.3,0.8-0.5c0.7-0.4,1.3-0.8,2-1.2c1.1-0.6,2.2-1.2,3.3-1.7c1-0.5,1.9-0.9,2.9-1.4c0.2-0.1,0.3-0.2,0.5-0.2
			c0,0,0,0,0.1,0c0.6-0.3,1.2-0.6,1.9-0.8c0.1,0,0.2-0.1,0.3-0.1c0.3-0.1,0.6-0.2,1-0.4c0.6-0.3,1.3-0.5,1.9-0.7
			c0.4-0.1,0.7-0.2,1-0.4c0.8-0.3,1.6-0.5,2.4-0.8c1.2-0.4,2.3-0.7,3.5-1c0.2-0.1,0.4-0.1,0.7-0.2c1.1-0.3,2.2-0.5,3.3-0.8
			c0.3-0.1,0.6-0.1,0.9-0.2c1.1-0.2,2.1-0.4,3.2-0.5c0.3-0.1,0.7-0.1,1-0.1c1.1-0.2,2.1-0.3,3.2-0.4l1-0.1c0.2,0,0.4-0.1,0.7-0.1
			c0.5-0.1,0.9-0.1,1.4-0.1h0.4c0.5,0,1-0.1,1.5-0.1c0.1,0,0.1,0,0.1,0l0,0h0.1c0.2,0,0.4,0,0.5,0c0.8,0,1.5,0,2.2,0
			c0.9,0,1.8,0,2.7,0.1c0,0,0.1,0,0.2,0c0.5,0,1,0.1,1.5,0.1h0.2c0.5,0,1.1,0,1.6,0.1c0.2,0,0.5,0.1,0.7,0.1l1,0.1
			c0.4,0.1,0.8,0.1,1.3,0.1c0.7,0.1,1.3,0.2,1.9,0.2c1.3,0.2,2.5,0.4,3.7,0.6c0.1,0,0.3,0,0.4,0.1c0.3,0.1,0.6,0.1,0.9,0.2
			c0.4,0.1,0.8,0.2,1.3,0.3c0.1,0,0.1,0,0.2,0s0.1,0,0.2,0c0.6,0.1,1.1,0.3,1.7,0.4c0.2,0.1,0.4,0.1,0.7,0.2
			c0.6,0.2,1.2,0.3,1.7,0.5c0.2,0.1,0.3,0.1,0.5,0.2c0.4,0.1,0.8,0.2,1.3,0.4c0.2,0.1,0.4,0.1,0.6,0.2c0.8,0.3,1.7,0.6,2.5,0.9
			c0.1,0,0.2,0.1,0.3,0.1c1,0.4,1.9,0.7,2.8,1.1c0.1,0.1,0.2,0.1,0.3,0.1c2.1,0.8,4.1,1.8,6.1,2.9c1,0.5,2,1.1,3,1.7l0,0
			c7.9,4.5,14.9,10.3,20.7,17.2c0.2,0.3,0.5,0.5,0.7,0.8c0.5,0.6,1.1,1.3,1.6,1.9l0,0l0,0c0.9,1.1,1.7,2.3,2.6,3.4
			c0.6,0.9,1.2,1.8,1.8,2.7c0.6,0.9,1.2,1.8,1.7,2.7c0.5,0.7,0.9,1.5,1.3,2.3c0.6,1.1,1.2,2.2,1.7,3.3c0.1,0.2,0.2,0.5,0.3,0.7
			c1.2,2.5,2.2,5.1,3.1,7.7c0.1,0.4,0.3,0.9,0.4,1.3c0.1,0.2,0.2,0.4,0.2,0.7c0.1,0.2,0.1,0.5,0.2,0.7c0.3,0.8,0.5,1.7,0.8,2.6
			c0.1,0.4,0.2,0.7,0.3,1.1c0.3,1,0.5,2,0.7,3c0.1,0.3,0.1,0.6,0.2,0.8c0.2,1.2,0.4,2.4,0.6,3.5c0,0.1,0.1,0.3,0.1,0.5
			c0.1,0.7,0.2,1.4,0.3,2.1c0.1,0.7,0.2,1.4,0.2,2.1c0.1,1.4,0.2,2.9,0.2,4.3c0,0.3,0,0.6,0,0.8v0.5c0-0.1,0-0.1,0-0.1
			c0.2,1.6,0.4,4.5,0.6,7.6c0,0.2,0.1,0.3,0.1,0.5c0.3,3.3,0.6,6.7,1.1,9c0,0.1,0,0.2,0,0.2c1.5,9.4,4.4,18.4,8.5,26.6
			c2.9,5.9,6.5,11.4,10.6,16.5c0.2,0.2,0.4,0.5,0.6,0.7c0.2,0.3,0.5,0.6,0.8,0.9c0.2,0.2,0.4,0.5,0.7,0.7c0,0,0,0.1,0.1,0.1
			c0.7,0.8,1.4,1.5,2.1,2.2c0.3,0.3,0.6,0.6,1,1l1.5,1.5c0.3,0.3,0.6,0.7,1,1l0,0c1,1,2,1.9,3,2.9c1,0.9,2,1.8,3,2.6
			c2.1,1.7,4.2,3.3,6.4,4.7c0.1,0.1,0.2,0.2,0.4,0.2c1,0.7,2.1,1.4,3.2,2c1,0.6,2,1.2,3.1,1.8c0.3,0.2,0.6,0.4,0.9,0.5
			c0.3,0.2,0.7,0.4,1,0.5c0.7,0.4,1.4,0.7,2.1,1c1.1,0.6,2.3,1.1,3.5,1.6c0.2,0.1,0.4,0.2,0.5,0.2c1,0.5,2.1,0.9,3.1,1.3
			c1.5,0.5,3,1.1,4.5,1.5c2.4,0.8,4.8,1.4,7.3,2c6.1,1.4,12.3,2.1,18.6,2.3c0.8,0,1.7,0,2.5,0c0.1,0,0.2,0,0.3,0c0.1,0,0.2,0,0.3,0
			c0.8,0,1.7,0,2.5,0c6.3-0.1,12.6-0.9,18.6-2.3c2.5-0.5,4.9-1.2,7.3-2c1.5-0.5,3-1,4.5-1.5c1-0.4,2.1-0.8,3.1-1.3
			c0.2-0.1,0.4-0.1,0.5-0.2c1.2-0.5,2.3-1,3.5-1.6c0.7-0.3,1.4-0.7,2.1-1c0.3-0.2,0.7-0.3,1-0.5c0.3-0.1,0.6-0.3,0.9-0.5
			c1-0.5,2.1-1.1,3.1-1.8c1.1-0.6,2.1-1.3,3.2-2c0.1-0.1,0.3-0.2,0.4-0.2c2.2-1.4,4.3-3,6.4-4.7c1-0.8,2-1.7,3-2.6c1-1,2-1.9,3-2.9
			l0,0l0.7-0.7c0.1-0.1,0.2-0.2,0.2-0.2c0.4-0.4,0.8-0.8,1.2-1.2c0.4-0.4,0.8-0.8,1.2-1.2c0.7-0.7,1.4-1.5,2.1-2.2
			c0.1,0,0.1-0.1,0.1-0.1c0.2-0.2,0.5-0.5,0.7-0.7c0.3-0.3,0.5-0.6,0.8-0.9c0.2-0.2,0.4-0.5,0.6-0.7c4.1-5.1,7.7-10.6,10.6-16.5
			c4.1-8.2,7-17.2,8.5-26.6c0-0.1,0-0.2,0-0.2c0.5-2.6,0.9-6.6,1.2-10.3c0-0.4,0.1-0.8,0.1-1.2c0.2-2,0.3-3.7,0.4-5v-0.1
			c0-0.2,0-0.5,0.1-0.7v0.1V77c0-0.2,0-0.5,0-0.7c0.1-1.4,0.1-2.8,0.2-4.3c0.1-1.4,0.3-2.8,0.5-4.2c0-0.1,0.1-0.2,0.1-0.4
			c0.2-1.2,0.4-2.4,0.6-3.6c0.1-0.3,0.1-0.5,0.2-0.8c0.2-1,0.4-2,0.7-3c0.1-0.4,0.2-0.7,0.3-1.1c0.2-0.9,0.5-1.7,0.8-2.6
			c0.1-0.5,0.2-0.9,0.4-1.4c0.1-0.4,0.3-0.9,0.4-1.3c1.8-5.4,4.2-10.4,7.2-15.2c0.5-0.8,1.1-1.7,1.6-2.5c0.3-0.5,0.6-1,1-1.5
			c0.1-0.2,0.2-0.3,0.3-0.5c0.7-1.1,1.5-2.1,2.3-3.1l0,0c1-1.2,2-2.5,3.1-3.6c0.8-0.9,1.7-1.8,2.5-2.7c0.4-0.4,0.8-0.8,1.2-1.2
			c0.6-0.6,1.2-1.2,1.8-1.8c1.3-1.2,2.5-2.3,3.9-3.3c1.3-1.1,2.7-2.1,4.1-3.1c2.1-1.5,4.3-2.9,6.5-4.2c0.9-0.5,1.8-1,2.7-1.5
			c0.2-0.1,0.5-0.2,0.7-0.4c0.9-0.4,1.7-0.9,2.6-1.3c1-0.5,2-0.9,3-1.4c0.1,0,0.1,0,0.1,0c0.1,0,0.1-0.1,0.2-0.1
			c1-0.4,1.9-0.7,2.8-1.1c0.1,0,0.2-0.1,0.2-0.1c0.3-0.1,0.5-0.2,0.8-0.3c0.7-0.2,1.3-0.5,2-0.7c1.5-0.5,3-0.9,4.5-1.3
			c0.6-0.1,1.2-0.3,1.8-0.4c0.5-0.1,1-0.2,1.5-0.3c0.3-0.1,0.6-0.1,0.9-0.2c0.1,0,0.2-0.1,0.4-0.1c1.9-0.4,3.8-0.7,5.7-0.9
			c0.4-0.1,0.8-0.1,1.3-0.1l1-0.1c0.2,0,0.4-0.1,0.7-0.1c0.5-0.1,1-0.1,1.5-0.1h0.2c0.5,0,1-0.1,1.5-0.1c0.1,0,0.1,0,0.2,0
			C590.1,0,591,0,592,0c0.7,0,1.5,0,2.2,0c0.2,0,0.4,0,0.5,0c0,0,0,0,0.1,0l0,0h0.1c0.5,0,1,0.1,1.5,0.1h0.2c0,0,0,0,0.1,0
			c0.5,0,1,0,1.5,0.1c0.2,0,0.5,0.1,0.7,0.1l1,0.1c1.1,0.1,2.1,0.2,3.2,0.4c0.3,0.1,0.7,0.1,1,0.1c1.1,0.2,2.1,0.4,3.2,0.5
			c0.3,0.1,0.6,0.1,0.9,0.2c1.1,0.2,2.2,0.5,3.3,0.8c0.2,0.1,0.4,0.1,0.7,0.2c1.2,0.3,2.3,0.7,3.5,1c0.8,0.3,1.6,0.5,2.4,0.8
			c0.4,0.1,0.7,0.2,1,0.4c1,0.4,1.9,0.7,2.8,1.1C622,6,622.1,6,622.2,6c0.6,0.3,1.3,0.5,1.9,0.8c0.2,0.1,0.3,0.1,0.5,0.2
			c1,0.4,1.9,0.9,2.9,1.4c0.4,0.2,0.9,0.5,1.3,0.7c0.8,0.4,1.6,0.8,2.3,1.3c0.8,0.5,1.6,0.9,2.4,1.4c0.7,0.5,1.5,0.9,2.2,1.4
			c1.4,0.9,2.9,1.9,4.2,3c0.7,0.5,1.4,1.1,2,1.6c0.4,0.4,0.9,0.7,1.3,1.1c0.4,0.4,0.9,0.8,1.3,1.1c1.6,1.4,3.2,2.9,4.6,4.5
			c0.1,0.1,0.2,0.2,0.3,0.3c0.3,0.3,0.6,0.6,0.9,1c0.4,0.5,0.9,1,1.3,1.5c0.1,0.1,0.2,0.2,0.3,0.4c0.2,0.3,0.5,0.6,0.8,0.9
			s0.5,0.6,0.8,1c0.4,0.5,0.8,0.9,1.1,1.4c0.3,0.4,0.7,0.8,1,1.3c0,0.1,0.1,0.1,0.1,0.2c0.4,0.6,0.9,1.2,1.3,1.8
			c0.4,0.5,0.7,1,1,1.5c0.7,1,1.3,1.9,1.8,2.9c0.7,1.1,1.3,2.1,1.8,3.2V42c0.6,1,1.1,2,1.6,3.1c0.1,0.3,0.3,0.5,0.4,0.8
			c0.3,0.7,0.6,1.4,0.9,2s0.6,1.4,0.8,2c0.1,0.1,0.1,0.2,0.1,0.4c0.3,0.7,0.5,1.3,0.8,2c0.1,0.2,0.2,0.5,0.2,0.7
			c0.1,0.2,0.1,0.3,0.2,0.5c0.1,0.2,0.2,0.5,0.2,0.8c0.1,0.4,0.3,0.9,0.4,1.3c0.1,0.1,0.1,0.3,0.1,0.4c0.2,0.6,0.4,1.2,0.5,1.8
			c0.1,0.3,0.2,0.6,0.3,1c0.1,0.3,0.1,0.5,0.2,0.8c0.1,0.4,0.2,0.8,0.3,1.2c0.2,0.7,0.3,1.4,0.5,2.1c0,0.1,0,0.1,0,0.2
			c0.1,0.2,0.1,0.5,0.2,0.7c0.2,1,0.4,2,0.5,3c0.1,0.2,0.1,0.4,0.1,0.6c0,0.1,0,0.2,0.1,0.4c0.1,0.7,0.2,1.3,0.2,1.9
			c0,0.1,0,0.1,0,0.2c0.1,0.7,0.2,1.4,0.2,2.1c0,0.3,0.1,0.6,0.1,0.9c0.1,0.8,0.1,1.5,0.1,2.3c0.1,0.8,0.1,1.6,0.1,2.4v-0.1
			c0.3,3.4,0.9,12.6,1.7,17.2c0,0.1,0,0.2,0,0.2c1.5,9.4,4.4,18.4,8.5,26.6c2.9,5.9,6.5,11.4,10.6,16.5c0.2,0.2,0.4,0.5,0.6,0.7
			c0.2,0.3,0.5,0.6,0.8,0.9c0.2,0.2,0.4,0.5,0.7,0.7c0,0,0,0.1,0.1,0.1c0.7,0.8,1.4,1.5,2.1,2.2c0.8,0.8,1.6,1.6,2.4,2.4
			c0.1,0.1,0.2,0.2,0.2,0.2c6.5,6.1,13.8,11.3,21.9,15.3c8.2,4.1,17.2,7,26.6,8.5c0.1,0,0.2,0,0.3,0c7.7,1.4,14.2,1.9,17.6,2.1
			c0.3,0,0.5,0,0.8,0c0.4,0,0.8,0,1.2,0c0.2,0,0.4,0,0.6,0.1c0.8,0,1.7,0.1,2.6,0.2c19,1.7,36.1,10.3,48.9,23.2
			c4,4,7.5,8.5,10.6,13.3c3,4.8,5.6,10,7.6,15.4c0.8,2.2,1.5,4.4,2.1,6.6c1.2,4.5,2,9.1,2.3,13.9c0,0.4,0.1,0.8,0.1,1.1
			c0,0.8,0.1,1.6,0.1,2.4C841.9,248.2,841.9,249.1,841.9,249.9z"/>
	</g>
</g>
</svg>
