<?xml version="1.0" encoding="utf-8"?>
<!-- Generator: Adobe Illustrator 25.2.0, SVG Export Plug-In . SVG Version: 6.00 Build 0)  -->
<svg version="1.1" id="Layer_1" xmlns="http://www.w3.org/2000/svg" xmlns:xlink="http://www.w3.org/1999/xlink" x="0px" y="0px"
	 viewBox="0 0 841.89 328.854" style="enable-background:new 0 0 841.89 328.854;" xml:space="preserve">
<style type="text/css">
	.st0{fill:#333333;}
</style>
<g>
	<circle class="st0" cx="250.165" cy="249.932" r="75.477"/>
	<circle class="st0" cx="420.945" cy="78.922" r="75.477"/>
	<circle class="st0" cx="591.83" cy="249.932" r="75.477"/>
	<circle class="st0" cx="762.968" cy="78.922" r="75.477"/>
	<circle class="st0" cx="78.922" cy="78.922" r="75.477"/>
	<path class="st0" d="M841.89,249.931c0,1.36-0.027,2.693-0.109,4.025c-0.054,1.333-0.163,2.639-0.299,3.944
		c-0.109,1.034-0.218,2.067-0.381,3.073c-0.109,0.898-0.245,1.795-0.435,2.693c-0.054,0.435-0.136,0.843-0.218,1.251
		c-0.136,0.816-0.299,1.605-0.517,2.394c-0.054,0.353-0.136,0.68-0.217,1.006c-0.163,0.707-0.326,1.414-0.544,2.122
		c-0.218,0.898-0.49,1.795-0.762,2.693c-0.054,0.163-0.081,0.299-0.136,0.435c-0.272,0.843-0.544,1.714-0.843,2.53
		c-0.163,0.489-0.326,0.925-0.49,1.387c-0.218,0.571-0.435,1.142-0.68,1.713c-0.245,0.68-0.544,1.36-0.843,2.04
		c-2.366,5.494-5.358,10.662-8.867,15.422c-0.354,0.49-0.734,0.979-1.088,1.442c-0.353,0.462-0.734,0.925-1.115,1.387
		c-0.49,0.653-1.034,1.279-1.55,1.877c-0.109,0.136-0.218,0.245-0.326,0.381c-0.734,0.816-1.441,1.632-2.203,2.421
		c-1.578,1.659-3.209,3.237-4.923,4.76c-0.87,0.761-1.741,1.523-2.638,2.23c-2.665,2.176-5.467,4.162-8.404,5.984
		c-1.985,1.197-3.998,2.339-6.065,3.373c-0.952,0.462-1.904,0.925-2.856,1.36c-0.163,0.081-0.299,0.163-0.462,0.217
		c-2.067,0.898-4.189,1.741-6.337,2.475c-1.088,0.381-2.203,0.734-3.345,1.061c-3.373,1.006-6.854,1.768-10.417,2.312
		c-0.054,0-0.109,0.027-0.163,0.027c-0.326,0.054-0.653,0.081-0.979,0.136c-0.49,0.082-0.952,0.136-1.414,0.191
		c-0.082,0.027-0.163,0.027-0.272,0.027c-0.517,0.054-1.006,0.109-1.496,0.163c-0.354,0.054-0.734,0.081-1.142,0.081
		c-0.517,0.082-1.034,0.109-1.578,0.136c-0.082,0.027-0.136,0.027-0.218,0c-0.163,0.027-0.326,0.027-0.49,0.027
		c-0.354,0.027-0.68,0.054-1.061,0.054c-3.046,0.136-6.12,0.082-9.248-0.163c-3.862-0.299-7.616-0.87-11.315-1.714
		c-3.128-0.707-6.201-1.605-9.166-2.693l-0.027-0.027c-4.325-1.551-8.486-3.482-12.43-5.766c0,0,0,0-0.027-0.027
		c-5.93-3.4-11.396-7.561-16.211-12.348c-0.816-0.789-1.605-1.605-2.366-2.448c-1.578-1.659-3.046-3.373-4.433-5.14c0,0,0,0,0-0.027
		c-3.536-4.461-6.555-9.302-9.03-14.47c-1.496-3.1-2.802-6.283-3.862-9.601c-0.354-1.088-0.68-2.203-1.006-3.318
		c-0.626-2.23-1.17-4.515-1.578-6.827c-0.408-2.312-0.734-4.678-0.952-7.044c-0.136-1.741-0.245-3.427-0.272-5.113
		c-0.054-1.36-0.19-3.182-0.381-5.385c-0.326-3.345-0.843-7.534-1.686-12.185c0-0.082,0-0.163-0.027-0.245
		c-1.469-9.438-4.379-18.387-8.513-26.628c-2.938-5.902-6.501-11.424-10.635-16.51c-0.381-0.517-0.789-1.007-1.251-1.496
		c-0.897-1.088-1.822-2.149-2.774-3.182l-0.299-0.299c-0.19-0.217-0.381-0.435-0.598-0.653c-0.816-0.816-1.632-1.659-2.448-2.448
		h-0.027c-0.979-0.979-1.986-1.931-3.019-2.883c-1.006-0.898-2.013-1.795-3.046-2.611c-2.067-1.714-4.189-3.291-6.364-4.733
		c-0.109-0.082-0.245-0.163-0.381-0.245c-1.034-0.707-2.067-1.36-3.155-1.985c-1.007-0.626-2.04-1.224-3.073-1.768
		c-0.299-0.19-0.626-0.354-0.925-0.49c-0.326-0.217-0.653-0.38-0.979-0.544c-0.707-0.354-1.387-0.707-2.094-1.034
		c-1.142-0.571-2.312-1.088-3.481-1.577c-0.19-0.082-0.381-0.163-0.544-0.218c-1.034-0.462-2.067-0.87-3.101-1.278
		c-1.523-0.544-3.019-1.06-4.542-1.523c-2.393-0.789-4.841-1.441-7.317-1.985c-6.065-1.387-12.321-2.148-18.631-2.285
		c-0.462-0.027-0.952-0.027-1.414-0.027h-1.115c-0.109,0-0.217-0.027-0.299-0.027c-0.081,0-0.19,0.027-0.299,0.027
		c-0.843,0-1.686,0-2.529,0.027c-6.31,0.136-12.566,0.897-18.631,2.285c-2.475,0.544-4.923,1.197-7.317,1.985
		c-1.523,0.463-3.019,0.979-4.542,1.523c-1.034,0.408-2.067,0.816-3.101,1.278c-0.163,0.054-0.354,0.136-0.544,0.218
		c-1.17,0.489-2.339,1.006-3.481,1.577c-0.707,0.326-1.387,0.68-2.094,1.034c-0.326,0.163-0.653,0.326-0.979,0.544
		c-0.299,0.136-0.626,0.299-0.925,0.49c-1.033,0.544-2.067,1.142-3.073,1.768c-1.088,0.626-2.122,1.278-3.155,1.985
		c-0.136,0.082-0.272,0.163-0.381,0.245c-2.176,1.441-4.297,3.019-6.364,4.733c-1.034,0.816-2.04,1.713-3.046,2.611
		c-1.034,0.952-2.04,1.904-3.019,2.883h-0.027c-0.245,0.245-0.49,0.49-0.734,0.734l-1.714,1.714
		c-0.218,0.218-0.408,0.435-0.598,0.653l-0.299,0.299c-0.952,1.034-1.877,2.094-2.774,3.182c-0.463,0.489-0.87,0.979-1.251,1.496
		c-4.134,5.086-7.697,10.607-10.635,16.51c-4.134,8.241-7.045,17.19-8.513,26.628c-0.027,0.082-0.027,0.163-0.027,0.245
		c-0.68,3.808-1.17,7.289-1.496,10.254c-0.027,0.408-0.054,0.816-0.109,1.197c-0.027,0.245-0.054,0.49-0.082,0.734
		c-0.136,1.659-0.245,3.101-0.326,4.27v0.081c-0.027,0.381-0.054,0.707-0.054,1.034c0,0.136-0.027,0.272-0.027,0.435
		c-0.027,0.136-0.027,0.272-0.027,0.408v0.027c0,0.326,0,0.68-0.027,1.033c-0.027,0.408-0.054,0.789-0.082,1.197
		c-0.054,0.68-0.054,1.333-0.109,2.013c-0.218,2.366-0.544,4.733-0.952,7.044c-0.408,2.312-0.952,4.597-1.578,6.827
		c-0.326,1.115-0.653,2.23-1.006,3.318c-0.082,0.218-0.136,0.436-0.245,0.653c-0.082,0.191-0.163,0.408-0.218,0.599
		c-0.027,0.054-0.027,0.109-0.054,0.163c-0.054,0.109-0.054,0.218-0.109,0.327c-0.163,0.489-0.326,0.925-0.49,1.387
		c-0.082,0.244-0.19,0.489-0.299,0.734c-0.136,0.408-0.299,0.816-0.49,1.224c-0.027,0.082-0.054,0.163-0.109,0.245
		c-0.082,0.245-0.19,0.49-0.299,0.761c-0.109,0.245-0.218,0.517-0.326,0.789c-0.163,0.381-0.354,0.734-0.517,1.115
		c-0.163,0.354-0.326,0.734-0.49,1.088c-0.054,0.191-0.136,0.354-0.218,0.517c-0.136,0.245-0.272,0.49-0.381,0.734
		c-0.299,0.598-0.598,1.17-0.897,1.741c-0.027,0.082-0.082,0.163-0.136,0.245c-0.245,0.49-0.517,0.979-0.816,1.469
		c-0.789,1.469-1.632,2.91-2.557,4.325c-0.462,0.707-0.925,1.387-1.387,2.067c-0.163,0.245-0.354,0.517-0.517,0.734
		c0,0.082-0.054,0.136-0.136,0.217c-0.272,0.381-0.544,0.789-0.816,1.17c-0.245,0.326-0.49,0.653-0.707,0.952
		c-0.979,1.278-2.013,2.53-3.046,3.753c-0.109,0.136-0.218,0.245-0.326,0.381c-0.653,0.734-1.306,1.469-1.985,2.176
		c-0.082,0.082-0.136,0.163-0.218,0.245c-0.49,0.49-1.006,0.952-1.496,1.441c-0.136,0.136-0.272,0.299-0.408,0.436
		c-0.272,0.244-0.544,0.489-0.789,0.734c-0.68,0.626-1.333,1.333-2.013,1.931c-0.952,0.897-1.904,1.713-2.91,2.502
		c-0.462,0.381-0.979,0.734-1.442,1.088c-0.354,0.272-0.734,0.571-1.115,0.843c-1.006,0.762-2.04,1.496-3.101,2.203
		c-0.326,0.218-0.653,0.435-0.979,0.653c-0.299,0.191-0.571,0.381-0.843,0.571c-2.23,1.469-4.542,2.774-6.936,3.944
		c-0.571,0.272-1.142,0.544-1.714,0.816c-0.272,0.136-0.517,0.245-0.789,0.381c-0.272,0.163-0.571,0.299-0.87,0.408
		c-1.469,0.653-3.019,1.224-4.542,1.822c-0.218,0.054-0.435,0.163-0.626,0.245l-0.027,0.027c-0.272,0.109-0.517,0.191-0.789,0.272
		c-0.68,0.245-1.333,0.462-2.013,0.68c-0.109,0.054-0.245,0.109-0.353,0.136c-1.17,0.354-2.339,0.707-3.509,1.006
		c-0.218,0.054-0.435,0.109-0.653,0.163c-0.626,0.136-1.224,0.299-1.85,0.435c-2.312,0.517-4.651,0.898-7.017,1.224
		c-0.408,0.054-0.816,0.109-1.224,0.163c-0.082,0.027-0.163,0.027-0.272,0.027c-0.517,0.054-1.006,0.109-1.496,0.163
		c-0.054,0.027-0.109,0.027-0.163,0.027h-0.163c-0.109,0-0.245,0.027-0.354,0.054c-0.218,0-0.408,0.027-0.626,0.054
		c-0.353,0.027-0.707,0.027-1.061,0.054c-0.109,0-0.218,0.027-0.354,0.027c-0.027,0.027-0.027,0.027-0.054,0.027h-0.082
		c-0.027,0-0.054,0-0.082-0.027c-0.163,0.027-0.326,0.027-0.49,0.027c-0.354,0.027-0.68,0.054-1.061,0.054h-0.245
		c-0.027,0-0.027,0-0.054,0c-0.898,0.027-1.822,0.054-2.747,0.027c-0.898,0.027-1.822,0-2.747-0.027c-0.027,0-0.027,0-0.054,0
		h-0.218c-0.381,0-0.707-0.027-1.061-0.054c-0.163,0-0.326,0-0.49-0.027c-0.054,0.027-0.054,0.027-0.082,0.027
		c-0.027,0-0.027,0-0.054,0s-0.027,0-0.082-0.027c-0.136,0-0.245-0.027-0.381-0.027c-0.354-0.027-0.68-0.027-1.034-0.054
		c-0.326-0.027-0.653-0.082-0.979-0.109h-0.163c-0.054,0-0.109,0-0.163-0.027c-0.49-0.054-0.979-0.109-1.496-0.163
		c-0.109,0-0.19,0-0.272-0.027c-0.408-0.054-0.816-0.109-1.224-0.163c-2.366-0.326-4.705-0.707-7.017-1.224
		c-1.441-0.326-2.883-0.707-4.297-1.088c-0.109-0.027-0.217-0.054-0.353-0.109c-0.653-0.191-1.306-0.408-1.986-0.626
		c-0.598-0.191-1.17-0.408-1.768-0.599c-0.272-0.081-0.517-0.163-0.762-0.272l-0.027-0.027c-0.217-0.082-0.408-0.191-0.626-0.245
		c-1.55-0.599-3.101-1.197-4.597-1.85c-0.163-0.054-0.299-0.136-0.462-0.217c-0.136-0.054-0.245-0.109-0.354-0.163
		c-0.272-0.136-0.517-0.245-0.789-0.381c-0.571-0.272-1.142-0.544-1.714-0.816c-0.653-0.272-1.278-0.626-1.904-0.979
		c-0.626-0.354-1.251-0.707-1.877-1.061c-0.054,0.027-0.082,0-0.136-0.082c-0.707-0.408-1.442-0.816-2.149-1.251
		c-0.598-0.354-1.142-0.762-1.714-1.142c-0.326-0.217-0.653-0.435-0.979-0.653c-1.061-0.707-2.094-1.442-3.128-2.203
		c-0.354-0.272-0.734-0.571-1.088-0.843c-0.517-0.381-1.006-0.734-1.496-1.142c-0.462-0.326-0.898-0.68-1.333-1.088
		c-0.435-0.381-0.87-0.762-1.306-1.142c-0.789-0.68-1.496-1.442-2.23-2.149c-0.272-0.245-0.544-0.49-0.789-0.734
		c-0.136-0.136-0.272-0.299-0.435-0.436c-0.462-0.489-1.006-0.952-1.469-1.441c-0.299-0.326-0.598-0.626-0.898-0.952
		c-0.571-0.598-1.115-1.224-1.632-1.85c-0.245-0.299-0.517-0.598-0.789-0.925c-0.653-0.762-1.278-1.551-1.877-2.339
		c-0.326-0.408-0.653-0.843-0.979-1.279c-0.217-0.299-0.462-0.598-0.653-0.925c-0.136-0.217-0.272-0.408-0.408-0.626
		c-0.19-0.217-0.354-0.49-0.517-0.734c-0.571-0.816-1.142-1.659-1.659-2.502c-0.353-0.517-0.653-1.06-0.979-1.577
		c-0.326-0.517-0.626-1.006-0.898-1.55c-0.163-0.191-0.272-0.408-0.381-0.626c-0.326-0.626-0.653-1.224-0.979-1.85
		c-0.517-0.897-0.952-1.795-1.387-2.693c-0.19-0.463-0.381-0.952-0.598-1.387c-0.326-0.626-0.598-1.278-0.843-1.904
		c-0.19-0.462-0.408-0.924-0.571-1.387c-0.136-0.299-0.245-0.571-0.353-0.843c-0.082-0.245-0.19-0.49-0.272-0.734
		c-0.082-0.218-0.163-0.462-0.245-0.68c-0.163-0.381-0.299-0.789-0.435-1.197c-0.136-0.435-0.299-0.87-0.435-1.306
		c-0.082-0.245-0.163-0.462-0.218-0.68c-0.272-0.843-0.544-1.714-0.789-2.584c-0.054-0.217-0.136-0.462-0.163-0.68
		c-0.463-1.632-0.87-3.291-1.17-4.977c-0.109-0.381-0.163-0.789-0.245-1.17c-0.136-0.789-0.272-1.577-0.381-2.366v-0.082
		c0-0.136-0.027-0.245-0.054-0.381c-0.082-0.707-0.19-1.387-0.272-2.094c-0.082-0.707-0.19-1.414-0.245-2.122
		c-0.082-1.17-0.163-2.285-0.19-3.427c-0.027-0.272-0.027-0.571-0.027-0.816c-0.027-0.245-0.054-0.49-0.054-0.707v-0.163
		c0-0.136,0-0.245-0.027-0.38v-0.027c-0.054-1.306-0.19-2.992-0.354-4.978c-0.082-0.843-0.163-1.714-0.272-2.665
		c-0.027-0.163-0.027-0.326-0.054-0.489c-0.326-2.693-0.761-5.739-1.36-9.03c0-0.082,0-0.163-0.027-0.245
		c-1.469-9.438-4.379-18.387-8.513-26.628c-2.938-5.902-6.501-11.424-10.635-16.51c-0.381-0.517-0.789-1.007-1.251-1.496
		c-0.897-1.088-1.822-2.149-2.774-3.182l-0.299-0.299c-0.19-0.217-0.381-0.435-0.598-0.653l-1.496-1.496
		c-0.082-0.082-0.163-0.163-0.245-0.217c-0.245-0.272-0.462-0.517-0.707-0.734h-0.027c-0.979-0.979-1.986-1.931-3.019-2.883
		c-1.006-0.898-2.013-1.795-3.046-2.611c-2.067-1.714-4.189-3.291-6.364-4.733c-0.109-0.082-0.245-0.163-0.381-0.245
		c-1.034-0.707-2.067-1.36-3.155-1.985c-1.007-0.626-2.04-1.224-3.074-1.768c-0.299-0.19-0.626-0.354-0.925-0.49
		c-0.326-0.217-0.653-0.38-0.979-0.544c-0.707-0.354-1.387-0.707-2.094-1.034c-1.142-0.571-2.312-1.088-3.481-1.577
		c-0.19-0.082-0.381-0.163-0.544-0.218c-1.034-0.462-2.067-0.87-3.101-1.278c-1.523-0.544-3.019-1.06-4.542-1.523
		c-2.394-0.789-4.841-1.441-7.317-1.985c-6.065-1.387-12.321-2.148-18.631-2.285c-0.843-0.027-1.686-0.027-2.529-0.027
		c-0.109,0-0.217-0.027-0.299-0.027c-0.082,0-0.19,0.027-0.299,0.027h-1.142c-0.462,0-0.925,0-1.387,0.027
		c-6.31,0.136-12.566,0.897-18.631,2.285c-2.475,0.544-4.923,1.197-7.317,1.985c-1.523,0.463-3.019,0.979-4.542,1.523
		c-1.034,0.408-2.067,0.816-3.101,1.278c-0.163,0.054-0.354,0.136-0.544,0.218c-1.17,0.489-2.339,1.006-3.481,1.577
		c-0.707,0.326-1.387,0.68-2.094,1.034c-0.326,0.163-0.653,0.326-0.979,0.544c-0.299,0.136-0.626,0.299-0.925,0.49
		c-1.033,0.544-2.067,1.142-3.073,1.768c-1.088,0.626-2.122,1.278-3.155,1.985c-0.136,0.082-0.272,0.163-0.381,0.245
		c-2.176,1.441-4.297,3.019-6.364,4.733c-1.034,0.816-2.04,1.713-3.046,2.611c-1.034,0.952-2.04,1.904-3.019,2.883h-0.027
		c-0.816,0.789-1.632,1.632-2.448,2.448c-0.218,0.218-0.408,0.435-0.598,0.653l-0.299,0.299c-0.952,1.034-1.877,2.094-2.774,3.182
		c-0.463,0.489-0.87,0.979-1.251,1.496c-4.134,5.086-7.697,10.607-10.635,16.51c-4.134,8.241-7.045,17.19-8.513,26.628
		c-0.027,0.082-0.027,0.163-0.027,0.245c-0.843,4.651-1.36,8.84-1.686,12.185c-0.19,2.203-0.326,4.025-0.381,5.385
		c-0.027,1.686-0.136,3.373-0.272,5.113c-0.218,2.366-0.544,4.733-0.952,7.044c-0.408,2.312-0.952,4.597-1.578,6.827
		c-0.326,1.115-0.653,2.23-1.006,3.318c-1.061,3.319-2.366,6.501-3.862,9.601c-2.475,5.168-5.494,10.009-9.03,14.47
		c0,0.027,0,0.027,0,0.027c-1.387,1.768-2.856,3.482-4.433,5.14c-0.761,0.843-1.55,1.659-2.366,2.448
		c-4.814,4.787-10.281,8.948-16.21,12.348c-0.027,0.027-0.027,0.027-0.027,0.027c-3.944,2.285-8.105,4.216-12.43,5.766l-0.027,0.027
		c-2.965,1.088-6.038,1.985-9.166,2.693c-3.699,0.843-7.452,1.414-11.315,1.714c-3.128,0.245-6.201,0.299-9.248,0.163
		c-0.381,0-0.707-0.027-1.061-0.054c-0.163,0-0.326,0-0.49-0.027c-0.082,0.027-0.136,0.027-0.218,0
		c-0.544-0.027-1.061-0.054-1.577-0.136c-0.408,0-0.789-0.027-1.142-0.081c-0.49-0.054-0.979-0.109-1.496-0.163
		c-0.109,0-0.19,0-0.272-0.027c-0.463-0.054-0.925-0.109-1.414-0.191c-0.326-0.054-0.653-0.081-0.979-0.136
		c-0.054,0-0.109-0.027-0.163-0.027c-3.563-0.544-7.045-1.305-10.417-2.312c-1.142-0.326-2.258-0.68-3.345-1.061
		c-2.149-0.734-4.27-1.577-6.337-2.475c-0.163-0.054-0.299-0.136-0.462-0.217c-0.952-0.435-1.904-0.897-2.856-1.36
		c-2.067-1.034-4.08-2.176-6.065-3.373c-2.938-1.822-5.739-3.808-8.404-5.984c-0.898-0.707-1.768-1.469-2.638-2.23
		c-1.714-1.523-3.345-3.101-4.923-4.76c-0.761-0.789-1.469-1.605-2.203-2.421c-0.109-0.136-0.218-0.245-0.326-0.381
		c-0.517-0.598-1.061-1.224-1.55-1.877c-0.381-0.462-0.761-0.924-1.115-1.387s-0.734-0.952-1.088-1.442
		c-3.509-4.76-6.501-9.928-8.867-15.422c-0.299-0.68-0.598-1.36-0.843-2.04c-0.245-0.571-0.462-1.142-0.68-1.713
		c-0.163-0.462-0.326-0.898-0.49-1.387c-0.299-0.816-0.571-1.687-0.843-2.53c-0.054-0.136-0.082-0.272-0.136-0.435
		c-0.272-0.897-0.544-1.795-0.762-2.693c-0.217-0.707-0.381-1.414-0.544-2.122c-0.082-0.326-0.163-0.653-0.217-1.006
		c-0.218-0.789-0.381-1.578-0.517-2.394c-0.082-0.408-0.163-0.816-0.218-1.251c-0.19-0.898-0.326-1.795-0.435-2.693
		c-0.163-1.006-0.272-2.04-0.381-3.073c-0.136-1.306-0.245-2.611-0.299-3.944C0.027,252.624,0,251.291,0,249.931
		c0-0.87,0.027-1.768,0.054-2.665c0.027-0.789,0.082-1.577,0.109-2.366c0.027-0.381,0.054-0.761,0.082-1.142
		c0.354-4.76,1.142-9.411,2.339-13.898c0.598-2.258,1.278-4.461,2.067-6.637c1.958-5.413,4.515-10.553,7.561-15.367
		c3.073-4.814,6.609-9.275,10.608-13.3c12.756-12.947,29.892-21.542,48.877-23.228c0.87-0.082,1.741-0.136,2.584-0.163
		c0.19-0.027,0.408-0.054,0.598-0.054c0.381-0.027,0.789-0.027,1.17-0.027c0.245,0,0.49-0.027,0.761-0.027
		c3.4-0.163,9.873-0.653,17.571-2.067c0.082,0,0.163,0,0.272-0.027c9.411-1.469,18.387-4.379,26.601-8.513
		c8.051-4.025,15.422-9.194,21.895-15.34c0.082-0.054,0.163-0.136,0.245-0.217c0.816-0.816,1.659-1.632,2.448-2.448
		c0.734-0.734,1.442-1.469,2.122-2.23c0.054-0.027,0.081-0.054,0.081-0.081c0.245-0.245,0.463-0.49,0.68-0.734
		c0.272-0.299,0.544-0.598,0.789-0.898c0.19-0.245,0.408-0.489,0.598-0.734c4.134-5.086,7.697-10.607,10.635-16.51
		c4.134-8.241,7.044-17.19,8.513-26.628c0.027-0.081,0.027-0.163,0.027-0.245c0.843-4.569,1.414-13.681,1.741-17.135
		c0,0,0.027,0.027,0.027,0.054v-0.653c0.027-0.245,0.027-0.462,0.027-0.68c0.054-1.333,0.136-2.665,0.218-4.025
		c0.054-0.326,0.081-0.653,0.109-0.979c0.109-1.034,0.245-2.067,0.381-3.073c0.027-0.272,0.081-0.544,0.109-0.843
		c0.109-0.598,0.218-1.224,0.326-1.849c0.054-0.435,0.136-0.843,0.218-1.251c0.027-0.163,0.054-0.354,0.082-0.517
		c0.054-0.245,0.136-0.517,0.19-0.789c0.054-0.272,0.136-0.571,0.19-0.843c0-0.082,0.027-0.163,0.054-0.245
		c0.054-0.353,0.136-0.68,0.218-1.006c0.082-0.327,0.163-0.626,0.245-0.925c0.082-0.354,0.136-0.653,0.245-1.006
		c0.027-0.054,0.027-0.136,0.054-0.19c0-0.027,0-0.054,0.027-0.082c0.218-0.816,0.462-1.632,0.707-2.421
		c0.054-0.217,0.109-0.408,0.163-0.626c0.082-0.245,0.163-0.49,0.245-0.734c0.136-0.435,0.299-0.87,0.435-1.306
		c0.462-1.333,0.952-2.665,1.496-3.971c0.517-1.251,1.034-2.475,1.605-3.699c0.027-0.054,0.054-0.109,0.081-0.163
		c1.197-2.529,2.529-5.005,3.971-7.398c0.707-1.142,1.442-2.285,2.176-3.4c0.136-0.218,0.272-0.408,0.435-0.626
		c0.653-0.925,1.305-1.85,1.985-2.747c0.136-0.163,0.272-0.327,0.381-0.49c0.354-0.463,0.734-0.925,1.115-1.387
		c0.49-0.653,1.034-1.278,1.55-1.877c0.762-0.87,1.523-1.713,2.312-2.557c0.054-0.082,0.136-0.163,0.218-0.245
		c0.789-0.816,1.578-1.632,2.421-2.421c0.707-0.707,1.414-1.387,2.176-2.013c0.109-0.136,0.218-0.218,0.326-0.326
		c0.87-0.762,1.741-1.523,2.638-2.23c0.054-0.027,0.082-0.082,0.136-0.109c0.626-0.517,1.251-1.006,1.877-1.496
		c0.707-0.517,1.387-1.034,2.094-1.523c0.68-0.489,1.387-0.979,2.094-1.441c0.027-0.027,0.082-0.054,0.109-0.082
		c0.68-0.435,1.387-0.897,2.094-1.333c0.26-0.157,0.525-0.303,0.786-0.458c0.669-0.403,1.343-0.798,2.025-1.179
		c1.073-0.603,2.155-1.187,3.254-1.736c0.952-0.463,1.904-0.925,2.856-1.36c0.163-0.082,0.299-0.163,0.462-0.217
		c0.027,0,0.027-0.027,0.054-0.027c0.598-0.299,1.224-0.571,1.85-0.816c0.109-0.027,0.19-0.054,0.272-0.109
		c0.326-0.136,0.626-0.245,0.952-0.353c0.626-0.272,1.251-0.49,1.877-0.734c0.354-0.136,0.68-0.245,1.034-0.354
		c0.789-0.272,1.577-0.544,2.366-0.816c1.17-0.354,2.339-0.707,3.509-1.006c0.218-0.054,0.435-0.109,0.653-0.163
		c1.088-0.272,2.203-0.544,3.318-0.761c0.326-0.054,0.626-0.109,0.925-0.19c1.061-0.191,2.094-0.381,3.155-0.544
		c0.326-0.054,0.653-0.082,0.979-0.136c1.061-0.163,2.121-0.272,3.182-0.381l0.979-0.082c0.218-0.027,0.435-0.054,0.68-0.081
		c0.463-0.054,0.925-0.054,1.414-0.082h0.354c0.49-0.027,0.979-0.054,1.496-0.081c0.054,0,0.054,0.027,0.082,0.027h0.027
		c0.027,0,0.054-0.027,0.054-0.027c0.163-0.027,0.354-0.027,0.517-0.027C248.463,0,249.197,0,249.931,0
		c0.925,0,1.822,0.027,2.747,0.054c0.027,0.027,0.082,0.027,0.163,0c0.517,0.027,1.006,0.054,1.496,0.081h0.163
		c0.544,0.027,1.088,0.027,1.605,0.082c0.245,0.027,0.462,0.054,0.68,0.081l0.979,0.082c0.408,0.054,0.816,0.082,1.251,0.136
		c0.653,0.082,1.305,0.163,1.931,0.245c1.251,0.19,2.475,0.38,3.726,0.626c0.136,0,0.272,0.027,0.408,0.054
		c0.299,0.081,0.598,0.136,0.925,0.19c0.421,0.082,0.833,0.193,1.253,0.288c0.063,0.015,0.126,0.024,0.189,0.039
		c0.059,0.013,0.117,0.031,0.176,0.045c0.568,0.132,1.143,0.251,1.701,0.39c0.218,0.054,0.435,0.109,0.653,0.163
		c0.598,0.163,1.17,0.326,1.741,0.489c0.163,0.054,0.326,0.109,0.517,0.163c0.435,0.109,0.843,0.218,1.251,0.354
		c0.19,0.082,0.408,0.136,0.598,0.217c0.843,0.272,1.686,0.571,2.529,0.871c0.082,0,0.19,0.054,0.272,0.082
		c0.952,0.353,1.877,0.707,2.829,1.088c0.082,0.054,0.163,0.082,0.272,0.109c2.067,0.843,4.107,1.795,6.093,2.856
		c1.006,0.544,2.013,1.088,2.992,1.659l0.004,0.004c7.863,4.5,14.867,10.322,20.726,17.17c0.232,0.268,0.455,0.543,0.683,0.813
		c0.533,0.64,1.073,1.273,1.586,1.93c0.012,0.016,0.026,0.031,0.038,0.046c0,0,0,0.005,0,0.005c0.879,1.129,1.739,2.273,2.557,3.449
		c0.626,0.871,1.224,1.768,1.795,2.693c0.598,0.898,1.17,1.822,1.659,2.747c0.49,0.734,0.898,1.496,1.305,2.258
		c0.598,1.088,1.17,2.203,1.714,3.345c0.109,0.217,0.218,0.462,0.299,0.68c1.197,2.475,2.23,5.059,3.128,7.67
		c0.136,0.435,0.299,0.87,0.435,1.306c0.082,0.217,0.163,0.435,0.218,0.68c0.054,0.217,0.136,0.463,0.19,0.68
		c0.272,0.843,0.517,1.714,0.762,2.584c0.109,0.38,0.19,0.734,0.272,1.115c0.272,1.006,0.49,2.013,0.707,3.019
		c0.054,0.299,0.136,0.571,0.19,0.843c0.217,1.17,0.435,2.366,0.626,3.536c0.027,0.136,0.054,0.299,0.054,0.463
		c0.109,0.68,0.19,1.387,0.272,2.094c0.109,0.707,0.19,1.414,0.245,2.121c0.109,1.442,0.19,2.856,0.245,4.27
		c0.027,0.272,0.027,0.571,0.027,0.843v0.489c0-0.054,0-0.054,0.027-0.082c0.163,1.632,0.354,4.542,0.626,7.643
		c0.027,0.163,0.054,0.326,0.054,0.489c0.299,3.291,0.626,6.745,1.061,9.03c0,0.082,0,0.163,0.027,0.245
		c1.469,9.438,4.379,18.387,8.513,26.628c2.938,5.902,6.501,11.424,10.635,16.51c0.19,0.245,0.408,0.49,0.598,0.734
		c0.245,0.299,0.517,0.598,0.789,0.898c0.217,0.245,0.435,0.489,0.68,0.734c0,0.027,0.027,0.054,0.082,0.081
		c0.68,0.762,1.387,1.496,2.122,2.23c0.299,0.327,0.626,0.626,0.952,0.952l1.496,1.496c0.326,0.326,0.626,0.653,0.952,0.952h0.027
		c0.979,0.979,1.985,1.931,3.019,2.883c1.006,0.898,2.013,1.795,3.046,2.611c2.067,1.714,4.189,3.291,6.364,4.733
		c0.109,0.082,0.245,0.163,0.381,0.245c1.034,0.707,2.067,1.36,3.155,1.985c1.006,0.626,2.04,1.224,3.073,1.768
		c0.299,0.19,0.626,0.354,0.925,0.49c0.326,0.217,0.653,0.38,0.979,0.544c0.707,0.353,1.387,0.707,2.094,1.033
		c1.142,0.571,2.312,1.088,3.482,1.578c0.19,0.082,0.381,0.163,0.544,0.218c1.034,0.462,2.067,0.87,3.101,1.278
		c1.523,0.544,3.019,1.06,4.542,1.523c2.394,0.789,4.841,1.442,7.317,1.986c6.065,1.387,12.321,2.148,18.631,2.284
		c0.843,0.027,1.686,0.027,2.529,0.027c0.109,0,0.218,0.027,0.299,0.027c0.082,0,0.19-0.027,0.299-0.027
		c0.843,0,1.686,0,2.529-0.027c6.31-0.136,12.566-0.897,18.631-2.284c2.475-0.544,4.923-1.197,7.317-1.986
		c1.523-0.463,3.019-0.979,4.542-1.523c1.034-0.408,2.067-0.816,3.101-1.278c0.163-0.054,0.354-0.136,0.544-0.218
		c1.17-0.489,2.339-1.006,3.481-1.578c0.707-0.326,1.387-0.68,2.094-1.033c0.326-0.163,0.653-0.327,0.979-0.544
		c0.299-0.136,0.626-0.299,0.925-0.49c1.034-0.544,2.067-1.142,3.074-1.768c1.088-0.626,2.121-1.278,3.155-1.985
		c0.136-0.082,0.272-0.163,0.381-0.245c2.176-1.441,4.297-3.019,6.364-4.733c1.034-0.816,2.04-1.713,3.046-2.611
		c1.034-0.952,2.04-1.904,3.019-2.883h0.027l0.734-0.734c0.082-0.082,0.163-0.163,0.245-0.217c0.408-0.408,0.816-0.816,1.224-1.224
		c0.435-0.408,0.816-0.816,1.224-1.224c0.734-0.734,1.442-1.469,2.122-2.23c0.054-0.027,0.082-0.054,0.082-0.081
		c0.245-0.245,0.462-0.49,0.68-0.734c0.272-0.299,0.544-0.598,0.789-0.898c0.19-0.245,0.408-0.489,0.598-0.734
		c4.134-5.086,7.697-10.607,10.635-16.51c4.134-8.241,7.044-17.19,8.513-26.628c0.027-0.081,0.027-0.163,0.027-0.245
		c0.462-2.584,0.87-6.609,1.17-10.254c0.027-0.408,0.081-0.816,0.109-1.197c0.163-1.958,0.299-3.727,0.408-5.005v-0.082
		c0.027-0.244,0.027-0.462,0.054-0.653c0.027,0.027,0.027,0.054,0.027,0.109v-0.653c0.027-0.245,0.027-0.462,0.027-0.68
		c0.054-1.414,0.136-2.829,0.245-4.27c0.136-1.414,0.327-2.828,0.517-4.216c0.027-0.136,0.054-0.245,0.054-0.381
		c0.19-1.197,0.408-2.42,0.625-3.617c0.055-0.272,0.136-0.544,0.19-0.843c0.218-1.007,0.435-2.013,0.707-3.019
		c0.082-0.38,0.163-0.734,0.272-1.115c0.245-0.871,0.49-1.741,0.761-2.584c0.136-0.463,0.245-0.897,0.408-1.36
		c0.136-0.435,0.299-0.87,0.435-1.306c1.85-5.358,4.243-10.444,7.153-15.231c0.517-0.843,1.061-1.687,1.632-2.53
		c0.299-0.49,0.626-0.979,0.979-1.469c0.109-0.163,0.217-0.327,0.326-0.463c0.734-1.061,1.523-2.094,2.339-3.128
		c0-0.027,0-0.027,0-0.027c0.976-1.244,2.011-2.451,3.077-3.641c0.823-0.933,1.672-1.835,2.539-2.723
		c0.394-0.408,0.776-0.83,1.184-1.224c0.598-0.598,1.224-1.197,1.822-1.768c1.251-1.197,2.529-2.312,3.862-3.345
		c1.305-1.088,2.665-2.122,4.053-3.101c2.094-1.523,4.27-2.91,6.5-4.161c0.898-0.517,1.822-1.034,2.747-1.523
		c0.245-0.109,0.463-0.245,0.707-0.354c0.87-0.435,1.741-0.87,2.611-1.278c1.006-0.489,2.013-0.925,3.046-1.36
		c0.054,0,0.082-0.027,0.109-0.027c0.054-0.027,0.109-0.054,0.163-0.082c0.952-0.38,1.877-0.734,2.829-1.088
		c0.082-0.027,0.163-0.054,0.245-0.082c0.272-0.109,0.517-0.191,0.789-0.272c0.68-0.244,1.333-0.462,2.013-0.68
		c1.496-0.489,2.992-0.924,4.515-1.305c0.626-0.136,1.224-0.299,1.85-0.435c0.49-0.136,0.979-0.218,1.469-0.326
		c0.326-0.054,0.625-0.109,0.925-0.19c0.136-0.027,0.245-0.054,0.381-0.054c1.877-0.354,3.753-0.653,5.657-0.871
		c0.408-0.054,0.843-0.082,1.278-0.136l0.979-0.082c0.218-0.027,0.435-0.054,0.68-0.081c0.49-0.054,1.034-0.054,1.55-0.082h0.218
		c0.49-0.027,0.979-0.054,1.496-0.081c0.082,0.027,0.136,0.027,0.163,0C590.136,0.027,591.034,0,591.958,0
		c0.734,0,1.469,0,2.23,0.027c0.163,0,0.354,0,0.517,0.027c0.027,0,0.027,0.027,0.054,0.027h0.027c0.027,0,0.054-0.027,0.082-0.027
		c0.517,0.027,1.006,0.054,1.496,0.081h0.245c0.027,0,0.027,0,0.054,0c0.49,0.027,1.006,0.027,1.469,0.082
		c0.245,0.027,0.462,0.054,0.68,0.081l0.979,0.082c1.061,0.109,2.121,0.218,3.182,0.381c0.326,0.054,0.653,0.081,0.979,0.136
		c1.061,0.163,2.094,0.354,3.155,0.544c0.299,0.081,0.598,0.136,0.925,0.19c1.115,0.217,2.23,0.49,3.318,0.761
		c0.218,0.054,0.435,0.109,0.653,0.163c1.17,0.299,2.339,0.653,3.509,1.006c0.789,0.272,1.578,0.544,2.366,0.816
		c0.353,0.109,0.68,0.218,1.033,0.354c0.952,0.353,1.877,0.707,2.829,1.088c0.081,0.054,0.163,0.082,0.272,0.109
		c0.626,0.272,1.251,0.517,1.877,0.843c0.163,0.054,0.299,0.136,0.462,0.217c0.952,0.435,1.904,0.897,2.856,1.36
		c0.446,0.223,0.881,0.469,1.322,0.702c0.789,0.413,1.572,0.834,2.344,1.274c0.804,0.458,1.606,0.918,2.399,1.397
		c0.734,0.463,1.469,0.925,2.176,1.387c1.442,0.925,2.856,1.904,4.216,2.992c0.68,0.517,1.36,1.061,2.013,1.605
		c0.435,0.353,0.897,0.734,1.333,1.088c0.435,0.381,0.87,0.762,1.305,1.142c1.617,1.423,3.16,2.934,4.648,4.494
		c0.089,0.092,0.187,0.174,0.275,0.266c0.299,0.326,0.598,0.626,0.898,0.952c0.435,0.489,0.87,0.979,1.305,1.469
		c0.109,0.136,0.218,0.245,0.326,0.38c0.245,0.299,0.517,0.599,0.789,0.925c0.272,0.299,0.517,0.626,0.761,0.952
		c0.381,0.463,0.762,0.925,1.115,1.387c0.326,0.408,0.653,0.843,0.979,1.279c0.027,0.054,0.082,0.109,0.109,0.163
		c0.435,0.598,0.87,1.197,1.278,1.795c0.354,0.489,0.68,0.979,0.979,1.469c0.653,0.952,1.251,1.904,1.85,2.883
		c0.653,1.061,1.251,2.148,1.849,3.237c0,0.027,0.027,0.054,0.027,0.082c0.571,1.006,1.088,2.04,1.578,3.101
		c0.136,0.272,0.272,0.544,0.381,0.816c0.326,0.68,0.626,1.36,0.925,2.04c0.299,0.68,0.598,1.36,0.843,2.04
		c0.054,0.136,0.109,0.245,0.136,0.38c0.299,0.653,0.544,1.333,0.789,2.013c0.081,0.218,0.163,0.463,0.245,0.707
		c0.082,0.163,0.136,0.327,0.19,0.49c0.082,0.245,0.163,0.517,0.245,0.761c0.136,0.436,0.272,0.871,0.408,1.279
		c0.054,0.136,0.082,0.272,0.136,0.435c0.19,0.598,0.381,1.224,0.544,1.822c0.082,0.299,0.19,0.626,0.272,0.952
		c0.081,0.272,0.136,0.544,0.19,0.816c0.109,0.408,0.218,0.816,0.299,1.224c0.19,0.68,0.326,1.387,0.49,2.094
		c0,0.054,0.027,0.109,0.027,0.163c0.054,0.245,0.109,0.463,0.163,0.68c0.19,1.006,0.354,2.04,0.517,3.046
		c0.054,0.191,0.082,0.381,0.109,0.571c0,0.136,0.027,0.245,0.054,0.381c0.082,0.653,0.163,1.279,0.245,1.931
		c0,0.054,0,0.109,0.027,0.163c0.082,0.707,0.19,1.414,0.245,2.121c0.027,0.299,0.054,0.626,0.054,0.925
		c0.054,0.762,0.109,1.523,0.136,2.285c0.054,0.789,0.081,1.577,0.081,2.366c0-0.027,0-0.054,0.027-0.082
		c0.326,3.427,0.898,12.593,1.741,17.19c0,0.082,0,0.163,0.027,0.245c1.469,9.438,4.379,18.387,8.513,26.628
		c2.938,5.902,6.501,11.424,10.635,16.51c0.19,0.245,0.408,0.49,0.598,0.734c0.245,0.299,0.517,0.598,0.789,0.898
		c0.217,0.245,0.435,0.489,0.68,0.734c0,0.027,0.027,0.054,0.081,0.081c0.68,0.762,1.387,1.496,2.122,2.23
		c0.789,0.816,1.632,1.632,2.448,2.448c0.082,0.081,0.163,0.163,0.245,0.217c6.473,6.147,13.844,11.315,21.895,15.34
		c8.214,4.134,17.19,7.044,26.601,8.513c0.109,0.027,0.19,0.027,0.272,0.027c7.697,1.414,14.171,1.904,17.571,2.067
		c0.272,0,0.517,0.027,0.761,0.027c0.381,0,0.789,0,1.17,0.027c0.19,0,0.408,0.027,0.598,0.054c0.843,0.027,1.714,0.082,2.584,0.163
		c18.985,1.686,36.12,10.281,48.876,23.228c3.998,4.025,7.534,8.486,10.608,13.3c3.046,4.814,5.603,9.955,7.561,15.367
		c0.789,2.176,1.469,4.379,2.067,6.637c1.197,4.488,1.985,9.138,2.339,13.898c0.027,0.381,0.054,0.762,0.082,1.142
		c0.027,0.789,0.082,1.577,0.109,2.366C841.863,248.163,841.89,249.061,841.89,249.931z"/>
</g>
</svg>
