<?xml version="1.0" encoding="utf-8"?>
<!-- Generator: Adobe Illustrator 25.2.0, SVG Export Plug-In . SVG Version: 6.00 Build 0)  -->
<svg version="1.1" id="Layer_1" xmlns="http://www.w3.org/2000/svg" xmlns:xlink="http://www.w3.org/1999/xlink" x="0px" y="0px"
	 viewBox="0 0 1080 421.8" style="enable-background:new 0 0 1080 421.8;" xml:space="preserve">
<style type="text/css">
	.st0{fill:#333333;}
	.st1{fill:#4C6793;}
</style>
<path class="st0" d="M969.7,218.5h-0.1c-2.1-0.3-4.4-0.6-6.8-1c-1.1-0.2-2.3-0.4-3.5-0.6H959c-12.1-1.9-23.6-5.6-34.1-10.9
	c-10.3-5.2-19.8-11.8-28.1-19.7l-3.4-3.4c-0.9-0.9-1.9-1.9-2.7-2.9c-0.1,0-0.1-0.1-0.1-0.1c-0.3-0.3-0.6-0.6-0.9-0.9
	c-0.4-0.4-0.7-0.8-1-1.1c-0.2-0.3-0.5-0.6-0.8-0.9c-5.3-6.5-9.9-13.6-13.6-21.2c-5.3-10.6-9-22.1-10.9-34.2v-0.3
	c-1.1-5.9-1.8-17.6-2.2-22v-1.6c-0.1-1.7-0.2-3.4-0.3-5.2c-0.1-0.4-0.1-0.8-0.1-1.3c-0.1-1.3-0.3-2.7-0.5-3.9c0-0.3-0.1-0.7-0.1-1.1
	c-0.1-0.8-0.3-1.6-0.4-2.4c-0.1-0.6-0.2-1.1-0.3-1.6c0-0.2-0.1-0.4-0.1-0.7c-0.1-0.3-0.2-0.7-0.2-1s-0.2-0.7-0.2-1.1
	c0-0.1,0-0.2-0.1-0.3c-0.1-0.4-0.2-0.9-0.3-1.3c-0.1-0.4-0.2-0.8-0.3-1.2c-0.1-0.4-0.2-0.8-0.3-1.3c0-0.1,0-0.2-0.1-0.2V75
	c-0.3-1-0.6-2.1-0.9-3.1c-0.1-0.3-0.1-0.5-0.2-0.8c-0.1-0.3-0.2-0.6-0.3-0.9c-0.2-0.6-0.4-1.1-0.6-1.7c-0.6-1.7-1.2-3.4-1.9-5.1
	c-0.7-1.6-1.3-3.2-2.1-4.7c0-0.1-0.1-0.1-0.1-0.2c-1.5-3.2-3.2-6.4-5.1-9.5c-0.9-1.5-1.9-2.9-2.8-4.4c-0.2-0.3-0.4-0.5-0.6-0.8
	c-0.8-1.2-1.7-2.4-2.6-3.5c-0.2-0.2-0.4-0.4-0.5-0.6c-0.4-0.6-0.9-1.2-1.4-1.8c-0.6-0.8-1.3-1.6-2-2.4c-1-1.1-1.9-2.2-3-3.3
	c-0.1-0.1-0.2-0.2-0.3-0.3c-1-1-2-2.1-3.1-3.1c-0.9-0.9-1.8-1.8-2.8-2.6c-0.1-0.2-0.3-0.3-0.4-0.4c-1.1-1-2.2-2-3.4-2.9
	c-0.1,0-0.1-0.1-0.2-0.1c-0.8-0.7-1.6-1.3-2.4-1.9c-0.9-0.7-1.8-1.3-2.7-2c-0.9-0.6-1.8-1.2-2.7-1.9l-0.1-0.1
	c-0.9-0.6-1.8-1.1-2.7-1.7c-0.3-0.2-0.7-0.4-1-0.6c-0.9-0.5-1.7-1-2.6-1.5c-1.4-0.8-2.8-1.5-4.2-2.2c-1.2-0.6-2.5-1.2-3.7-1.7
	c-0.2-0.1-0.4-0.2-0.6-0.3c0,0,0,0-0.1,0c-0.8-0.4-1.6-0.7-2.4-1c-0.1,0-0.2-0.1-0.4-0.1c-0.4-0.2-0.8-0.3-1.2-0.5l-2.4-0.9
	c-0.5-0.2-0.9-0.3-1.3-0.4c-1-0.3-2-0.7-3-1.1c-1.5-0.4-3-0.9-4.5-1.3c-0.3-0.1-0.6-0.1-0.8-0.2c-1.4-0.3-2.8-0.7-4.3-1
	c-0.4-0.1-0.8-0.1-1.2-0.2c-1.4-0.2-2.7-0.5-4-0.7c-0.4-0.1-0.8-0.1-1.3-0.2c-1.4-0.2-2.7-0.3-4.1-0.5l-1.3-0.1
	c-0.3,0-0.5-0.1-0.9-0.1c-0.6-0.1-1.2-0.1-1.8-0.1h-0.5c-0.6,0-1.2-0.1-1.9-0.1c-0.1,0-0.1,0-0.1,0h-3.7c-1.2,0-2.3,0-3.5,0.1
	c0,0-0.1,0-0.2,0c-0.7,0-1.3,0.1-1.9,0.1h-0.2c-0.7,0-1.4,0-2.1,0.1c-0.3,0-0.6,0.1-0.9,0.1l-1.3,0.1c-0.5,0.1-1,0.1-1.6,0.2
	c-0.8,0.1-1.7,0.2-2.5,0.3c-1.6,0.2-3.2,0.5-4.8,0.8c-0.2,0-0.4,0-0.5,0.1c-0.4,0.1-0.8,0.2-1.2,0.2c-0.5,0.1-1.1,0.2-1.6,0.4
	c-0.1,0-0.2,0-0.2,0s-0.1,0-0.2,0.1c-0.7,0.2-1.5,0.3-2.2,0.5c-0.3,0.1-0.5,0.1-0.8,0.2c-0.8,0.2-1.5,0.4-2.2,0.6
	c-0.2,0.1-0.4,0.1-0.7,0.2c-0.6,0.1-1.1,0.3-1.6,0.4c-0.2,0.1-0.5,0.2-0.8,0.3c-1.1,0.3-2.2,0.7-3.2,1.1c-0.1,0-0.2,0.1-0.4,0.1
	c-1.2,0.5-2.4,0.9-3.6,1.4c-0.1,0.1-0.2,0.1-0.3,0.1c-2.7,1.1-5.3,2.3-7.8,3.7c-1.3,0.7-2.6,1.4-3.8,2.1c-5,2.9-9.8,6.2-14.3,9.9
	c-4.5,3.7-8.6,7.8-12.3,12.1c-0.3,0.3-0.6,0.7-0.9,1c-0.7,0.8-1.4,1.6-2,2.5c0,0,0,0,0,0.1c-1.1,1.4-2.2,2.9-3.3,4.4
	c-0.8,1.1-1.6,2.3-2.3,3.5c-0.8,1.2-1.5,2.3-2.1,3.5c-0.6,0.9-1.1,1.9-1.7,2.9c-0.8,1.4-1.5,2.8-2.2,4.3c-0.1,0.3-0.3,0.6-0.4,0.9
	c-1.5,3.2-2.9,6.5-4,9.8c-0.2,0.6-0.4,1.1-0.6,1.7c-0.1,0.3-0.2,0.6-0.3,0.9c-0.1,0.3-0.2,0.6-0.2,0.9c-0.4,1.1-0.7,2.2-1,3.3
	c-0.1,0.5-0.2,0.9-0.4,1.4c-0.4,1.3-0.6,2.6-0.9,3.9c-0.1,0.4-0.2,0.7-0.2,1.1c-0.3,1.5-0.6,3-0.8,4.5c0,0.2-0.1,0.4-0.1,0.6
	c-0.1,0.9-0.2,1.8-0.4,2.7c-0.1,0.9-0.2,1.8-0.3,2.7c-0.1,1.8-0.2,3.7-0.3,5.5v1.6c-0.2,2.1-0.5,5.8-0.8,9.8c0,0.2-0.1,0.4-0.1,0.6
	c-0.4,4.2-0.8,8.7-1.4,11.6v0.3c-1.9,12.1-5.6,23.6-10.9,34.2c-3.8,7.6-8.3,14.6-13.6,21.2c-0.2,0.3-0.5,0.6-0.8,0.9
	c-0.3,0.4-0.7,0.8-1,1.1c-0.3,0.3-0.6,0.6-0.9,0.9c0,0,0,0.1-0.1,0.1c-0.9,1-1.8,1.9-2.7,2.9c-0.4,0.4-0.8,0.8-1.2,1.2l-1.9,1.9
	c-0.4,0.4-0.8,0.8-1.2,1.2c-1.2,1.3-2.5,2.5-3.9,3.7c-1.3,1.1-2.6,2.3-3.9,3.4c-2.6,2.2-5.4,4.2-8.2,6.1c-0.1,0.1-0.3,0.2-0.5,0.3
	c-1.3,0.9-2.6,1.8-4,2.6c-1.3,0.8-2.6,1.6-3.9,2.3c-0.4,0.2-0.8,0.4-1.2,0.6c-0.4,0.3-0.8,0.5-1.2,0.7c-0.9,0.5-1.8,0.9-2.7,1.3
	c-1.5,0.7-3,1.4-4.5,2c-0.2,0.1-0.5,0.2-0.7,0.3c-1.3,0.6-2.6,1.1-4,1.6c-2,0.7-3.9,1.4-5.8,2c-3.1,1-6.2,1.9-9.4,2.5
	c-7.8,1.8-15.8,2.8-23.9,2.9H540h-4.2c-8.1-0.1-16.1-1.1-23.9-2.9c-3.2-0.6-6.3-1.5-9.4-2.5c-1.9-0.6-3.8-1.3-5.8-2
	c-1.4-0.5-2.7-1-4-1.6c-0.2-0.1-0.5-0.2-0.7-0.3c-1.5-0.6-3-1.3-4.5-2c-0.9-0.4-1.8-0.8-2.7-1.3c-0.4-0.2-0.8-0.4-1.2-0.7
	c-0.4-0.2-0.8-0.4-1.2-0.6c-1.3-0.7-2.6-1.5-3.9-2.3c-1.4-0.8-2.7-1.7-4-2.6c-0.2-0.1-0.4-0.2-0.5-0.3c-2.8-1.9-5.6-3.9-8.2-6.1
	c-1.3-1.1-2.6-2.3-3.9-3.4c-1.4-1.2-2.7-2.4-3.9-3.7c-0.4-0.4-0.8-0.8-1.2-1.2l-1.9-1.9c-0.4-0.4-0.8-0.8-1.2-1.2
	c-0.9-1-1.8-1.9-2.7-2.9c-0.1,0-0.1-0.1-0.1-0.1c-0.3-0.3-0.6-0.6-0.9-0.9c-0.3-0.3-0.7-0.7-1-1.1c-0.3-0.3-0.6-0.6-0.8-0.9
	c-5.3-6.6-9.8-13.6-13.6-21.2c-5.3-10.6-9-22.1-10.9-34.2v-0.3c-0.6-2.9-1-7.4-1.4-11.6c0-0.2-0.1-0.4-0.1-0.6
	c-0.3-4-0.6-7.7-0.8-9.8v-1.6c-0.1-1.8-0.2-3.7-0.3-5.5c-0.1-0.9-0.2-1.8-0.3-2.7c-0.2-0.9-0.3-1.8-0.4-2.7c0-0.2-0.1-0.4-0.1-0.6
	c-0.2-1.5-0.5-3-0.8-4.5c0-0.4-0.1-0.7-0.2-1.1c-0.3-1.3-0.5-2.6-0.9-3.9c-0.2-0.5-0.3-0.9-0.4-1.4c-0.3-1.1-0.6-2.2-1-3.3
	c0-0.3-0.1-0.6-0.2-0.9c-0.1-0.3-0.2-0.6-0.3-0.9c-0.2-0.6-0.4-1.1-0.6-1.7c-1.1-3.3-2.5-6.6-4-9.8c-0.1-0.3-0.3-0.6-0.4-0.9
	c-0.7-1.5-1.4-2.9-2.2-4.3c-0.6-1-1.1-2-1.7-2.9c-0.6-1.2-1.3-2.3-2.1-3.5c-0.7-1.2-1.5-2.4-2.3-3.5c-1.1-1.5-2.2-3-3.3-4.4
	c0-0.1,0-0.1,0-0.1c-0.6-0.9-1.3-1.7-2-2.5c-0.3-0.3-0.6-0.7-0.9-1c-3.7-4.3-7.8-8.4-12.3-12.1c-4.5-3.7-9.3-7-14.3-9.9
	c-1.2-0.7-2.5-1.4-3.8-2.1c-2.5-1.4-5.1-2.6-7.8-3.7c-0.1,0-0.2,0-0.3-0.1c-1.2-0.5-2.4-0.9-3.6-1.4c-0.2,0-0.3-0.1-0.4-0.1
	c-1-0.4-2.1-0.8-3.2-1.1c-0.3-0.1-0.6-0.2-0.8-0.3c-0.5-0.1-1-0.3-1.6-0.4c-0.3-0.1-0.5-0.1-0.7-0.2c-0.7-0.2-1.4-0.4-2.2-0.6
	c-0.3-0.1-0.5-0.1-0.8-0.2c-0.7-0.2-1.5-0.3-2.2-0.5c-0.1-0.1-0.2-0.1-0.2-0.1s-0.1,0-0.2,0c-0.5-0.2-1.1-0.3-1.6-0.4
	c-0.4,0-0.8-0.1-1.2-0.2c-0.1-0.1-0.3-0.1-0.5-0.1c-1.6-0.3-3.2-0.6-4.8-0.8c-0.8-0.1-1.7-0.2-2.5-0.3c-0.6-0.1-1.1-0.1-1.6-0.2
	l-1.3-0.1c-0.3,0-0.6-0.1-0.9-0.1c-0.7-0.1-1.4-0.1-2.1-0.1h-0.2c-0.6,0-1.2-0.1-1.9-0.1c-0.1,0-0.2,0-0.2,0
	c-1.2-0.1-2.3-0.1-3.5-0.1h-3.7c0,0,0,0-0.1,0c-0.7,0-1.3,0.1-1.9,0.1h-0.5c-0.6,0-1.2,0-1.8,0.1c-0.4,0-0.6,0.1-0.9,0.1l-1.3,0.1
	c-1.4,0.2-2.7,0.3-4.1,0.5c-0.5,0.1-0.9,0.1-1.3,0.2c-1.3,0.2-2.6,0.5-4,0.7c-0.4,0.1-0.8,0.1-1.2,0.2c-1.5,0.3-2.9,0.7-4.3,1
	c-0.2,0.1-0.5,0.1-0.8,0.2c-1.5,0.4-3,0.9-4.5,1.3c-1,0.4-2,0.8-3,1.1c-0.4,0.1-0.8,0.2-1.3,0.4l-2.4,0.9c-0.4,0.2-0.8,0.3-1.2,0.5
	c-0.2,0-0.3,0.1-0.4,0.1c-0.8,0.3-1.6,0.6-2.4,1c-0.1,0-0.1,0-0.1,0c-0.2,0.1-0.4,0.2-0.6,0.3c-1.2,0.5-2.5,1.1-3.7,1.7
	c-1.4,0.7-2.8,1.4-4.2,2.2c-0.9,0.5-1.7,1-2.6,1.5c-0.3,0.2-0.7,0.4-1,0.6c-0.9,0.6-1.8,1.1-2.7,1.7l-0.1,0.1
	c-0.9,0.7-1.8,1.3-2.7,1.9c-0.9,0.7-1.8,1.3-2.7,2c-0.8,0.6-1.6,1.2-2.4,1.9c-0.1,0-0.1,0.1-0.2,0.1c-1.2,0.9-2.3,1.9-3.4,2.9
	c-0.1,0.1-0.3,0.2-0.4,0.4c-1,0.8-1.9,1.7-2.8,2.6c-1.1,1-2.1,2.1-3.1,3.1c-0.1,0.1-0.2,0.2-0.3,0.3c-1.1,1.1-2,2.2-3,3.3
	c-0.7,0.8-1.4,1.6-2,2.4c-0.5,0.6-1,1.2-1.4,1.8c-0.1,0.2-0.3,0.4-0.5,0.6c-0.9,1.1-1.8,2.3-2.6,3.5c-0.2,0.3-0.4,0.5-0.6,0.8
	c-0.9,1.5-1.9,2.9-2.8,4.4c-1.9,3.1-3.6,6.3-5.1,9.5c0,0.1-0.1,0.1-0.1,0.2c-0.8,1.5-1.4,3.1-2.1,4.7c-0.7,1.7-1.3,3.4-1.9,5.1
	c-0.2,0.6-0.4,1.1-0.6,1.7c-0.1,0.3-0.2,0.6-0.3,0.9c-0.1,0.3-0.1,0.5-0.2,0.8c-0.3,1-0.6,2.1-0.9,3.1v0.1c-0.1,0-0.1,0.1-0.1,0.2
	c-0.1,0.5-0.2,0.9-0.3,1.3c-0.1,0.4-0.2,0.8-0.3,1.2c-0.1,0.4-0.2,0.9-0.3,1.3c-0.1,0.1-0.1,0.2-0.1,0.3c0,0.4-0.2,0.8-0.2,1.1
	s-0.1,0.7-0.2,1c0,0.3-0.1,0.5-0.1,0.7c-0.1,0.5-0.2,1-0.3,1.6c-0.1,0.8-0.3,1.6-0.4,2.4c0,0.4-0.1,0.8-0.1,1.1
	c-0.2,1.2-0.4,2.6-0.5,3.9c0,0.5,0,0.9-0.1,1.3c-0.1,1.8-0.2,3.5-0.3,5.2v1.6c-0.4,4.4-1.1,16.1-2.2,22v0.3
	c-1.9,12.1-5.6,23.6-10.9,34.2c-3.7,7.6-8.3,14.7-13.6,21.2c-0.3,0.3-0.6,0.6-0.8,0.9c-0.3,0.3-0.6,0.7-1,1.1
	c-0.3,0.3-0.6,0.6-0.9,0.9c0,0,0,0.1-0.1,0.1c-0.8,1-1.8,2-2.7,2.9l-3.4,3.4c-8.3,7.9-17.8,14.5-28.1,19.7c-10.5,5.3-22,9-34.1,10.9
	h-0.3c-1.2,0.2-2.4,0.4-3.5,0.6c-2.4,0.4-4.7,0.7-6.8,1h-0.1c-36.8,6.9-64.7,39.2-64.7,78.1c0,43.8,35.5,79.4,79.4,79.4
	c39.6,0,72.4-29,78.4-66.9c0.2-0.8,0.3-1.6,0.4-2.4v-0.1c0.2-1.8,0.5-3.7,0.9-5.6v-0.3c1.9-12.2,5.6-23.6,10.9-34.2
	c3.7-7.6,8.3-14.7,13.6-21.2c0.5-0.6,1-1.3,1.6-1.9c1.2-1.4,2.4-2.8,3.6-4.1l0.4-0.4c0.3-0.2,0.5-0.5,0.8-0.8c1-1,2-2.1,3.1-3.1
	c1.3-1.3,2.6-2.5,3.9-3.7c1.3-1.2,2.6-2.3,3.9-3.4c2.7-2.2,5.4-4.2,8.2-6.1c0.1-0.1,0.3-0.2,0.5-0.3c1.3-0.9,2.6-1.7,4-2.5
	c1.3-0.8,2.7-1.6,4-2.3c0.4-0.2,0.8-0.4,1.2-0.6c0.5-0.3,0.9-0.5,1.3-0.7c0.9-0.4,1.8-0.9,2.7-1.3c1.5-0.7,3-1.4,4.5-2
	c0.2-0.1,0.5-0.2,0.7-0.3c1.4-0.5,2.7-1.1,4-1.6c1.9-0.6,3.8-1.3,5.8-1.9c3.1-1.1,6.2-1.9,9.4-2.6c7.8-1.8,15.8-2.7,23.9-2.9h7.3
	c8.1,0.1,16.1,1.1,23.9,2.9c3.2,0.7,6.3,1.6,9.4,2.6c1.9,0.5,3.8,1.2,5.8,1.9c1.4,0.5,2.7,1,4,1.6c0.2,0.1,0.5,0.2,0.7,0.3
	c1.5,0.6,3,1.3,4.5,2c0.9,0.4,1.8,0.9,2.7,1.3c0.5,0.2,0.9,0.4,1.3,0.7c0.4,0.2,0.8,0.4,1.2,0.6c1.3,0.7,2.6,1.5,3.9,2.3
	c1.4,0.8,2.7,1.6,4,2.5c0.2,0.1,0.4,0.2,0.5,0.3c2.8,1.9,5.5,3.9,8.2,6.1c1.3,1.1,2.6,2.3,3.9,3.4c1.4,1.2,2.6,2.4,3.9,3.7
	c0.3,0.2,0.6,0.5,0.9,0.9c0.1,0.1,0.2,0.2,0.3,0.3l1.9,1.9c0.3,0.2,0.6,0.5,0.8,0.8l0.4,0.4c1.3,1.3,2.5,2.7,3.6,4.1
	c0.6,0.6,1.1,1.2,1.6,1.9c5.3,6.5,9.8,13.6,13.6,21.2c5.3,10.6,9,22.1,10.9,34.2v0.3c0.7,4.2,1.3,8.1,1.7,11.6
	c0.1,0.2,0.1,0.4,0.1,0.6c0.2,1.2,0.3,2.3,0.4,3.4c0.3,2.6,0.4,4.7,0.5,6.4v0.7c0,0.3,0.1,0.6,0.1,0.9v1c0,1.5,0.1,2.9,0.2,4.4
	c0.1,0.9,0.2,1.8,0.3,2.7c0.2,0.9,0.3,1.8,0.4,2.7c0.1,0.2,0.1,0.3,0.1,0.5v0.1c0.1,1,0.3,2,0.5,3c0.1,0.5,0.2,1,0.3,1.5
	c0.4,2.2,0.9,4.3,1.5,6.4c0,0.3,0.1,0.6,0.2,0.9c0.3,1.1,0.6,2.2,1,3.3c0.1,0.3,0.2,0.6,0.3,0.9c0.2,0.6,0.4,1.1,0.6,1.7l0.6,1.5
	c0.1,0.3,0.2,0.6,0.3,0.9c0.2,0.3,0.3,0.6,0.4,0.9c0.2,0.4,0.3,0.7,0.5,1.1c0.2,0.6,0.5,1.2,0.7,1.8c0.3,0.8,0.7,1.6,1.1,2.4
	c0.3,0.6,0.6,1.2,0.8,1.8c0.6,1.2,1.1,2.4,1.8,3.5c0.4,0.8,0.8,1.6,1.2,2.4c0.1,0.3,0.3,0.6,0.5,0.8c0.3,0.7,0.6,1.4,1.1,2
	c0.5,0.6,0.8,1.3,1.3,2c0.6,1.1,1.4,2.2,2.1,3.2c0.2,0.3,0.5,0.6,0.7,0.9c0.1,0.3,0.3,0.5,0.5,0.8c0.2,0.4,0.5,0.8,0.8,1.2
	c0.5,0.5,0.9,1.1,1.3,1.6c0.8,1,1.6,2,2.4,3c0.3,0.4,0.7,0.8,1,1.2c0.7,0.8,1.4,1.6,2.1,2.4c0.3,0.4,0.7,0.8,1.1,1.2
	c0.6,0.7,1.3,1.3,1.9,1.9c0.2,0.2,0.4,0.4,0.6,0.6c0.3,0.3,0.6,0.6,1,0.9c1,0.9,1.9,1.9,2.9,2.8c0.6,0.5,1.1,1,1.7,1.5
	s1.1,1,1.7,1.4c0.6,0.5,1.2,1,1.9,1.5c0.4,0.4,0.9,0.7,1.4,1.1c1.3,1,2.6,1.9,4,2.8c0.4,0.2,0.8,0.5,1.2,0.8c0.7,0.5,1.4,1,2.2,1.5
	c0.9,0.6,1.9,1.1,2.8,1.6c0.1,0.1,0.1,0.1,0.2,0.1c0.8,0.5,1.6,0.9,2.4,1.4c0.8,0.4,1.6,0.9,2.4,1.2c0.7,0.3,1.5,0.6,2.2,1
	c0.3,0.2,0.6,0.3,1,0.5c0.2,0.1,0.3,0.1,0.5,0.2c0.2,0.1,0.4,0.2,0.6,0.3c1.9,0.9,3.9,1.6,5.9,2.4c0.3,0.1,0.5,0.2,0.8,0.3
	c0.3,0.2,0.6,0.3,1,0.4c0.8,0.3,1.5,0.6,2.3,0.8c0.8,0.3,1.7,0.6,2.5,0.8c0.2,0,0.4,0.1,0.5,0.1c1.8,0.5,3.7,1,5.5,1.4
	c3,0.7,6,1.2,9,1.6c0.6,0.1,1.1,0.1,1.6,0.2h0.3c0.7,0.1,1.3,0.1,1.9,0.2c0.1,0,0.1,0,0.2,0h0.2c0.5,0,0.9,0.1,1.3,0.1
	c0.4,0.1,0.8,0.1,1.3,0.1h0.5c0.1,0,0.1,0,0.1,0c0.1,0,0.1,0,0.1,0s0,0,0.1,0h0.6c0.5,0.1,0.9,0.1,1.4,0.1h0.3c0.1,0,0.1,0,0.1,0
	h3.5h3.5c0,0,0,0,0.1,0h0.3c0.5,0,0.9,0,1.4-0.1h0.6c0.1,0,0.1,0,0.1,0s0,0,0.1,0c0,0,0,0,0.1,0h0.5c0.5,0,0.9,0,1.3-0.1
	c0.4,0,0.8-0.1,1.3-0.1h0.2c0.1,0,0.1,0,0.2,0c0.6-0.1,1.2-0.1,1.9-0.2h0.3c0.5-0.1,1-0.1,1.6-0.2c3-0.4,6-0.9,9-1.6
	c1.8-0.4,3.7-0.9,5.5-1.4c0.1,0,0.3-0.1,0.5-0.1c0.8-0.2,1.7-0.5,2.5-0.8c0.8-0.2,1.5-0.5,2.3-0.8c0.4-0.1,0.7-0.2,1-0.4
	c0.3-0.1,0.5-0.2,0.8-0.3c2-0.8,4-1.5,5.9-2.4c0.2-0.1,0.4-0.2,0.6-0.3c0.2-0.1,0.3-0.1,0.5-0.2c0.4-0.2,0.7-0.3,1-0.5
	c0.7-0.4,1.5-0.7,2.2-1c0.8-0.3,1.6-0.8,2.4-1.2c0.8-0.5,1.6-0.9,2.4-1.4c0.1,0,0.1,0,0.2-0.1c0.9-0.5,1.9-1,2.8-1.6
	c0.8-0.5,1.5-1,2.2-1.5c0.4-0.3,0.8-0.6,1.2-0.8c1.4-0.9,2.7-1.8,4-2.8c0.5-0.4,1-0.7,1.4-1.1c0.7-0.5,1.3-1,1.9-1.5
	c0.6-0.4,1.1-0.9,1.7-1.4s1.1-1,1.7-1.5c1-0.9,1.9-1.9,2.9-2.8c0.4-0.3,0.7-0.6,1-0.9c0.2-0.2,0.4-0.4,0.6-0.6
	c0.6-0.6,1.3-1.2,1.9-1.9c0.4-0.4,0.8-0.8,1.1-1.2c0.7-0.8,1.4-1.6,2.1-2.4c0.3-0.4,0.7-0.8,1-1.2c0.8-1,1.6-2,2.4-3
	c0.4-0.5,0.8-1.1,1.3-1.6c0.3-0.4,0.6-0.8,0.8-1.2c0.2-0.3,0.4-0.5,0.5-0.8c0.2-0.3,0.5-0.6,0.7-0.9c0.7-1,1.5-2.1,2.1-3.2
	c0.5-0.7,0.8-1.4,1.3-2c0.5-0.6,0.8-1.3,1.1-2c0.2-0.2,0.4-0.5,0.5-0.8c0.4-0.8,0.8-1.6,1.2-2.4c0.7-1.1,1.2-2.3,1.8-3.5
	c0.2-0.6,0.5-1.2,0.8-1.8c0.4-0.8,0.8-1.6,1.1-2.4c0.2-0.6,0.5-1.2,0.7-1.8c0.2-0.4,0.3-0.7,0.5-1.1c0.1-0.3,0.2-0.6,0.4-0.9
	c0.1-0.3,0.2-0.6,0.3-0.9l0.6-1.5c0.2-0.6,0.4-1.1,0.6-1.7c0.1-0.3,0.2-0.6,0.3-0.9c0.4-1.1,0.7-2.2,1-3.3c0.1-0.3,0.2-0.6,0.2-0.9
	c0.6-2.1,1.1-4.2,1.5-6.4c0.1-0.5,0.2-1,0.3-1.5c0.2-1,0.4-2,0.5-3v-0.1c0-0.2,0-0.3,0.1-0.5c0.1-0.9,0.2-1.8,0.4-2.7
	c0.1-0.9,0.2-1.8,0.3-2.7c0.1-1.5,0.2-2.9,0.2-4.4v-1c0-0.3,0.1-0.6,0.1-0.9V323c0.1-1.7,0.2-3.8,0.5-6.4c0.1-1.1,0.2-2.2,0.4-3.4
	c0-0.2,0-0.4,0.1-0.6c0.4-3.5,1-7.4,1.7-11.6v-0.3c1.9-12.1,5.6-23.6,10.9-34.2c3.8-7.6,8.3-14.7,13.6-21.2c0.5-0.7,1-1.3,1.6-1.9
	c1.1-1.4,2.3-2.8,3.6-4.1l0.4-0.4c0.2-0.3,0.5-0.6,0.8-0.8l1.9-1.9c0.1-0.1,0.2-0.2,0.3-0.3c0.3-0.4,0.6-0.7,0.9-0.9
	c1.3-1.3,2.5-2.5,3.9-3.7c1.3-1.1,2.6-2.3,3.9-3.4c2.7-2.2,5.4-4.2,8.2-6.1c0.1-0.1,0.3-0.2,0.5-0.3c1.3-0.9,2.6-1.7,4-2.5
	c1.3-0.8,2.6-1.6,3.9-2.3c0.4-0.2,0.8-0.4,1.2-0.6c0.4-0.3,0.8-0.5,1.3-0.7c0.9-0.4,1.8-0.9,2.7-1.3c1.5-0.7,3-1.4,4.5-2
	c0.2-0.1,0.5-0.2,0.7-0.3c1.3-0.6,2.6-1.1,4-1.6c2-0.7,3.9-1.4,5.8-1.9c3.1-1,6.2-1.9,9.4-2.6c7.8-1.8,15.8-2.8,23.9-2.9h7.3
	c8.1,0.2,16.1,1.1,23.9,2.9c3.2,0.7,6.3,1.5,9.4,2.6c2,0.6,3.9,1.3,5.8,1.9c1.3,0.5,2.6,1.1,4,1.6c0.2,0.1,0.5,0.2,0.7,0.3
	c1.5,0.6,3,1.3,4.5,2c0.9,0.4,1.8,0.9,2.7,1.3c0.4,0.2,0.8,0.4,1.3,0.7c0.4,0.2,0.8,0.4,1.2,0.6c1.3,0.7,2.7,1.5,4,2.3
	c1.4,0.8,2.7,1.6,4,2.5c0.2,0.1,0.4,0.2,0.5,0.3c2.8,1.9,5.5,3.9,8.2,6.1c1.3,1.1,2.6,2.2,3.9,3.4c1.3,1.2,2.6,2.4,3.9,3.7
	c1.1,1,2.1,2.1,3.1,3.1c0.3,0.3,0.5,0.6,0.8,0.8l0.4,0.4c1.2,1.3,2.4,2.7,3.6,4.1c0.6,0.6,1.1,1.3,1.6,1.9
	c5.3,6.5,9.9,13.6,13.6,21.2c5.3,10.6,9,22,10.9,34.2v0.3c0.4,1.9,0.7,3.8,0.9,5.6v0.1c0.1,0.8,0.2,1.6,0.4,2.4
	c6,37.9,38.8,66.9,78.4,66.9c43.9,0,79.4-35.6,79.4-79.4C1034.4,257.7,1006.5,225.4,969.7,218.5z"/>
<path class="st1" d="M117.6,217.4c-2.4,0.4-4.7,0.7-6.8,1C113,217.9,115.3,217.6,117.6,217.4z"/>
</svg>
