<?xml version="1.0" encoding="utf-8"?>
<!-- Generator: Adobe Illustrator 25.2.0, SVG Export Plug-In . SVG Version: 6.00 Build 0)  -->
<svg version="1.1" id="Layer_1" xmlns="http://www.w3.org/2000/svg" xmlns:xlink="http://www.w3.org/1999/xlink" x="0px" y="0px"
	 viewBox="0 0 284 45" style="enable-background:new 0 0 284 45;" xml:space="preserve">
<style type="text/css">
	.st0{fill:#232323;}
</style>
<path class="st0" d="M62.7,14.6c-1-2.3-2.6-4.1-4.7-5.4s-4.7-2-7.9-2c-3,0-5.5,0.6-7.5,1.7s-3.5,2.6-4.6,4.4s-1.8,3.8-2.1,5.8h-0.4
	c-0.2-1.6-0.7-3.1-1.3-4.5c-1-2.3-2.6-4.1-4.6-5.5c-2-1.3-4.7-2-7.8-2c-3,0-5.5,0.6-7.5,1.7s-3.4,2.6-4.5,4.3c-1,1.8-1.7,3.7-2,5.7
	H7.2v-11H0v36.4h7.9v-18c0-4,0.8-7,2.3-9c1.6-2,4.3-3,8.2-3c3.5,0,6,0.8,7.5,2.4s2.3,4.2,2.3,7.8v19.8H36l0,0V25.1
	c0.1-3.4,0.9-6.1,2.4-7.8c1.6-2,4.3-3,8.2-3c3.6,0,6.1,0.8,7.6,2.4s2.3,4.2,2.3,7.8v19.8h7.7V22.4C64.2,19.5,63.7,16.9,62.7,14.6z"
	/>
<path class="st0" d="M100.4,9.2c-2.5-1.3-5.6-1.9-9.5-1.9c-3.9,0-7.2,0.6-9.9,1.9c-2.8,1.3-4.9,3-6.3,5.2c-1.5,2.2-2.2,4.6-2.2,7.4
	v0.3h7.8v-0.3c0-2.7,0.8-4.6,2.5-5.8c1.7-1.2,4.2-1.8,7.5-1.8c3.5,0,6,0.6,7.4,1.8c1.4,1.2,2.2,3.3,2.2,6.3v2.1l-16.5,1.8
	c-2.4,0.3-4.5,0.8-6.2,1.5c-1.8,0.7-3.1,1.8-4.1,3c-0.9,1.3-1.4,2.9-1.4,4.8c0,3,1.1,5.3,3.3,7s5.2,2.5,9,2.5
	c4.1,0,7.6-0.9,10.4-2.6s4.6-4.1,5.6-7.2h0.5v9.1h7.2V22.2c0-2.9-0.6-5.5-1.8-7.8C104.7,12.2,102.9,10.5,100.4,9.2z M93.4,38.3
	c-2,0.7-4.5,1.1-7.2,1.1c-2.2,0-3.9-0.3-4.9-1.1c-1.1-0.7-1.6-1.8-1.6-3.2c0-1.4,0.5-2.4,1.5-3s2.5-1,4.6-1.3l14.3-1.6v0.1
	c0,2.3-0.6,4.2-1.8,5.7C97,36.4,95.4,37.6,93.4,38.3z"/>
<path class="st0" d="M142.4,9c-1.8-1.2-4-1.8-6.8-1.8c-2.5,0-4.6,0.5-6.3,1.4s-3.1,2.2-4.1,3.8c-1,1.6-1.7,3.4-2,5.4h-0.5V8h-7.2
	v36.4h7.9l0,0V23.9c0-3.2,0.7-5.7,2-7.4c1.4-1.7,3.6-2.6,6.7-2.6c2.7,0,4.7,0.6,5.9,1.8c1.2,1.2,1.8,3.2,1.8,5.8v3.2h7.8v-4.8
	c0-2.3-0.4-4.4-1.2-6.4C145.4,11.7,144.2,10.1,142.4,9z"/>
<path class="st0" d="M165.9,0h-7.8v8h-6.2v6.6h6.2v17.5c0,4.4,1.1,7.5,3.4,9.4c2.3,1.9,5.3,2.9,9.2,2.9h8.3v-7.1h-6.6
	c-2.2,0-3.9-0.4-5-1.1s-1.6-2.3-1.6-4.5v-17H179V8.1h-13.2V0H165.9z"/>
<rect x="186.9" y="14.5" class="st0" width="7.9" height="29.8"/>
<rect x="186.9" class="st0" width="7.9" height="8"/>
<path class="st0" d="M238.9,14.8c-1.1-2.3-2.8-4.1-5-5.5s-5-2-8.4-2c-3.1,0-5.7,0.6-7.8,1.7s-3.8,2.6-5,4.5c-1.2,1.8-2,3.8-2.4,5.8
	h-0.5V7.9h-7.2v36.4h7.9l0,0V26c0.1-3.8,1-6.7,2.8-8.6c1.9-2,4.8-3,8.7-3c3.8,0,6.5,0.9,8.2,2.6c1.6,1.7,2.5,4.3,2.5,7.7v19.8h7.9
	V22.4C240.5,19.6,240,17.1,238.9,14.8z"/>
<path class="st0" d="M281,27.3c-2.1-1.6-5.2-2.6-9.5-3.2l-8.4-1.2c-2.7-0.4-4.5-0.9-5.5-1.5s-1.5-1.7-1.5-3.1c0-1.7,0.6-3,2-3.7
	c1.3-0.8,3.7-1.2,7-1.2c2.7,0,4.8,0.3,6.2,0.8s2.5,1.3,3.1,2.2c0.6,1,0.9,2.2,0.9,3.6v0.4h7.8v-0.2c0-2.9-0.7-5.3-2.2-7.2
	c-1.4-1.9-3.5-3.4-6.1-4.4c-2.7-1-5.8-1.5-9.5-1.5s-6.8,0.5-9.4,1.4c-2.5,0.9-4.4,2.2-5.7,3.8c-1.3,1.6-1.9,3.5-1.9,5.7
	c0,3.1,1,5.4,2.9,6.9c2,1.5,4.7,2.5,8.1,3l10,1.3c2.6,0.3,4.5,0.8,5.5,1.5c1,0.6,1.5,1.7,1.5,3.2c0,1.6-0.6,2.8-1.9,3.6
	c-1.3,0.8-3.7,1.1-7.3,1.1c-3.8,0-6.5-0.5-8.1-1.4s-2.4-2.5-2.4-4.9v-0.6h-7.9v0.2c0,4.2,1.6,7.4,4.8,9.7c3.2,2.2,7.7,3.4,13.6,3.4
	c3.4,0,6.4-0.4,8.9-1.3c2.5-0.8,4.5-2.1,5.9-3.7s2.1-3.6,2.1-5.8C284.1,31.2,283,28.9,281,27.3z"/>
</svg>
