<?xml version="1.0" encoding="utf-8"?>
<!-- Generator: Adobe Illustrator 25.2.0, SVG Export Plug-In . SVG Version: 6.00 Build 0)  -->
<svg version="1.1" id="Layer_1" xmlns="http://www.w3.org/2000/svg" xmlns:xlink="http://www.w3.org/1999/xlink" x="0px" y="0px"
	 viewBox="0 0 320.2 49.8" style="enable-background:new 0 0 320.2 49.8;" xml:space="preserve">
<style type="text/css">
	.st0{fill:#232323;}
</style>
<path class="st0" d="M28.2,29.3V49H36l0,0V29.8c0.1-3.4,0.9-6.1,2.3-7.8c1.6-2,4.3-3,8.2-3c3.6,0,6.1,0.8,7.6,2.4s2.3,4.2,2.3,7.8
	V49h7.8V27.1c0-2.9-0.5-5.5-1.6-7.8s-2.6-4.1-4.7-5.4c-2.1-1.3-4.7-2-7.9-2c-3,0-5.5,0.6-7.5,1.7S39,16.2,37.9,18s-1.8,3.8-2.1,5.8
	h-0.4c-0.2-1.6-0.7-3.1-1.3-4.5c-1-2.3-2.6-4.1-4.6-5.5c-2-1.3-4.7-2-7.8-2c-3,0-5.5,0.6-7.5,1.7s-3.4,2.6-4.5,4.3
	c-1,1.8-1.7,3.7-2,5.7H7.2v-11H0V49h7.9c0,0,0-10.9,0-18c0-4,0.8-7,2.3-9c1.6-2,4.3-3,8.2-3c3.5,0,6,0.8,7.5,2.4
	S28.2,25.7,28.2,29.3z"/>
<path class="st0" d="M100,39.9h0.5V49h7.2V26.9c0-2.9-0.6-5.5-1.8-7.8c-1.2-2.2-3-4-5.5-5.3s-5.6-1.9-9.5-1.9s-7.2,0.6-9.9,1.9
	c-2.8,1.3-4.9,3-6.3,5.2c-1.5,2.2-2.2,4.6-2.2,7.4v0.3h7.8v-0.3c0-2.7,0.8-4.6,2.5-5.8c1.6-1.2,4.2-1.8,7.5-1.8c3.5,0,6,0.6,7.4,1.8
	c1.4,1.2,2.2,3.3,2.2,6.3V29l-16.5,1.8c-2.4,0.3-4.5,0.8-6.2,1.5c-1.8,0.7-3.1,1.8-4.1,3c-1,1.3-1.4,2.9-1.4,4.8c0,3,1.1,5.3,3.3,7
	c2.2,1.7,5.2,2.5,9,2.5c4.1,0,7.6-0.9,10.3-2.6C97.1,45.4,99,43,100,39.9z M86.1,44c-2.2,0-3.9-0.4-4.9-1.1c-1-0.7-1.6-1.8-1.6-3.2
	s0.5-2.4,1.5-3s2.5-1,4.6-1.3l14.3-1.6V34c0,2.3-0.6,4.2-1.8,5.7c-1.2,1.5-2.8,2.6-4.8,3.3C91.3,43.7,88.9,44,86.1,44z"/>
<path class="st0" d="M138.6,41.9H132c-2.2,0-3.9-0.4-5-1.1c-1.1-0.8-1.6-2.3-1.6-4.5v-17h13.2v-6.6h-13.2v-8h-7.8v8h-6.2v6.6h6.2
	v17.5c0,4.4,1.1,7.5,3.4,9.4s5.3,2.8,9.2,2.8h8.3L138.6,41.9L138.6,41.9z"/>
<path class="st0" d="M154.4,31.4L154.4,31.4c0-2.6,0.4-4.8,1.1-6.6c0.8-1.8,2-3.2,3.7-4.2s4-1.5,6.9-1.5c3.8,0,6.5,0.8,8.3,2.4
	c1.7,1.6,2.6,4.2,2.6,7.9V49h7.8V27.4c0-3-0.5-5.6-1.7-7.9c-1.1-2.3-2.8-4.1-5-5.5c-2.2-1.3-5-2-8.3-2c-3.1,0-5.7,0.6-7.8,1.7
	s-3.7,2.6-4.9,4.4c-1.1,1.8-1.9,3.7-2.4,5.8h-0.4V0h-7.9v49h7.9L154.4,31.4L154.4,31.4z"/>
<path class="st0" d="M227.7,43.5c1.6-2,2.4-4.3,2.4-6.8V36h-7.9v0.6c0,2.2-0.8,3.8-2.5,5s-4.4,1.8-8.2,1.8c-4.4,0-7.5-1-9.4-3
	c-1.7-1.8-2.6-4.4-2.7-7.7h30.8c0.1-0.5,0.2-1.1,0.2-1.6c0-0.6,0.1-1.2,0.1-1.8c0-3.7-0.8-6.8-2.4-9.4c-1.6-2.6-3.8-4.5-6.7-5.9
	c-2.8-1.3-6.2-2-9.9-2c-4,0-7.4,0.8-10.3,2.4c-2.9,1.6-5.2,3.8-6.8,6.6s-2.4,6.2-2.4,10c0,4,0.8,7.4,2.4,10.2c1.6,2.8,3.9,5,6.9,6.4
	c3,1.5,6.4,2.2,10.4,2.2c3.6,0,6.8-0.5,9.5-1.7C223.9,47,226.1,45.5,227.7,43.5z M202.1,21.1c1.8-2,5-3,9.3-3c3.9,0,6.8,0.8,8.7,2.5
	c1.9,1.6,2.9,4.1,2.9,7.5c0,0.1,0,0.1,0,0.1h-23.6C199.6,25.2,200.5,22.8,202.1,21.1z"/>
<path class="st0" d="M269.3,37.7V49h7.2V12.7h-7.9v18.6c-0.1,3.6-1,6.4-2.8,8.3c-1.9,2-4.8,3-8.9,3c-3.9,0-6.6-0.9-8.3-2.6
	c-1.7-1.7-2.5-4.3-2.5-7.6V12.7h-7.8v21.9c0,2.8,0.6,5.4,1.7,7.7c1.1,2.3,2.8,4.1,5,5.5s5.1,2,8.5,2c3.2,0,5.8-0.6,8-1.8
	c2.1-1.2,3.8-2.7,5-4.5s2-3.7,2.3-5.8H269.3z"/>
<path class="st0" d="M317.1,32c-2.1-1.6-5.2-2.6-9.5-3.1l-8.4-1.2c-2.7-0.4-4.5-0.9-5.5-1.5s-1.5-1.7-1.5-3.1c0-1.7,0.6-3,2-3.7
	c1.3-0.8,3.7-1.2,7-1.2c2.7,0,4.8,0.3,6.2,0.8s2.5,1.3,3.1,2.2c0.6,1,0.9,2.2,0.9,3.6v0.4h7.8V25c0-2.9-0.7-5.3-2.2-7.2
	c-1.4-1.9-3.5-3.4-6.1-4.4c-2.7-1-5.8-1.5-9.5-1.5s-6.8,0.5-9.4,1.4c-2.5,0.9-4.4,2.2-5.7,3.8c-1.3,1.6-1.9,3.5-1.9,5.7
	c0,3.1,1,5.4,2.9,6.9c2,1.5,4.7,2.5,8.1,3l10,1.3c2.6,0.3,4.5,0.8,5.5,1.5c1,0.6,1.5,1.7,1.5,3.2c0,1.6-0.6,2.8-1.9,3.5
	c-1.3,0.8-3.7,1.1-7.3,1.1c-3.8,0-6.5-0.5-8.1-1.4s-2.4-2.5-2.4-4.9v-0.6h-7.9v0.2c0,4.2,1.6,7.4,4.8,9.7c3.2,2.2,7.7,3.4,13.6,3.4
	c3.4,0,6.4-0.4,8.9-1.3c2.5-0.8,4.5-2.1,5.9-3.7c1.4-1.6,2.1-3.6,2.1-5.8C320.2,35.9,319.1,33.6,317.1,32z"/>
</svg>
