<?xml version="1.0" encoding="utf-8"?>
<!-- Generator: Adobe Illustrator 25.2.0, SVG Export Plug-In . SVG Version: 6.00 Build 0)  -->
<svg version="1.1" id="Layer_1" xmlns="http://www.w3.org/2000/svg" xmlns:xlink="http://www.w3.org/1999/xlink" x="0px" y="0px"
	 viewBox="0 0 582.538 79.153" style="enable-background:new 0 0 582.538 79.153;" xml:space="preserve">
<style type="text/css">
	.st0{fill:#FFFFFF;}
</style>
<g>
	<path class="st0" d="M72.45,1.256l-26.002,77.05c-0.122,0.384-0.488,0.646-0.89,0.646H26.943c-0.414,0-0.768-0.262-0.902-0.646
		L0.051,1.256C-0.156,0.64,0.295,0,0.953,0h21.711c0.439,0,0.817,0.293,0.926,0.713l11.74,45.093c0.244,0.951,1.585,0.951,1.841,0
		L48.898,0.713C49.008,0.293,49.386,0,49.825,0h21.723C72.194,0,72.657,0.64,72.45,1.256z"/>
	<path class="st0" d="M192.21,77.629c0.28,0.628-0.183,1.335-0.866,1.335h-19.688c-0.378,0-0.719-0.226-0.878-0.573L160.49,54.809
		c-0.158-0.347-0.5-0.573-0.878-0.573h-3.145c-0.524,0-0.951,0.427-0.951,0.951V77.77c0,0.524-0.427,0.951-0.951,0.951h-18.127
		c-0.536,0-0.963-0.427-0.963-0.951V0.981c0-0.524,0.427-0.951,0.963-0.951h24.271c14.043,0,19.48,2.2,23.686,5.76
		c5.766,4.888,9.082,12.514,9.082,20.919c0,8.143-3.279,16.463-8.143,20.706c-1.463,1.256-2.755,2.219-4.084,3.017
		c-0.414,0.244-0.573,0.756-0.39,1.195L192.21,77.629z M174.265,27.026c0-3.846-1.524-6.382-4.669-7.747
		c-2.645-1.134-5.839-1.134-7.96-1.134h-5.169c-0.524,0-0.951,0.421-0.951,0.951V35.17c0,0.524,0.427,0.957,0.951,0.957h5.9
		c1.829,0,4.901,0,7.424-1.146C173.485,33.317,174.265,29.739,174.265,27.026z"/>
	<path class="st0" d="M437.249,55.016c0,6.93-2.731,13.531-7.131,17.231c-7.253,6.223-12.642,6.814-25.112,6.814h-24.344
		c-0.549,0-1-0.451-1-1V1.341c0-0.536,0.439-0.975,0.975-0.975h27.355c8.229,0,15.36,1.944,19.578,5.333l0.012,0.006l0.012,0.012
		c4.51,3.438,6.888,8.771,6.888,15.421c0,5.486-2.926,10.843-8.034,14.708c-0.573,0.433-0.475,1.317,0.171,1.621
		C433.678,40.802,437.249,46.702,437.249,55.016z M418.281,53.827c0-2.901-1.353-4.876-3.986-5.87
		c-2.06-0.817-4.62-0.817-6.156-0.817h-8.655c-0.536,0-0.975,0.433-0.975,0.969v12.099c0,0.542,0.439,0.981,0.987,0.981h8.643
		c1.231,0,3.791,0,5.912-0.896C416.818,59.179,418.281,56.942,418.281,53.827z M398.593,30.879c0,0.53,0.427,0.963,0.963,0.963
		h6.205c1.231,0,3.791,0,5.9-0.853c2.767-1.073,4.242-3.23,4.242-6.235c0-2.798-1.353-4.706-3.999-5.662
		c-2.048-0.78-4.608-0.78-6.144-0.78h-6.193c-0.536,0-0.975,0.439-0.975,0.987v11.58H398.593z"/>
	<path class="st0" d="M501.115,77.629c0.28,0.628-0.183,1.335-0.866,1.335h-19.688c-0.378,0-0.719-0.226-0.878-0.573l-10.289-23.583
		c-0.158-0.347-0.5-0.573-0.878-0.573h-3.145c-0.524,0-0.951,0.427-0.951,0.951v22.583c0,0.524-0.427,0.951-0.951,0.951h-18.127
		c-0.536,0-0.963-0.427-0.963-0.951V0.981c0-0.524,0.427-0.951,0.963-0.951h24.271c14.043,0,19.48,2.2,23.686,5.76
		c5.766,4.888,9.082,12.514,9.082,20.919c0,8.143-3.279,16.463-8.143,20.706c-1.463,1.256-2.755,2.219-4.084,3.017
		c-0.414,0.244-0.573,0.756-0.39,1.195L501.115,77.629z M483.17,27.026c0-3.846-1.524-6.382-4.669-7.747
		c-2.645-1.134-5.839-1.134-7.96-1.134h-5.169c-0.524,0-0.951,0.421-0.951,0.951V35.17c0,0.524,0.427,0.957,0.951,0.957h5.9
		c1.829,0,4.901,0,7.424-1.146C482.39,33.317,483.17,29.739,483.17,27.026z"/>
	<path class="st0" d="M581.559,79.153h-19.444c-0.512,0-0.975-0.335-1.134-0.823l-4.108-12.44c-0.122-0.396-0.5-0.67-0.914-0.67
		h-24.064c-0.427,0-0.805,0.274-0.939,0.683l-4.157,12.581c-0.134,0.402-0.5,0.67-0.914,0.67H506.27
		c-0.67,0-1.146-0.683-0.902-1.323L534.284,1.08c0.183-0.482,0.646-0.805,1.158-0.805h17.042c0.463,0,0.865,0.286,1.024,0.707
		l28.965,76.849C582.717,78.47,582.242,79.153,581.559,79.153z M550.924,47.817l-6.059-18.365c-0.305-0.908-1.597-0.908-1.902,0
		l-6.059,18.395c-0.207,0.628,0.256,1.274,0.914,1.274h12.166C550.656,49.122,551.132,48.457,550.924,47.817z"/>
	<path class="st0" d="M313.883,0.049H200.807c-0.5,0-0.999,0.499-0.999,0.999v16.228c0,0.499,0.499,0.999,0.999,0.999h17.653
		c0.497,0,0.996,0.374,0.996,0.874v20.098c0,0.499,0.375,0.999,0.875,0.999h18.1c0.625,0,0.999-0.5,0.999-0.999V19.148
		c0-0.5,0.375-0.874,0.997-0.874h33.828c0.5,0,1,0.374,1,0.874v20.098c0,0.499,0.375,0.999,0.874,0.999h18.225
		c0.5,0,0.875-0.5,0.875-0.999V19.148c0-0.5,0.5-0.874,0.999-0.874l17.654-0.015c0.499,0,0.997-0.498,0.997-0.996V1.045
		C314.879,0.547,314.381,0.049,313.883,0.049z"/>
	<path class="st0" d="M100.793,18.481h24.43c0.639,0,1.04-0.417,1.04-1.036V1.341c0-0.536-0.439-0.975-0.975-0.975h-17.786H80.764
		c-0.549,0-1,0.445-1,0.994v76.605c0,0.603,0.5,1.097,1.097,1.097h26.628h17.774c0.549,0,1-0.445,1-0.994V61.964
		c0-0.554-0.341-1.018-0.979-1.018h-24.491c-0.549,0-0.987-0.445-0.987-0.987V49.085c0-0.536,0.439-0.969,0.975-0.969h17.774
		c0.549,0,1-0.445,1-0.994V31.019c0-0.536-0.439-0.975-0.975-0.975h-17.786c-0.549,0-0.987-0.439-0.987-0.987v-9.588
		C99.806,18.92,100.245,18.481,100.793,18.481z"/>
	<path class="st0" d="M344.967,18.481h24.43c0.639,0,1.04-0.417,1.04-1.036V1.341c0-0.536-0.439-0.975-0.975-0.975h-17.786h-26.737
		c-0.549,0-1,0.445-1,0.994v76.605c0,0.603,0.5,1.097,1.097,1.097h26.628h17.774c0.549,0,1-0.445,1-0.994V61.964
		c0-0.554-0.341-1.018-0.979-1.018h-24.491c-0.549,0-0.987-0.445-0.987-0.987V49.085c0-0.536,0.439-0.969,0.975-0.969h17.774
		c0.549,0,1-0.445,1-0.994V31.019c0-0.536-0.439-0.975-0.975-0.975h-17.786c-0.549,0-0.987-0.439-0.987-0.987v-9.588
		C343.98,18.92,344.419,18.481,344.967,18.481z"/>
</g>
</svg>
